<svg width="320" height="102" viewBox="0 0 320 102" fill="none" xmlns="http://www.w3.org/2000/svg">
<rect x="1" y="1" width="318" height="100" rx="19" fill="white"/>
<rect x="1" y="1" width="318" height="100" rx="19" stroke="#EEEEEE" stroke-width="2"/>
<path d="M152.123 23.5858C150.814 23.5858 150.483 24.5428 150.102 25.6454L140.27 52.7603L130.837 25.8303C130.391 24.5759 130.037 23.5866 128.678 23.5866C127.538 23.5866 126.773 24.5003 126.773 25.3558C126.773 25.8067 126.871 26.0751 127.194 26.9636L137.549 55.3078C138.173 56.9589 138.585 58.0505 140.218 58.0505C141.852 58.0505 142.263 56.9597 142.888 55.3118L153.456 26.9006C153.833 25.9649 153.893 25.7351 153.893 25.2645C153.893 24.4696 153.167 23.5858 152.125 23.5858" fill="#371131"/>
<path d="M117.092 26.2805C116.334 24.5444 115.918 23.5859 114.336 23.5859C112.659 23.5859 112.214 24.7097 111.542 26.408L100.142 54.4989C99.7353 55.4503 99.6133 55.7368 99.6133 56.3255C99.6133 57.1416 100.377 58.0498 101.472 58.0498C102.788 58.0498 103.109 57.2274 103.598 55.9847L114.297 28.6376L120.479 43.7596C119.359 43.5802 117.873 43.4031 116.318 43.4031C112.771 43.4031 111.077 44.0468 110.97 44.0854C110.08 44.3986 109.611 45.3784 109.926 46.2685C110.167 46.9516 110.816 47.4096 111.539 47.4096C111.733 47.4096 111.924 47.3774 112.108 47.3129C112.13 47.305 113.369 46.8257 116.319 46.8257C118.985 46.8257 121.481 47.4278 122.042 47.5733L125.412 55.8714L125.441 55.9383C125.985 57.21 126.344 58.049 127.609 58.049C128.874 58.049 129.561 56.9944 129.561 56.2342C129.561 55.7163 129.461 55.3661 129.03 54.3611L117.093 26.2797L117.092 26.2805Z" fill="#371131"/>
<path d="M208.211 23.6787C207.363 23.6787 206.35 24.0651 206.35 25.9067L206.569 51.5508L189.074 25.6588C188.228 24.4122 187.761 23.7244 186.637 23.7244C184.457 23.7244 184.457 25.7509 184.457 27.0911V55.2331C184.457 56.3915 184.457 58.1426 186.364 58.1426C186.948 58.1426 187.403 57.9828 187.713 57.6665C188.249 57.1219 188.236 56.2538 188.228 55.5558L188.006 30.5908L205.225 56.0256C206.161 57.4036 206.63 58.0969 207.802 58.0969C208.601 58.0969 209.098 57.7672 209.354 57.5075C210.116 56.8559 210.116 56.2271 210.116 54.5492V26.5882C210.116 25.4313 210.116 23.6795 208.21 23.6795" fill="#371131"/>
<path d="M218.57 23.6787C216.664 23.6787 216.664 25.5706 216.664 26.5874V55.2315C216.664 56.3207 216.664 58.141 218.615 58.141C220.566 58.141 220.475 56.3199 220.475 55.2315V26.5874C220.475 25.499 220.475 23.6787 218.571 23.6787" fill="#371131"/>
<path d="M168.581 26.2805C167.824 24.5444 167.406 23.5858 165.825 23.5858C164.147 23.5858 163.703 24.7096 163.032 26.408L151.63 54.4988C151.224 55.4503 151.102 55.7367 151.102 56.3254C151.102 57.1415 151.867 58.0497 152.96 58.0497C154.277 58.0497 154.598 57.2273 155.086 55.9846L165.785 28.6375L171.968 43.7595C170.847 43.5801 169.362 43.403 167.806 43.403C164.261 43.403 162.567 44.0468 162.459 44.0853C161.569 44.3986 161.1 45.3784 161.413 46.2685C161.655 46.9516 162.303 47.4096 163.028 47.4096C163.222 47.4096 163.413 47.3773 163.597 47.3128C163.619 47.3049 164.858 46.8256 167.806 46.8256C170.473 46.8256 172.969 47.4277 173.531 47.5733L176.902 55.8713L176.93 55.9382C177.474 57.21 177.833 58.0489 179.098 58.0489C180.363 58.0489 181.05 56.9943 181.05 56.2341C181.05 55.7163 180.951 55.3661 180.52 54.3611L168.582 26.2797L168.581 26.2805Z" fill="#371131"/>
<path d="M124 73.7959C124 71.4452 125.772 69.5926 128.239 69.5926C129.721 69.5926 131.041 70.345 131.724 71.527L130.567 72.1983C130.139 71.3995 129.258 70.8896 128.239 70.8896C126.49 70.8896 125.332 72.1291 125.332 73.7959C125.332 75.4628 126.49 76.7031 128.239 76.7031C129.258 76.7031 130.15 76.1939 130.567 75.3943L131.724 76.0546C131.053 77.2358 129.732 78 128.239 78C125.772 78 124 76.1466 124 73.7959Z" fill="#371131"/>
<path d="M135.364 76.8534C136.059 76.8534 136.58 76.5409 136.858 76.1356L137.889 76.7377C137.356 77.5254 136.488 78 135.353 78C133.442 78 132.203 76.6912 132.203 74.9543C132.203 73.2175 133.443 71.9087 135.261 71.9087C137.079 71.9087 138.168 73.2985 138.168 74.9662C138.168 75.1401 138.145 75.325 138.121 75.4871H133.512C133.709 76.3906 134.438 76.8534 135.364 76.8534ZM136.905 74.4672C136.731 73.4717 136.001 73.0427 135.249 73.0427C134.311 73.0427 133.674 73.5984 133.5 74.4672H136.905Z" fill="#371131"/>
<path d="M144.32 74.2933V77.8481H143.069V74.42C143.069 73.5401 142.559 73.0766 141.772 73.0766C140.985 73.0766 140.301 73.5629 140.301 74.7442V77.8481H139.051V72.0574H140.301V72.7988C140.684 72.1967 141.309 71.9071 142.096 71.9071C143.393 71.9071 144.32 72.787 144.32 74.2925V74.2933Z" fill="#371131"/>
<path d="M147.254 73.2631V76.0428C147.254 76.7841 147.74 76.7723 148.69 76.7259V77.8489C146.767 78.0803 146.003 77.5475 146.003 76.0428V73.2631H144.938V72.0582H146.003V70.8077L147.254 70.437V72.0582H148.69V73.2631H147.254Z" fill="#371131"/>
<path d="M152.71 71.9543V73.3095C151.887 73.2521 150.926 73.6338 150.926 74.9307V77.8489H149.676V72.0582H150.926V73.0309C151.274 72.2432 151.98 71.9543 152.71 71.9543Z" fill="#371131"/>
<path d="M158.997 72.0582V77.8489H157.746V77.0155C157.306 77.6293 156.623 78 155.719 78C154.145 78 152.836 76.6684 152.836 74.9543C152.836 73.2403 154.145 71.9087 155.719 71.9087C156.623 71.9087 157.306 72.2794 157.746 72.8814V72.059H158.997V72.0582ZM157.746 74.9536C157.746 73.877 156.958 73.1002 155.916 73.1002C154.874 73.1002 154.086 73.8762 154.086 74.9536C154.086 76.0309 154.874 76.8061 155.916 76.8061C156.958 76.8061 157.746 76.0302 157.746 74.9536Z" fill="#371131"/>
<path d="M160.246 69.3951H161.497V77.8489H160.246V69.3951Z" fill="#371131"/>
<path d="M171.409 75.5328C171.409 76.8762 170.321 77.8489 168.978 77.8489H165.504V69.7429H168.723C170.032 69.7429 171.098 70.6928 171.098 71.989C171.098 72.6957 170.785 73.2749 170.275 73.6448C170.959 74.0037 171.41 74.6639 171.41 75.532L171.409 75.5328ZM166.835 70.9934V73.1246H168.723C169.314 73.1246 169.765 72.661 169.765 72.059C169.765 71.457 169.313 70.9934 168.723 70.9934H166.835ZM170.078 75.4635C170.078 74.8268 169.603 74.3287 168.978 74.3287H166.835V76.5984H168.978C169.603 76.5984 170.078 76.1002 170.078 75.4635Z" fill="#371131"/>
<path d="M177.55 72.0582V77.8489H176.3V77.1076C175.918 77.7096 175.292 77.9992 174.504 77.9992C173.208 77.9992 172.281 77.1194 172.281 75.6138V72.0582H173.532V75.4864C173.532 76.3662 174.041 76.8298 174.829 76.8298C175.617 76.8298 176.3 76.3434 176.3 75.1621V72.0582H177.55Z" fill="#371131"/>
<path d="M183.003 76.2159C183.003 77.3736 181.996 77.9992 180.745 77.9992C179.588 77.9992 178.753 77.4782 178.383 76.644L179.459 76.0184C179.644 76.5394 180.108 76.8526 180.745 76.8526C181.3 76.8526 181.729 76.6669 181.729 76.2041C181.729 75.1731 178.614 75.7524 178.614 73.6794C178.614 72.591 179.552 71.9079 180.734 71.9079C181.683 71.9079 182.47 72.3479 182.876 73.112L181.822 73.7031C181.613 73.2513 181.208 73.0428 180.734 73.0428C180.259 73.0428 179.888 73.2395 179.888 73.6566C179.888 74.7104 183.003 74.0737 183.003 76.2159Z" fill="#371131"/>
<path d="M189.582 72.0582V77.8489H188.332V77.0155C187.892 77.6293 187.209 78 186.305 78C184.731 78 183.422 76.6684 183.422 74.9543C183.422 73.2403 184.731 71.9087 186.305 71.9087C187.209 71.9087 187.892 72.2794 188.332 72.8814V72.059H189.582V72.0582ZM188.332 74.9536C188.332 73.877 187.544 73.1002 186.502 73.1002C185.46 73.1002 184.672 73.8762 184.672 74.9536C184.672 76.0309 185.46 76.8061 186.502 76.8061C187.544 76.8061 188.332 76.0302 188.332 74.9536Z" fill="#371131"/>
<path d="M196.312 74.2933V77.8481H195.061V74.42C195.061 73.5401 194.552 73.0766 193.764 73.0766C192.977 73.0766 192.293 73.5629 192.293 74.7442V77.8481H191.043V72.0574H192.293V72.7988C192.676 72.1967 193.301 71.9071 194.089 71.9071C195.386 71.9071 196.312 72.787 196.312 74.2925V74.2933Z" fill="#371131"/>
</svg>
