<svg width="320" height="102" viewBox="0 0 320 102" fill="none" xmlns="http://www.w3.org/2000/svg">
<rect x="1" y="1" width="318" height="100" rx="19" fill="white"/>
<rect x="1" y="1" width="318" height="100" rx="19" stroke="#EEEEEE" stroke-width="2"/>
<g clip-path="url(#clip0_57_1347)">
<path d="M113.83 41.7924C107.251 41.7924 103.305 45.789 103.305 50.7302C103.305 55.6714 107.259 59.6447 113.83 59.6447C120.401 59.6447 124.371 55.6558 124.371 50.7302C124.371 45.8046 120.417 41.7924 113.83 41.7924ZM113.83 57.7322C110.687 57.7322 108.277 54.602 108.277 50.738C108.277 46.8741 110.679 43.7204 113.83 43.7204C116.98 43.7204 119.398 46.8585 119.398 50.738C119.398 54.6176 116.996 57.7322 113.83 57.7322Z" fill="#8B7866"/>
<path d="M125.27 44.4387H132.207V58.9032H137.433V44.4387H143.289V42.4559H125.27V44.4387Z" fill="#8B7866"/>
<path d="M145.199 44.4387H151.046V58.9032H156.281V44.4387H163.226V42.4559H145.199V44.4387Z" fill="#8B7866"/>
<path d="M92.8869 55.9681V42.4637H87.875V56.9595C87.875 58.0445 88.774 58.911 89.8639 58.911H102.704V56.9439H93.8972C93.3324 56.9439 92.8949 56.5068 92.8949 55.976" fill="#8B7866"/>
<path d="M166.066 44.423V56.9517C166.066 58.0367 166.965 58.911 168.063 58.911H181.739V56.9595H172.089C171.532 56.9595 171.078 56.5224 171.078 55.9838V51.1284H181.579V49.2081H171.078V45.3754C171.078 44.829 171.524 44.3996 172.089 44.3996H181.739V42.4559H168.063C166.965 42.4559 166.066 43.3302 166.066 44.4152" fill="#8B7866"/>
<path d="M191.793 42.4637H194.744V49.3018H202.74V42.4637H205.691V58.9188H202.74V51.9871H194.744V58.9188H191.793V42.4637Z" fill="#8B7866"/>
<path d="M210.105 50.738V50.6912C210.105 46.0622 213.749 42.1826 218.896 42.1826C224.043 42.1826 227.639 46.0154 227.639 50.6443V50.6912C227.639 55.3201 223.996 59.1997 218.848 59.1997C213.701 59.1997 210.105 55.367 210.105 50.738ZM224.552 50.738V50.6912C224.552 47.4985 222.182 44.8601 218.848 44.8601C215.515 44.8601 213.192 47.4439 213.192 50.6443V50.6912C213.192 53.8916 215.563 56.5223 218.896 56.5223C222.23 56.5223 224.552 53.9385 224.552 50.738Z" fill="#8B7866"/>
<path d="M235.268 45.1412H229.93V42.4637H243.557V45.1412H238.219V58.9188H235.268V45.1412Z" fill="#8B7866"/>
<path d="M247.172 42.4637H259.606V45.0475H250.115V49.3252H258.524V51.9324H250.115V56.3272H259.725V58.9188H247.172V42.4637Z" fill="#8B7866"/>
<path d="M264.164 42.4637H267.108V56.2804H275.922V58.9188H264.164V42.4637Z" fill="#8B7866"/>
<path d="M279.02 56.5223L280.794 54.4537C282.401 55.8198 284.023 56.5926 286.092 56.5926C287.914 56.5926 289.059 55.7495 289.059 54.524V54.4771C289.059 53.2984 288.391 52.6661 285.28 51.9636C281.708 51.1205 279.696 50.0823 279.696 47.0536V47.0068C279.696 44.1888 282.09 42.2373 285.416 42.2373C287.858 42.2373 289.799 42.9633 291.502 44.3059L289.918 46.4916C288.407 45.3831 286.895 44.7977 285.368 44.7977C283.642 44.7977 282.639 45.6719 282.639 46.7492V46.796C282.639 48.0606 283.403 48.6304 286.641 49.3798C290.181 50.2229 292.003 51.4718 292.003 54.1961V54.243C292.003 57.3263 289.537 59.1529 286.02 59.1529C283.459 59.1529 281.032 58.2865 279.027 56.5223" fill="#8B7866"/>
<path d="M71.8264 40.8247L61.8026 30.9969C56.377 25.6732 47.5067 25.6732 42.0811 30.9969L32.0653 40.8247C26.6397 46.1484 26.6397 54.8521 32.0653 60.1758L42.0811 70.0036C47.5067 75.3273 56.377 75.3273 61.8026 70.0036L71.8264 60.1758C77.252 54.8521 77.252 46.1406 71.8264 40.8247ZM46.0668 64.9375C46.0668 64.9375 46.027 64.9375 46.0031 64.9375C45.2076 64.9375 44.5553 64.3208 44.5234 63.548C44.5075 63.1577 44.6428 62.7908 44.9133 62.502C45.1837 62.221 45.5497 62.0492 45.9475 62.0336C46.7589 61.9946 47.459 62.6269 47.4908 63.4231C47.5226 64.2271 46.8862 64.9062 46.0747 64.9375M63.871 58.8644C61.8344 62.0336 59.1534 64.2662 56.6952 64.8204C56.6873 64.8204 56.6554 64.8282 56.6316 64.836C56.1781 64.9141 55.7406 64.9609 55.3189 64.9609C53.7278 64.9609 52.6141 64.3676 51.8106 63.8446C51.023 63.3294 50.2832 62.6503 49.6229 61.8151C45.3826 56.4757 45.0962 46.4684 45.0803 45.3444C45.0326 42.6825 45.4224 39.0761 47.5465 37.0076C48.5807 36.0006 49.8774 35.4932 51.3969 35.4932H51.6435C53.171 35.4932 54.4677 36.0006 55.5019 37.0076C57.618 39.0683 58.0158 42.6747 57.9681 45.3444C57.9203 48.1155 57.4032 53.4939 54.4677 58.3102C54.229 58.7005 53.7915 58.9503 53.3301 58.9503C53.0914 58.9503 52.8527 58.8878 52.6539 58.7629C52.0254 58.396 51.8185 57.592 52.1924 56.9753C54.2449 53.6031 55.2394 49.8953 55.311 45.3053C55.3667 42.261 54.77 39.9738 53.6324 38.8654C53.1073 38.3502 52.455 38.1004 51.6435 38.1004H51.4128C50.6014 38.1004 49.949 38.3502 49.424 38.8654C48.2863 39.9738 47.6976 42.261 47.7454 45.3053C47.809 49.06 48.7239 56.4211 51.731 60.2148C52.2163 60.8315 52.7414 61.3233 53.2903 61.6746C53.8233 62.018 54.42 62.3537 55.3428 62.3537C55.5974 62.3537 55.8678 62.3303 56.1463 62.2756C57.8726 61.8697 60.0365 59.9885 61.6435 57.4749C61.8901 57.0924 62.3117 56.866 62.7731 56.866C63.0197 56.866 63.2664 56.9363 63.4812 57.069C63.7755 57.2564 63.9903 57.5452 64.0699 57.8808C64.1494 58.2243 64.0858 58.5678 63.9028 58.8644" fill="#8B7866"/>
</g>
<defs>
<clipPath id="clip0_57_1347">
<rect width="264" height="47" fill="white" transform="translate(28 27)"/>
</clipPath>
</defs>
</svg>
