<svg width="320" height="102" viewBox="0 0 320 102" fill="none" xmlns="http://www.w3.org/2000/svg">
<rect x="1" y="1" width="318" height="100" rx="19" fill="white"/>
<rect x="1" y="1" width="318" height="100" rx="19" stroke="#EEEEEE" stroke-width="2"/>
<path d="M93.0094 82.8899H90.7494V82.6199C90.8094 82.6199 90.8994 82.6099 91.0194 82.5999C91.1394 82.5999 91.2194 82.5699 91.2594 82.5499C91.3394 82.5199 91.3894 82.4699 91.4294 82.4099C91.4694 82.3499 91.4794 82.2699 91.4794 82.1699V80.2299H88.9194V82.1199C88.9194 82.2099 88.9294 82.2799 88.9594 82.3499C88.9894 82.4199 89.0494 82.4599 89.1294 82.5099C89.1694 82.5299 89.2494 82.5599 89.3594 82.5799C89.4694 82.5999 89.5594 82.6199 89.6194 82.6199V82.8899H87.3594V82.6199C87.4194 82.6199 87.5094 82.6099 87.6294 82.5999C87.7494 82.5999 87.8294 82.5699 87.8694 82.5499C87.9494 82.5199 87.9994 82.4699 88.0394 82.4099C88.0794 82.3499 88.0894 82.2699 88.0894 82.1699V78.2399C88.0894 78.1599 88.0694 78.0799 88.0394 78.0199C88.0094 77.9499 87.9494 77.8999 87.8694 77.8599C87.7994 77.8299 87.7194 77.7999 87.6194 77.7699C87.5194 77.7399 87.4394 77.7299 87.3594 77.7199V77.4499H89.6194V77.7199C89.5494 77.7199 89.4594 77.7299 89.3594 77.7499C89.2594 77.7699 89.1794 77.7899 89.1294 77.8099C89.0394 77.8399 88.9794 77.8899 88.9594 77.9599C88.9294 78.0299 88.9194 78.1099 88.9194 78.1899V79.8799H91.4794V78.2299C91.4794 78.1499 91.4594 78.0699 91.4294 78.0099C91.3994 77.9399 91.3394 77.8899 91.2594 77.8499C91.1894 77.8199 91.1094 77.7899 91.0094 77.7599C90.9094 77.7299 90.8294 77.7199 90.7594 77.7099V77.4399H93.0194V77.7099C92.9494 77.7099 92.8594 77.7199 92.7594 77.7399C92.6594 77.7599 92.5794 77.7799 92.5294 77.7999C92.4394 77.8299 92.3894 77.8799 92.3594 77.9499C92.3294 78.0199 92.3194 78.0999 92.3194 78.1799V82.0999C92.3194 82.1899 92.3294 82.2599 92.3594 82.3299C92.3894 82.3899 92.4494 82.4399 92.5294 82.4899C92.5694 82.5099 92.6494 82.5399 92.7594 82.5599C92.8694 82.5799 92.9594 82.5999 93.0194 82.5999V82.8699L93.0094 82.8899Z" fill="#2A3890"/>
<path d="M113.929 78.09C114.169 78.34 114.359 78.64 114.489 79C114.629 79.35 114.689 79.75 114.689 80.18C114.689 80.61 114.619 81 114.479 81.36C114.339 81.71 114.149 82.01 113.899 82.26C113.659 82.51 113.389 82.69 113.069 82.83C112.759 82.96 112.419 83.03 112.069 83.03C111.689 83.03 111.339 82.96 111.019 82.82C110.699 82.68 110.419 82.48 110.189 82.23C109.959 81.98 109.779 81.68 109.649 81.33C109.519 80.98 109.449 80.6 109.449 80.19C109.449 79.75 109.519 79.35 109.659 79.01C109.799 78.66 109.989 78.36 110.229 78.11C110.469 77.86 110.749 77.67 111.069 77.54C111.389 77.41 111.719 77.34 112.069 77.34C112.419 77.34 112.769 77.41 113.089 77.54C113.409 77.68 113.689 77.87 113.919 78.11L113.929 78.09ZM113.359 81.95C113.499 81.72 113.609 81.45 113.669 81.16C113.729 80.87 113.769 80.54 113.769 80.17C113.769 79.8 113.729 79.45 113.659 79.14C113.589 78.83 113.479 78.56 113.339 78.34C113.199 78.12 113.019 77.95 112.809 77.83C112.599 77.71 112.349 77.65 112.079 77.65C111.769 77.65 111.509 77.72 111.299 77.86C111.089 78 110.909 78.19 110.779 78.42C110.649 78.65 110.559 78.91 110.489 79.21C110.429 79.51 110.399 79.83 110.399 80.16C110.399 80.53 110.429 80.86 110.499 81.16C110.569 81.46 110.669 81.72 110.809 81.95C110.949 82.18 111.119 82.35 111.329 82.48C111.539 82.61 111.789 82.67 112.079 82.67C112.349 82.67 112.599 82.61 112.819 82.48C113.039 82.35 113.219 82.17 113.359 81.94V81.95Z" fill="#2A3890"/>
<path d="M133.04 78.92H132.78C132.76 78.83 132.72 78.72 132.66 78.59C132.6 78.46 132.53 78.34 132.46 78.23C132.38 78.11 132.3 78.01 132.21 77.92C132.12 77.83 132.03 77.78 131.95 77.77C131.87 77.77 131.77 77.75 131.65 77.75C131.53 77.75 131.42 77.75 131.32 77.75H131.1V82.1C131.1 82.18 131.12 82.26 131.15 82.33C131.19 82.4 131.25 82.45 131.34 82.49C131.39 82.51 131.48 82.53 131.63 82.56C131.78 82.59 131.89 82.61 131.97 82.61V82.88H129.4V82.61C129.47 82.61 129.58 82.59 129.73 82.58C129.88 82.56 129.98 82.55 130.03 82.52C130.11 82.49 130.18 82.44 130.22 82.38C130.26 82.32 130.28 82.23 130.28 82.13V77.74H130.06C129.98 77.74 129.88 77.74 129.76 77.74C129.64 77.74 129.53 77.75 129.42 77.76C129.34 77.77 129.25 77.82 129.16 77.91C129.07 78 128.99 78.1 128.91 78.22C128.83 78.33 128.77 78.46 128.71 78.59C128.65 78.72 128.61 78.83 128.59 78.91H128.32V77.43H133.06V78.91L133.04 78.92Z" fill="#2A3890"/>
<path d="M151.288 81.2799L151.188 82.88H146.668V82.61C146.748 82.61 146.848 82.59 146.978 82.58C147.108 82.56 147.188 82.5499 147.228 82.5299C147.308 82.4899 147.368 82.44 147.398 82.38C147.428 82.32 147.448 82.24 147.448 82.15V78.24C147.448 78.16 147.438 78.08 147.408 78.02C147.378 77.96 147.318 77.9 147.228 77.86C147.158 77.83 147.068 77.8 146.948 77.77C146.828 77.74 146.738 77.73 146.668 77.72V77.45H150.878V78.7599H150.588C150.538 78.5699 150.428 78.3599 150.258 78.1399C150.088 77.9199 149.928 77.7999 149.768 77.7799C149.688 77.7699 149.598 77.7599 149.488 77.7599C149.378 77.7599 149.258 77.7599 149.108 77.7599H148.258V79.9199H148.868C149.068 79.9199 149.208 79.9 149.298 79.86C149.388 79.82 149.468 79.7599 149.538 79.6699C149.598 79.5999 149.638 79.4999 149.678 79.3699C149.718 79.2499 149.748 79.13 149.758 79.02H150.048V81.15H149.758C149.748 81.03 149.718 80.8999 149.678 80.7599C149.638 80.6199 149.588 80.5199 149.538 80.4599C149.458 80.3599 149.368 80.2999 149.268 80.2599C149.168 80.2299 149.038 80.2099 148.868 80.2099H148.258V81.84C148.258 82 148.268 82.13 148.288 82.2299C148.308 82.32 148.358 82.3999 148.418 82.4399C148.488 82.4899 148.578 82.5199 148.688 82.5299C148.798 82.5399 148.968 82.5499 149.178 82.5499H149.508C149.648 82.5499 149.758 82.5499 149.858 82.5299C149.958 82.5199 150.058 82.5 150.158 82.47C150.258 82.44 150.338 82.41 150.378 82.36C150.498 82.24 150.618 82.0499 150.748 81.7999C150.878 81.5499 150.958 81.37 150.998 81.25H151.278L151.288 81.2799Z" fill="#2A3890"/>
<path d="M169.45 81.2699L169.34 82.8899H165.09V82.6199C165.15 82.6199 165.24 82.6099 165.36 82.5899C165.48 82.5799 165.56 82.5599 165.6 82.5399C165.68 82.5099 165.73 82.4599 165.77 82.3899C165.8 82.3299 165.82 82.2399 165.82 82.1399V78.2399C165.82 78.1499 165.81 78.0799 165.78 78.0099C165.75 77.9399 165.69 77.8899 165.61 77.8499C165.55 77.8199 165.47 77.7899 165.36 77.7599C165.25 77.7299 165.17 77.7099 165.1 77.7099V77.4399H167.4V77.7099C167.33 77.7099 167.24 77.7299 167.12 77.7499C167.01 77.7699 166.92 77.7899 166.87 77.8099C166.78 77.8399 166.72 77.8899 166.69 77.9699C166.66 78.0399 166.64 78.1199 166.64 78.2099V81.8599C166.64 82.0299 166.64 82.1599 166.66 82.2499C166.68 82.3399 166.72 82.4199 166.78 82.4699C166.84 82.5199 166.93 82.5499 167.04 82.5599C167.16 82.5699 167.32 82.5799 167.53 82.5799C167.62 82.5799 167.72 82.5799 167.82 82.5799C167.92 82.5799 168.02 82.5599 168.11 82.5499C168.2 82.5299 168.28 82.5099 168.36 82.4899C168.44 82.4599 168.49 82.4299 168.53 82.3899C168.64 82.2699 168.76 82.0899 168.9 81.8599C169.04 81.6199 169.14 81.4299 169.19 81.2799H169.46L169.45 81.2699Z" fill="#2A3890"/>
<path d="M241.61 50.67H78V72.86H241.61V50.67Z" fill="#1A1364"/>
<path d="M96.3589 59.51H95.8889C95.8489 59.34 95.7689 59.15 95.6689 58.92C95.5589 58.69 95.4389 58.48 95.3089 58.28C95.1689 58.07 95.0189 57.88 94.8589 57.73C94.6989 57.57 94.5389 57.48 94.3889 57.46C94.2489 57.44 94.0689 57.43 93.8489 57.42C93.6289 57.42 93.4289 57.41 93.2489 57.41H92.8489V65.22C92.8489 65.37 92.8789 65.51 92.9489 65.64C93.0089 65.77 93.1289 65.86 93.2889 65.93C93.3689 65.96 93.5489 66.01 93.8089 66.06C94.0689 66.12 94.2789 66.15 94.4289 66.15V66.64H89.8189V66.15C89.9489 66.15 90.1389 66.12 90.4089 66.09C90.6689 66.06 90.8589 66.03 90.9589 65.99C91.1089 65.93 91.2189 65.84 91.2889 65.73C91.3589 65.62 91.3989 65.47 91.3989 65.28V57.41H90.9989C90.8589 57.41 90.6789 57.41 90.4689 57.42C90.2589 57.42 90.0589 57.44 89.8589 57.46C89.7089 57.48 89.5489 57.57 89.3889 57.73C89.2289 57.89 89.0789 58.08 88.9389 58.28C88.7989 58.49 88.6789 58.71 88.5789 58.94C88.4689 59.17 88.3989 59.36 88.3589 59.51H87.8789V56.86H96.3889V59.51H96.3589Z" fill="#C3B48B"/>
<path d="M108.37 66.62H104.32V66.13C104.43 66.13 104.59 66.11 104.8 66.09C105.01 66.07 105.15 66.04 105.23 66.01C105.37 65.95 105.47 65.87 105.53 65.76C105.59 65.65 105.63 65.5 105.63 65.32V61.85H101.04V65.25C101.04 65.41 101.07 65.55 101.12 65.66C101.17 65.77 101.28 65.87 101.43 65.95C101.51 65.99 101.65 66.03 101.85 66.07C102.05 66.11 102.21 66.13 102.32 66.14V66.63H98.2695V66.14C98.3795 66.14 98.5395 66.12 98.7495 66.1C98.9595 66.08 99.0995 66.05 99.1795 66.02C99.3195 65.96 99.4195 65.88 99.4795 65.77C99.5395 65.66 99.5795 65.51 99.5795 65.33V58.29C99.5795 58.14 99.5495 58.01 99.4895 57.89C99.4295 57.77 99.3295 57.67 99.1795 57.6C99.0595 57.54 98.9095 57.49 98.7295 57.44C98.5495 57.39 98.3995 57.37 98.2695 57.36V56.87H102.32V57.36C102.19 57.36 102.03 57.38 101.85 57.42C101.66 57.46 101.53 57.49 101.43 57.52C101.27 57.58 101.17 57.67 101.12 57.79C101.07 57.92 101.04 58.06 101.04 58.21V61.24H105.63V58.28C105.63 58.13 105.6 58 105.54 57.88C105.48 57.76 105.38 57.66 105.23 57.59C105.11 57.53 104.96 57.48 104.78 57.43C104.6 57.38 104.45 57.36 104.32 57.35V56.86H108.37V57.35C108.24 57.35 108.08 57.37 107.9 57.41C107.71 57.45 107.58 57.48 107.48 57.51C107.32 57.57 107.22 57.66 107.17 57.78C107.12 57.91 107.09 58.05 107.09 58.2V65.24C107.09 65.4 107.12 65.54 107.17 65.65C107.22 65.76 107.33 65.86 107.48 65.94C107.56 65.98 107.7 66.02 107.9 66.06C108.1 66.1 108.26 66.12 108.37 66.13V66.62Z" fill="#C3B48B"/>
<path d="M119.079 63.75L118.889 66.63H110.789V66.14C110.929 66.14 111.109 66.11 111.339 66.08C111.569 66.05 111.719 66.02 111.789 65.99C111.939 65.92 112.039 65.83 112.099 65.72C112.159 65.61 112.189 65.47 112.189 65.3V58.28C112.189 58.13 112.159 57.99 112.109 57.88C112.059 57.76 111.949 57.67 111.789 57.59C111.669 57.53 111.499 57.48 111.289 57.43C111.079 57.38 110.909 57.36 110.789 57.35V56.86H118.339V59.21H117.819C117.729 58.86 117.529 58.49 117.219 58.1C116.909 57.71 116.619 57.49 116.349 57.46C116.209 57.44 116.039 57.43 115.839 57.42C115.639 57.42 115.419 57.41 115.169 57.41H113.639V61.29H114.739C115.089 61.29 115.349 61.26 115.509 61.19C115.669 61.12 115.819 61.01 115.939 60.86C116.039 60.73 116.129 60.55 116.199 60.33C116.269 60.11 116.319 59.9 116.339 59.7H116.859V63.53H116.339C116.319 63.31 116.269 63.08 116.189 62.83C116.109 62.58 116.029 62.41 115.939 62.3C115.799 62.12 115.639 62 115.459 61.95C115.279 61.89 115.039 61.87 114.739 61.87H113.639V64.8C113.639 65.09 113.659 65.32 113.699 65.49C113.739 65.66 113.819 65.79 113.939 65.87C114.059 65.96 114.219 66.01 114.429 66.04C114.639 66.07 114.929 66.08 115.309 66.08H115.909C116.159 66.08 116.369 66.08 116.539 66.05C116.709 66.03 116.889 66 117.079 65.95C117.269 65.9 117.399 65.84 117.479 65.75C117.689 65.53 117.909 65.2 118.139 64.75C118.369 64.3 118.519 63.97 118.579 63.76H119.079V63.75Z" fill="#C3B48B"/>
<path d="M133.311 59.3H132.791C132.691 58.94 132.491 58.55 132.191 58.14C131.891 57.73 131.591 57.5 131.311 57.46C131.171 57.44 131.001 57.43 130.801 57.42C130.611 57.42 130.381 57.41 130.141 57.41H128.501V61.33H129.621C129.961 61.33 130.221 61.29 130.411 61.22C130.601 61.15 130.761 61.04 130.891 60.89C130.981 60.79 131.071 60.63 131.141 60.42C131.221 60.21 131.271 59.98 131.291 59.74H131.811V63.58H131.291C131.281 63.38 131.231 63.15 131.151 62.89C131.071 62.63 130.981 62.45 130.891 62.33C130.751 62.16 130.581 62.04 130.371 61.98C130.161 61.92 129.911 61.89 129.621 61.89H128.501V65.25C128.501 65.4 128.531 65.54 128.591 65.66C128.651 65.78 128.751 65.88 128.911 65.95C128.981 65.98 129.131 66.02 129.361 66.07C129.591 66.12 129.761 66.14 129.881 66.15V66.64H125.651V66.15C125.791 66.15 125.971 66.13 126.201 66.1C126.431 66.08 126.581 66.05 126.651 66.02C126.791 65.96 126.891 65.87 126.951 65.76C127.011 65.64 127.041 65.5 127.041 65.34V58.3C127.041 58.15 127.011 58.01 126.961 57.9C126.911 57.78 126.801 57.69 126.641 57.61C126.521 57.55 126.351 57.5 126.141 57.45C125.931 57.4 125.771 57.38 125.641 57.37V56.88H133.301V59.32L133.311 59.3Z" fill="#C3B48B"/>
<path d="M139.568 66.62H135.168V66.13C135.288 66.13 135.468 66.11 135.708 66.09C135.938 66.07 136.108 66.04 136.208 66.01C136.358 65.95 136.468 65.87 136.538 65.77C136.608 65.67 136.638 65.52 136.638 65.34V58.27C136.638 58.11 136.618 57.98 136.558 57.87C136.508 57.76 136.388 57.67 136.198 57.6C136.058 57.54 135.888 57.49 135.678 57.45C135.468 57.4 135.298 57.37 135.168 57.36V56.87H139.568V57.36C139.428 57.36 139.258 57.38 139.058 57.41C138.858 57.44 138.688 57.48 138.538 57.52C138.368 57.58 138.248 57.66 138.188 57.79C138.128 57.91 138.098 58.05 138.098 58.2V65.27C138.098 65.42 138.128 65.56 138.198 65.67C138.268 65.79 138.378 65.88 138.538 65.95C138.638 65.99 138.788 66.03 139.008 66.07C139.228 66.11 139.408 66.14 139.558 66.14V66.63L139.568 66.62Z" fill="#C3B48B"/>
<path d="M151.43 66.62H148.8C148.22 65.71 147.69 64.92 147.22 64.25C146.75 63.58 146.24 62.9 145.69 62.19H144.69V65.29C144.69 65.45 144.72 65.59 144.77 65.71C144.82 65.83 144.93 65.92 145.09 65.99C145.17 66.02 145.32 66.05 145.52 66.08C145.73 66.11 145.9 66.12 146.04 66.13V66.62H141.91V66.13C142.02 66.13 142.18 66.1 142.39 66.08C142.6 66.06 142.74 66.03 142.83 65.99C142.97 65.93 143.07 65.84 143.13 65.73C143.19 65.62 143.22 65.47 143.22 65.29V58.23C143.22 58.07 143.2 57.93 143.15 57.8C143.1 57.68 143 57.58 142.83 57.52C142.72 57.48 142.57 57.44 142.38 57.41C142.2 57.38 142.04 57.35 141.91 57.35V56.86H146.42C146.83 56.86 147.22 56.9 147.58 56.99C147.94 57.07 148.27 57.21 148.56 57.4C148.84 57.58 149.07 57.82 149.24 58.12C149.41 58.42 149.49 58.77 149.49 59.19C149.49 59.57 149.43 59.9 149.32 60.19C149.21 60.48 149.04 60.73 148.81 60.94C148.6 61.14 148.36 61.31 148.07 61.45C147.78 61.59 147.46 61.72 147.11 61.82C147.59 62.46 147.99 62.99 148.31 63.43C148.63 63.87 149.02 64.4 149.48 65.02C149.68 65.3 149.86 65.5 150.03 65.63C150.19 65.76 150.35 65.87 150.52 65.95C150.64 66.01 150.79 66.06 150.97 66.09C151.15 66.12 151.3 66.14 151.42 66.15V66.64L151.43 66.62ZM147.81 59.35C147.81 58.76 147.64 58.29 147.3 57.95C146.96 57.6 146.48 57.43 145.86 57.43H144.69V61.61H145.59C146.22 61.61 146.75 61.41 147.17 61C147.59 60.59 147.8 60.04 147.8 59.35H147.81Z" fill="#C3B48B"/>
<path d="M159.008 62.14C159.218 62.37 159.368 62.62 159.468 62.89C159.568 63.16 159.618 63.48 159.618 63.84C159.618 64.7 159.298 65.41 158.658 65.97C158.018 66.53 157.228 66.81 156.288 66.81C155.848 66.81 155.418 66.74 154.978 66.61C154.538 66.47 154.168 66.31 153.848 66.12L153.548 66.62H152.998L152.898 63.28H153.458C153.568 63.69 153.708 64.07 153.858 64.4C154.008 64.73 154.218 65.04 154.468 65.33C154.708 65.6 154.988 65.82 155.308 65.98C155.628 66.14 155.998 66.22 156.418 66.22C156.738 66.22 157.008 66.18 157.248 66.1C157.488 66.02 157.678 65.9 157.818 65.75C157.968 65.6 158.078 65.42 158.148 65.22C158.218 65.02 158.258 64.78 158.258 64.51C158.258 64.12 158.148 63.76 157.928 63.42C157.708 63.08 157.378 62.83 156.948 62.65C156.648 62.53 156.308 62.4 155.928 62.26C155.538 62.12 155.208 61.98 154.928 61.85C154.378 61.6 153.948 61.28 153.648 60.88C153.338 60.48 153.188 59.96 153.188 59.31C153.188 58.94 153.268 58.59 153.418 58.27C153.568 57.95 153.788 57.66 154.068 57.41C154.338 57.17 154.648 56.98 155.008 56.85C155.368 56.71 155.748 56.65 156.148 56.65C156.598 56.65 156.998 56.72 157.358 56.86C157.718 57 158.038 57.16 158.328 57.34L158.608 56.87H159.158L159.218 60.11H158.658C158.558 59.74 158.448 59.38 158.318 59.04C158.188 58.7 158.028 58.39 157.828 58.12C157.628 57.85 157.388 57.64 157.108 57.48C156.828 57.32 156.478 57.24 156.058 57.24C155.618 57.24 155.248 57.38 154.948 57.66C154.638 57.94 154.488 58.28 154.488 58.68C154.488 59.08 154.588 59.45 154.788 59.73C154.988 60.01 155.268 60.24 155.648 60.41C155.978 60.57 156.308 60.71 156.638 60.83C156.958 60.95 157.278 61.07 157.578 61.21C157.858 61.33 158.118 61.46 158.368 61.62C158.618 61.77 158.848 61.95 159.028 62.15L159.008 62.14Z" fill="#C3B48B"/>
<path d="M169.9 59.51H169.43C169.39 59.34 169.31 59.15 169.21 58.92C169.1 58.69 168.98 58.48 168.85 58.28C168.71 58.07 168.56 57.88 168.4 57.73C168.24 57.57 168.08 57.48 167.93 57.46C167.79 57.44 167.61 57.43 167.39 57.42C167.17 57.42 166.97 57.41 166.79 57.41H166.39V65.22C166.39 65.37 166.42 65.51 166.49 65.64C166.55 65.77 166.67 65.86 166.83 65.93C166.91 65.96 167.09 66.01 167.35 66.06C167.61 66.12 167.82 66.15 167.97 66.15V66.64H163.36V66.15C163.49 66.15 163.69 66.12 163.95 66.09C164.21 66.06 164.4 66.03 164.5 65.99C164.65 65.93 164.76 65.84 164.83 65.73C164.9 65.62 164.94 65.47 164.94 65.28V57.41H164.54C164.4 57.41 164.22 57.41 164.01 57.42C163.8 57.42 163.6 57.44 163.4 57.46C163.25 57.48 163.09 57.57 162.93 57.73C162.77 57.89 162.62 58.08 162.48 58.28C162.34 58.49 162.22 58.71 162.11 58.94C162 59.17 161.93 59.36 161.89 59.51H161.41V56.86H169.92V59.51H169.9Z" fill="#C3B48B"/>
<path d="M202.4 39.65L178.56 82.91H174.1L196.34 44.12H182.68C180.95 44.12 179.6 44.12 178.63 44.15C177.66 44.17 176.76 44.37 175.95 44.75C175.3 45.05 174.73 45.74 174.27 46.82C173.8 47.9 173.43 49.23 173.15 50.8H170.98V36.11H202.42V39.66L202.4 39.65Z" fill="#C3B48B"/>
<path d="M230 40.43C231.3 42.02 232.26 43.83 232.89 45.87C233.51 47.91 233.83 50.02 233.83 52.2C233.83 54.8 233.44 57.15 232.66 59.25C231.88 61.35 230.82 63.12 229.46 64.57C228.04 66.08 226.39 67.23 224.51 68.03C222.63 68.82 220.46 69.22 218.02 69.22C215.44 69.22 213.16 68.75 211.18 67.82C209.2 66.89 207.56 65.66 206.24 64.13C204.94 62.62 203.95 60.84 203.28 58.8C202.6 56.75 202.27 54.56 202.27 52.21C202.27 49.86 202.59 47.73 203.23 45.74C203.87 43.75 204.86 41.96 206.19 40.35C207.49 38.78 209.14 37.52 211.14 36.58C213.14 35.64 215.44 35.16 218.04 35.16C220.64 35.16 223.07 35.65 225.07 36.62C227.07 37.59 228.71 38.87 230 40.43ZM222.77 62.63C223.27 61.3 223.62 59.81 223.83 58.17C224.04 56.53 224.15 54.54 224.15 52.2C224.15 50.09 224.05 48.2 223.86 46.51C223.66 44.82 223.33 43.32 222.87 42.01C222.39 40.66 221.76 39.62 220.97 38.88C220.18 38.15 219.21 37.78 218.07 37.78C216.93 37.78 215.93 38.14 215.15 38.87C214.36 39.6 213.72 40.62 213.23 41.95C212.78 43.16 212.46 44.65 212.26 46.4C212.05 48.16 211.95 50.09 211.95 52.2C211.95 54.31 212.04 56.28 212.22 57.83C212.4 59.38 212.73 60.87 213.21 62.3C213.64 63.59 214.25 64.64 215.06 65.43C215.86 66.23 216.86 66.62 218.04 66.62C219.13 66.62 220.08 66.26 220.89 65.55C221.69 64.83 222.33 63.86 222.79 62.63H222.77Z" fill="#C3B48B"/>
<path d="M211.149 19H211.129C193.469 19 178.639 24.87 159.859 32.29L159.179 32.56C142.549 39.14 125.159 40.7 120.979 40.99V30.51L101.189 23.44L78.2188 30.96V44.21H80.0187V32.26L100.269 25.64V42.4H102.069V25.68L119.169 31.79V42.9L120.109 42.86C120.309 42.86 140.569 41.86 159.829 34.25L160.509 33.98C178.829 26.73 193.359 20.99 210.249 20.81V37.9H212.049V20.89L239.479 23.42V43.3H241.279V21.78L211.159 19H211.149Z" fill="#C3B48B"/>
</svg>
