<svg width="320" height="102" viewBox="0 0 320 102" fill="none" xmlns="http://www.w3.org/2000/svg">
<rect x="1" y="1" width="318" height="100" rx="19" fill="white"/>
<rect x="1" y="1" width="318" height="100" rx="19" stroke="#EEEEEE" stroke-width="2"/>
<g clip-path="url(#clip0_57_1364)">
<path d="M142.934 44.424C140.761 44.424 138.813 45.4128 137.485 46.9728V45.3312H132.035V71.9999H138.094V62.6639C139.423 63.7631 141.106 64.4255 142.939 64.4255C148.292 64.4255 152.629 59.9471 152.629 54.4271C152.629 48.9071 148.292 44.4288 142.939 44.4288L142.934 44.424ZM152.624 54.4223C152.624 48.8976 148.287 44.424 142.934 44.424L152.624 54.4223ZM142.33 58.8479C139.989 58.8479 138.089 56.8656 138.089 54.4223C138.089 51.9792 139.989 49.9967 142.33 49.9967C144.67 49.9967 146.57 51.9792 146.57 54.4223C146.57 56.8656 144.67 58.8479 142.33 58.8479Z" fill="#2346FF"/>
<path d="M158.988 64.4256C160.996 64.4256 162.624 62.7966 162.624 60.7872C162.624 58.7778 160.996 57.1488 158.988 57.1488C156.98 57.1488 155.352 58.7778 155.352 60.7872C155.352 62.7966 156.98 64.4256 158.988 64.4256Z" fill="#FFB400"/>
<path fill-rule="evenodd" clip-rule="evenodd" d="M124.766 42.7872C122.891 42.7872 121.375 41.2656 121.375 39.3936C121.375 37.5216 122.896 36 124.766 36C126.637 36 128.158 37.5216 128.158 39.3936C128.158 41.2656 126.637 42.7872 124.766 42.7872Z" fill="#2346FF"/>
<path d="M127.797 45.3312H121.738V63.5136H127.797V45.3312Z" fill="#2346FF"/>
<path fill-rule="evenodd" clip-rule="evenodd" d="M86 36.8496V41.9376H93.8719V63.5136H99.9305V41.9376H107.802V36.8496H86Z" fill="#2346FF"/>
<path d="M175.34 58.848C172.999 58.848 171.099 56.8656 171.099 54.4224C171.099 51.9792 172.999 49.9968 175.34 49.9968C176.544 49.9968 177.628 50.52 178.396 51.36L182.406 47.3472C180.597 45.5376 178.098 44.4192 175.34 44.4192C169.818 44.4192 165.348 48.8976 165.348 54.4176C165.348 59.9376 169.823 64.416 175.34 64.416C178.098 64.416 180.597 63.2976 182.406 61.488L178.396 57.4752C177.623 58.3152 176.539 58.8384 175.34 58.8384V58.848Z" fill="#2346FF"/>
<path fill-rule="evenodd" clip-rule="evenodd" d="M228.357 44.424C225.905 44.424 223.91 45.3504 222.711 47.4048C221.622 45.4992 219.626 44.424 217.285 44.424C214.944 44.424 213.112 45.5232 211.985 47.3952V45.3312H206.535V63.5135H212.594V52.1711C212.594 50.6351 213.788 49.392 215.261 49.392C216.734 49.392 217.928 50.6351 217.928 52.1711V63.5135H223.622V52.1711C223.622 50.6351 224.817 49.392 226.289 49.392C227.762 49.392 228.956 50.6351 228.956 52.1711V63.5135H235.015V51.0336C235.015 46.9296 232.439 44.424 228.371 44.424H228.357Z" fill="#2346FF"/>
<path d="M193.512 44.424C187.99 44.424 183.52 48.9024 183.52 54.4224C183.52 59.9424 187.995 64.4207 193.512 64.4207C199.033 64.4207 203.504 59.9424 203.504 54.4224C203.504 48.9024 199.028 44.424 193.512 44.424ZM193.512 58.8479C191.171 58.8479 189.271 56.8656 189.271 54.4224C189.271 51.9792 191.171 49.9968 193.512 49.9968C195.853 49.9968 197.752 51.9792 197.752 54.4224C197.752 56.8656 195.853 58.8479 193.512 58.8479Z" fill="#2346FF"/>
<path d="M117.496 45.24C115.208 45.24 113.203 46.4256 112.047 48.2112V45.336H106.598V63.5184H112.675V55.8864C112.675 52.752 114.954 50.7936 117.765 50.7936C118.091 50.7936 118.403 50.8368 118.715 50.8944V45.3312C118.317 45.2784 117.914 45.2352 117.501 45.2352L117.496 45.24Z" fill="#2346FF"/>
</g>
<defs>
<clipPath id="clip0_57_1364">
<rect width="149" height="36" fill="white" transform="translate(86 36)"/>
</clipPath>
</defs>
</svg>
