<svg width="320" height="102" viewBox="0 0 320 102" fill="none" xmlns="http://www.w3.org/2000/svg">
<rect x="1" y="1" width="318" height="100" rx="19" fill="white"/>
<rect x="1" y="1" width="318" height="100" rx="19" stroke="#EEEEEE" stroke-width="2"/>
<g clip-path="url(#clip0_59_2021)">
<path d="M91.6914 63.8796V50.093C91.6914 49.8511 91.7565 49.6571 91.8867 49.511C92.0169 49.365 92.1905 49.2931 92.4075 49.2931H94.4777C94.6838 49.2931 94.8487 49.365 94.9746 49.511C95.0983 49.6571 95.1612 49.8511 95.1612 50.093V56.0043H98.7135V50.093C98.7135 49.8511 98.7764 49.6571 98.9001 49.511C99.0238 49.365 99.1909 49.2931 99.397 49.2931H101.467C101.684 49.2931 101.858 49.365 101.988 49.511C102.118 49.6571 102.183 49.8511 102.183 50.093V63.8796C102.183 64.1215 102.118 64.3155 101.988 64.4615C101.858 64.6076 101.684 64.6795 101.467 64.6795H99.397C99.1909 64.6795 99.0238 64.6076 98.9001 64.4615C98.7742 64.3155 98.7135 64.1215 98.7135 63.8796V57.6239H95.1612V63.8796C95.1612 64.1215 95.0983 64.3155 94.9746 64.4615C94.8487 64.6076 94.6838 64.6795 94.4777 64.6795H92.4097C92.1927 64.6795 92.0191 64.6076 91.8889 64.4615C91.7587 64.3155 91.6936 64.1215 91.6936 63.8796H91.6914Z" fill="#65351A"/>
<path d="M108.543 60.3158V53.659C108.543 50.6031 110.216 49.0751 113.562 49.0751C116.908 49.0751 118.631 50.6031 118.631 53.659V60.3158C118.631 63.3717 116.941 64.8997 113.562 64.8997C110.183 64.8997 108.543 63.3717 108.543 60.3158ZM115.112 53.1489C115.112 52.8089 115.103 52.5299 115.088 52.3119C115.07 52.094 115.036 51.8607 114.981 51.6123C114.927 51.3638 114.845 51.1698 114.736 51.0303C114.628 50.8908 114.476 50.7753 114.28 50.6837C114.085 50.5922 113.846 50.5464 113.564 50.5464C113.282 50.5464 113.046 50.5943 112.855 50.6924C112.664 50.7905 112.518 50.9039 112.414 51.039C112.31 51.172 112.232 51.366 112.178 51.621C112.123 51.876 112.091 52.1071 112.08 52.3119C112.069 52.519 112.063 52.798 112.063 53.1489V60.8062C112.063 61.1571 112.067 61.4361 112.08 61.6432C112.091 61.8503 112.123 62.0791 112.178 62.3342C112.232 62.5892 112.31 62.7832 112.414 62.9161C112.518 63.0491 112.664 63.1646 112.855 63.2627C113.046 63.3586 113.28 63.4087 113.564 63.4087C113.849 63.4087 114.085 63.363 114.28 63.2714C114.476 63.1799 114.628 63.0644 114.736 62.9249C114.845 62.7854 114.927 62.5914 114.981 62.3429C115.036 62.0944 115.07 61.8612 115.088 61.6432C115.105 61.4252 115.112 61.1462 115.112 60.8062V53.1489Z" fill="#65351A"/>
<path d="M135.397 50.9126H132.04V63.8796C132.04 64.1215 131.975 64.3155 131.845 64.4615C131.715 64.6076 131.541 64.6795 131.324 64.6795H128.928C128.711 64.6795 128.538 64.6076 128.408 64.4615C128.277 64.3155 128.212 64.1215 128.212 63.8796V50.9126H124.79C124.573 50.9126 124.421 50.7753 124.335 50.5028C124.248 50.2303 124.248 49.9601 124.335 49.6941C124.421 49.4282 124.573 49.2931 124.79 49.2931H135.399C135.616 49.2931 135.768 49.426 135.855 49.6941C135.942 49.9601 135.942 50.2303 135.855 50.5028C135.768 50.7753 135.616 50.9126 135.399 50.9126H135.397Z" fill="#65351A"/>
<path d="M150.943 61.5887C151.139 61.4187 151.34 61.41 151.547 61.5604C151.753 61.7129 151.87 61.9222 151.896 62.1881C151.922 62.454 151.84 62.7091 151.644 62.951C151.069 63.4959 150.251 63.9297 149.192 64.2523C148.133 64.5727 147.202 64.7471 146.397 64.7711C145.8 64.7841 145.249 64.7471 144.744 64.6621C144.238 64.5771 143.748 64.4245 143.268 64.2065C142.791 63.9885 142.413 63.6485 142.135 63.1886C141.858 62.7287 141.719 62.1641 141.719 61.4972V50.5115C141.719 50.1366 141.814 49.838 142.003 49.62C142.194 49.4021 142.446 49.2931 142.76 49.2931H150.859C151.076 49.2931 151.228 49.426 151.314 49.6941C151.401 49.9601 151.401 50.2303 151.314 50.5028C151.228 50.7753 151.076 50.9126 150.859 50.9126H145.579V55.2589H150.778C150.995 55.2589 151.147 55.3918 151.234 55.6599C151.321 55.9259 151.321 56.1962 151.234 56.4686C151.147 56.7411 150.995 56.8784 150.778 56.8784H145.579V61.3882C145.579 62.4192 146.078 62.9336 147.079 62.9336C147.686 62.9336 148.35 62.8268 149.066 62.6153C149.782 62.4039 150.407 62.0617 150.941 61.5887H150.943Z" fill="#65351A"/>
<path d="M166.622 61.8982C166.817 61.7522 167.013 61.7674 167.208 61.944C167.403 62.1206 167.51 62.3451 167.525 62.6175C167.54 62.89 167.447 63.1363 167.241 63.3543C166.622 63.8752 165.878 64.2632 165.008 64.5182C164.138 64.7732 163.324 64.9127 162.564 64.9367C161.978 64.9476 161.427 64.9084 160.911 64.819C160.394 64.7275 159.897 64.5705 159.42 64.346C158.943 64.1215 158.561 63.7749 158.279 63.3085C157.997 62.842 157.855 62.2753 157.855 61.6083V50.1867C157.855 49.5939 158.105 49.2953 158.604 49.2953H160.902C161.119 49.2953 161.293 49.3672 161.423 49.5132C161.553 49.6593 161.618 49.8533 161.618 50.0952V61.4449C161.618 61.9658 161.766 62.3669 162.059 62.6459C162.352 62.9249 162.764 63.0644 163.298 63.0644C164.45 63.0644 165.557 62.6764 166.622 61.9004V61.8982Z" fill="#65351A"/>
<path d="M93.5116 45.7184V43.6847L91.0182 37.5424C90.9922 37.4726 90.9944 37.4094 91.0226 37.3527C91.0508 37.296 91.0964 37.2677 91.1593 37.2677H93.0472C93.1795 37.2677 93.2707 37.3418 93.3206 37.4879L95.0956 42.4292L96.8989 37.4661C96.9314 37.3811 96.9597 37.3266 96.9879 37.3026C97.0161 37.2786 97.066 37.2655 97.1333 37.2655H97.6996C97.845 37.2655 97.8906 37.3396 97.8407 37.4857L95.688 43.3861V45.714C95.688 45.8535 95.6512 45.9669 95.5752 46.0519C95.4993 46.1369 95.3994 46.1783 95.2736 46.1783H93.9239C93.798 46.1783 93.6982 46.1369 93.6222 46.0519C93.5463 45.9669 93.5094 45.8557 93.5094 45.714L93.5116 45.7184Z" fill="#65351A"/>
<path d="M105.69 44.3909C105.803 44.2929 105.92 44.2863 106.04 44.3757C106.159 44.4629 106.226 44.5849 106.243 44.7397C106.259 44.8945 106.211 45.0427 106.098 45.1822C105.764 45.4982 105.291 45.7489 104.677 45.9363C104.063 46.1216 103.522 46.2219 103.058 46.2371C102.711 46.2437 102.392 46.2241 102.099 46.1739C101.806 46.1238 101.522 46.0366 101.244 45.9102C100.966 45.7838 100.749 45.5876 100.589 45.3195C100.428 45.0536 100.348 44.7266 100.348 44.3386V37.9739C100.348 37.756 100.402 37.5838 100.513 37.4573C100.623 37.3309 100.769 37.2677 100.951 37.2677H105.642C105.768 37.2677 105.857 37.3462 105.907 37.4988C105.957 37.6535 105.957 37.8105 105.907 37.9674C105.857 38.1265 105.768 38.205 105.642 38.205H102.583V40.7225H105.595C105.721 40.7225 105.81 40.801 105.859 40.9536C105.909 41.1083 105.909 41.2653 105.859 41.4222C105.81 41.5813 105.721 41.6598 105.595 41.6598H102.583V44.2732C102.583 44.8705 102.871 45.1691 103.451 45.1691C103.802 45.1691 104.186 45.1081 104.603 44.9838C105.017 44.8618 105.38 44.6634 105.688 44.3888L105.69 44.3909Z" fill="#65351A"/>
<path d="M108.652 43.6542V39.7983C108.652 38.0284 109.622 37.1435 111.56 37.1435C113.498 37.1435 114.496 38.0284 114.496 39.7983V43.6542C114.496 45.4241 113.517 46.3091 111.56 46.3091C109.603 46.3091 108.652 45.4241 108.652 43.6542ZM112.456 39.5019C112.456 39.3057 112.452 39.1444 112.441 39.018C112.432 38.8916 112.411 38.7564 112.38 38.6126C112.348 38.4687 112.302 38.3554 112.239 38.2747C112.176 38.1941 112.087 38.1265 111.975 38.0742C111.862 38.0219 111.723 37.9957 111.56 37.9957C111.397 37.9957 111.258 38.0241 111.15 38.0807C111.039 38.1374 110.955 38.2028 110.896 38.2813C110.835 38.3576 110.79 38.4709 110.759 38.6191C110.727 38.7673 110.709 38.9003 110.703 39.0202C110.696 39.1401 110.694 39.3014 110.694 39.5041V43.9397C110.694 44.1446 110.696 44.3059 110.703 44.4236C110.709 44.5435 110.729 44.6765 110.759 44.8247C110.79 44.9729 110.838 45.0841 110.896 45.1625C110.957 45.2388 111.041 45.3064 111.15 45.3631C111.261 45.4197 111.397 45.4481 111.56 45.4481C111.723 45.4481 111.862 45.4219 111.975 45.3696C112.087 45.3173 112.176 45.2497 112.239 45.1691C112.302 45.0884 112.35 44.9751 112.38 44.8312C112.413 44.6874 112.432 44.5522 112.441 44.4258C112.45 44.2994 112.456 44.1381 112.456 43.9419V39.5062V39.5019Z" fill="#65351A"/>
<path d="M121.287 39.3973C121.261 38.933 121.161 38.5842 120.985 38.3488C120.809 38.1134 120.575 37.9957 120.286 37.9957C119.876 37.9957 119.588 38.1265 119.418 38.3903C119.249 38.654 119.175 38.9962 119.201 39.4169C119.251 40.0272 119.622 40.5024 120.315 40.8402C121.232 41.2892 121.892 41.7056 122.291 42.0892C122.691 42.4728 122.906 42.9698 122.938 43.5801C122.964 44.0923 122.886 44.537 122.706 44.9141C122.526 45.289 122.276 45.5789 121.955 45.7772C121.634 45.9778 121.289 46.1216 120.922 46.2088C120.553 46.296 120.171 46.3309 119.774 46.3091C119.138 46.2807 118.589 46.1303 118.127 45.8557C117.665 45.581 117.305 45.2345 117.047 44.8138C116.934 44.6307 116.919 44.4433 117.003 44.2493C117.088 44.0553 117.212 43.9463 117.376 43.9179C117.539 43.8896 117.691 43.9594 117.83 44.1294C118.069 44.4868 118.353 44.7571 118.681 44.9359C119.008 45.1146 119.338 45.2018 119.672 45.1931C120.076 45.1865 120.373 45.0819 120.564 44.8814C120.755 44.6808 120.848 44.4171 120.842 44.0858C120.835 43.8329 120.753 43.5845 120.592 43.3425C120.432 43.1006 120.206 42.9196 119.917 42.7998C118.954 42.4052 118.242 41.9562 117.78 41.4462C117.318 40.9361 117.083 40.3062 117.077 39.5542C117.07 38.7739 117.348 38.1592 117.908 37.7102C118.468 37.2612 119.234 37.0606 120.202 37.1086C121.07 37.15 121.734 37.3876 122.194 37.8192C122.654 38.2508 122.886 38.7543 122.893 39.3319C122.893 39.5716 122.812 39.7635 122.652 39.9117C122.491 40.0599 122.311 40.1384 122.114 40.1493C121.916 40.1602 121.732 40.1013 121.562 39.9705C121.393 39.8397 121.302 39.6501 121.289 39.3973H121.287Z" fill="#65351A"/>
<path d="M127.885 45.18C128.055 45.3478 128.298 45.4328 128.612 45.4328C128.927 45.4328 129.17 45.3478 129.339 45.18C129.508 45.0122 129.593 44.6699 129.593 44.1577V37.7298C129.593 37.4203 129.732 37.2655 130.007 37.2655H131.177C131.459 37.2655 131.602 37.4247 131.602 37.7407V43.5038C131.602 44.537 131.346 45.2606 130.832 45.6748C130.32 46.0889 129.578 46.296 128.608 46.296C127.638 46.296 126.898 46.0889 126.384 45.6748C125.872 45.2606 125.613 44.537 125.613 43.5038V37.7298C125.613 37.4203 125.754 37.2655 126.039 37.2655H127.208C127.347 37.2655 127.451 37.3113 127.521 37.4029C127.59 37.4944 127.625 37.6056 127.625 37.7407V44.1577C127.625 44.6699 127.709 45.01 127.879 45.18H127.885Z" fill="#65351A"/>
<path d="M187.137 24.4969C186.509 24.9329 185.726 25.4407 184.774 25.9312C183.825 26.4281 182.721 26.9338 181.466 27.3632C178.969 28.2438 175.903 28.828 172.626 29.0459C170.985 29.1593 169.295 29.1985 167.587 29.1854C165.877 29.1811 164.152 29.1179 162.436 29.0677C160.719 29.0067 159.011 28.9544 157.338 28.9326C155.665 28.9108 154.025 28.9326 152.447 29.0154C150.872 29.1026 149.353 29.2486 147.927 29.4775C147.578 29.5298 147.205 29.5974 146.892 29.6584C146.545 29.7369 146.18 29.8023 145.879 29.8895C145.723 29.9309 145.566 29.9701 145.41 30.0115C145.254 30.0617 145.1 30.1096 144.948 30.1598C144.64 30.2513 144.349 30.3712 144.056 30.4758C142.904 30.9248 141.901 31.4872 141.074 32.0801C140.252 32.6773 139.59 33.2898 139.1 33.8456C138.603 34.3971 138.264 34.8831 138.039 35.2188C137.824 35.5632 137.711 35.7485 137.711 35.7485C137.711 35.7485 137.787 35.5436 137.926 35.16C138.091 34.7894 138.323 34.2249 138.748 33.5797C139.167 32.9301 139.738 32.1672 140.534 31.4262C141.328 30.6829 142.318 29.9222 143.52 29.3053C143.822 29.1571 144.125 28.9893 144.453 28.8585C144.614 28.7887 144.776 28.719 144.941 28.6492C145.113 28.586 145.286 28.5228 145.46 28.4574C145.818 28.3201 146.146 28.2264 146.491 28.1196C146.877 28.0106 147.215 27.9169 147.593 27.8275C149.064 27.4613 150.646 27.191 152.285 27.0123C153.923 26.827 155.62 26.7442 157.334 26.718C159.051 26.6897 160.784 26.7311 162.509 26.7812C164.224 26.8423 165.94 26.9033 167.628 26.9622C169.306 27.0079 170.953 27.0428 172.537 27.0123C175.707 26.9643 178.641 26.6526 181.102 26.0837C183.569 25.5301 185.553 24.7389 186.909 24.1002C187.586 23.7776 188.115 23.5117 188.469 23.3177C188.827 23.1237 189.018 23.0213 189.018 23.0213C189.018 23.0213 188.853 23.163 188.545 23.4267C188.23 23.6817 187.766 24.0675 187.139 24.4991L187.137 24.4969Z" fill="url(#paint0_linear_59_2021)"/>
<path d="M158.913 25.1857C158.913 25.1857 156.044 24.9655 152.802 25.5497C152.802 25.5497 150.615 19.1392 157.513 15C157.513 15 154.193 19.8542 158.915 25.1857H158.913Z" fill="url(#paint1_linear_59_2021)"/>
<path d="M157.294 18.4613C160.245 24.0326 164.876 25.2968 164.876 25.2968C161.486 25.0571 160.234 25.1486 160.234 25.1486C156.575 20.8437 157.296 18.4613 157.296 18.4613H157.294Z" fill="url(#paint2_linear_59_2021)"/>
<path d="M135.136 41.7143C135.212 41.4723 135.334 41.1781 135.464 40.8293C135.622 40.4937 135.785 40.0926 136.037 39.6785C136.516 38.8415 137.219 37.8671 138.248 36.9582C138.771 36.5179 139.348 36.0689 140.008 35.6722C140.665 35.2733 141.394 34.9202 142.176 34.6085C143.74 33.996 145.513 33.547 147.403 33.3159C149.291 33.074 151.29 32.9672 153.336 33.0042C154.358 33.0151 155.402 33.0522 156.432 33.0827C157.463 33.1176 158.509 33.1263 159.557 33.1437C160.605 33.159 161.658 33.1459 162.715 33.1198C163.24 33.1001 163.776 33.0936 164.29 33.0587C164.806 33.0326 165.332 33.0042 165.874 32.9541C167.968 32.8037 170.045 32.4833 172.063 32.0386C174.077 31.5853 176.04 31.0207 177.883 30.3189C179.725 29.6192 181.463 28.8236 183.056 27.9604C183.85 27.5223 184.61 27.0733 185.326 26.609C186.051 26.1578 186.725 25.6805 187.368 25.2119C188.642 24.2637 189.753 23.3112 190.694 22.4153C191.627 21.5107 192.398 20.6716 193.01 19.9566C193.613 19.2351 194.071 18.6553 194.37 18.2456C194.674 17.8358 194.835 17.6156 194.835 17.6156C194.835 17.6156 194.713 17.8576 194.485 18.3131C194.249 18.76 193.895 19.427 193.376 20.2291C192.858 21.0312 192.198 21.9924 191.339 23.0169C190.482 24.0435 189.444 25.153 188.199 26.2407C186.962 27.337 185.534 28.4356 183.926 29.4426C182.318 30.454 180.55 31.4087 178.634 32.1999C177.679 32.6032 176.694 32.9781 175.68 33.3138C174.669 33.6581 173.63 33.9546 172.571 34.2074C171.514 34.4668 170.435 34.6891 169.346 34.8526C168.257 35.0248 167.154 35.1621 166.054 35.2362C165.523 35.282 164.971 35.3104 164.414 35.3343C163.856 35.367 163.316 35.3692 162.767 35.3866C161.675 35.4019 160.59 35.3866 159.516 35.3539C157.37 35.2951 155.267 35.0902 153.284 34.9987C151.292 34.9115 149.378 34.8592 147.577 34.9899C145.778 35.1164 144.098 35.3823 142.608 35.8269C141.119 36.2825 139.826 36.9015 138.784 37.6295C137.758 38.3706 136.972 39.1815 136.414 39.9226C136.124 40.2866 135.915 40.6462 135.709 40.9492C135.536 41.2674 135.373 41.5355 135.262 41.7622C135.043 42.22 134.926 42.4641 134.926 42.4641C134.926 42.4641 135.002 42.2047 135.145 41.7121L135.136 41.7143Z" fill="url(#paint3_linear_59_2021)"/>
<path d="M213.361 65.6952C213.435 65.6713 213.643 65.5971 213.71 65.5732C213.732 65.5644 213.754 65.5557 213.775 65.5492C214.142 65.425 214.52 65.2702 215.004 65.0544C215.036 65.0391 215.071 65.0261 215.103 65.013C215.114 65.0086 215.136 65.0021 215.156 64.9934L215.236 64.9498C215.251 64.9411 215.268 64.9323 215.286 64.9236C215.453 64.843 215.629 64.7492 215.824 64.6403L216.113 64.4811C216.386 64.322 216.633 64.1607 216.855 64.0016C217.111 63.8142 217.373 63.5962 217.666 63.3237C218.217 62.8137 218.675 62.26 219.027 61.6737C219.051 61.6323 219.079 61.5909 219.107 61.5516C219.613 60.6667 219.871 59.7294 219.871 58.7638C219.871 58.0794 219.756 57.5061 219.528 57.0571C219.443 56.8915 219.324 56.7214 219.207 56.5601C219.157 56.4926 219.109 56.4337 219.049 56.3683C219.036 56.3531 219.022 56.3378 219.009 56.3226C218.832 56.1133 218.738 56.0327 218.684 55.9891C218.677 55.9847 218.673 55.9804 218.667 55.976C218.497 55.8409 218.287 55.7122 218.018 55.5836C217.888 55.5204 217.699 55.4333 217.514 55.3766C217.098 55.2523 216.685 55.1869 216.308 55.1869C215.271 55.1869 214.476 55.5052 213.88 56.1613C213.875 56.1656 213.871 56.17 213.867 56.1743C213.726 56.3247 213.591 56.5122 213.441 56.765C213.239 57.1094 213.107 57.4865 213.046 57.8767C213.046 57.8919 213.042 57.905 213.04 57.9181C213.005 58.1143 212.988 58.2974 212.988 58.4805C212.988 59.0319 213.131 59.6422 213.413 60.294C213.535 60.5751 213.691 60.8585 213.877 61.1353C214.201 61.6149 214.262 62.2273 214.04 62.7635C213.854 63.2147 213.487 63.5591 213.036 63.7182C212.697 63.8534 212.35 63.9667 211.998 64.0539C211.927 64.0801 211.842 64.1019 211.77 64.1193C211.456 64.1869 211.165 64.2305 210.898 64.2675L210.748 64.2893C210.449 64.3351 210.171 64.3722 209.906 64.3961C209.468 64.4397 209.132 64.4593 208.826 64.4593C208.702 64.4593 208.578 64.4593 208.455 64.4528H208.337C208.324 64.4485 208.311 64.4485 208.298 64.4463L208.149 64.4375L208.016 64.4288C207.999 64.4288 207.982 64.4267 207.962 64.4245L207.782 64.4092C207.782 64.4092 207.769 64.4092 207.765 64.407C204.134 64.043 202.472 61.8437 202.049 61.1789C202.04 61.1637 202.032 61.1484 202.023 61.1353L202.005 61.1048C201.478 60.2307 201.027 59.106 200.671 57.7721C200.196 55.9891 199.955 53.5827 199.955 50.614C199.955 47.8588 200.178 45.5919 200.619 43.8787C201.064 42.1393 201.691 40.7509 202.487 39.7569C203.294 38.7455 204.26 38.0502 205.362 37.6862C206.43 37.3331 207.606 37.1544 208.86 37.1544C209.355 37.1544 209.856 37.1892 210.351 37.2612C210.573 37.2895 210.794 37.3287 211.024 37.3745C211.419 36.7577 211.885 36.1866 212.413 35.6656C212.146 35.5893 211.877 35.524 211.595 35.4651C211.449 35.4346 211.308 35.4063 211.165 35.3823C210.889 35.3343 210.583 35.2929 210.262 35.258C210.243 35.2559 209.969 35.2232 209.869 35.2144C209.859 35.2144 209.854 35.2144 209.846 35.2144C209.36 35.173 208.91 35.1534 208.472 35.1534C206.2 35.1534 204.136 35.5632 202.333 36.3697C200.536 37.1762 198.987 38.2878 197.731 39.6763C196.47 41.0669 195.487 42.706 194.81 44.5522C194.126 46.4028 193.781 48.395 193.781 50.4788C193.781 52.5626 194.144 54.7292 194.86 56.6517C195.576 58.5676 196.607 60.2613 197.919 61.6824C199.234 63.1058 200.838 64.2479 202.689 65.0827C203.028 65.2353 203.394 65.377 203.843 65.5296C203.859 65.5339 203.876 65.5405 203.891 65.547L203.906 65.5514C203.917 65.5535 203.93 65.5579 203.941 65.5623C204.453 65.7279 204.974 65.8652 205.488 65.9699C205.497 65.9699 205.506 65.9742 205.514 65.9764C206.925 66.2903 207.921 66.3557 208.509 66.3557C208.706 66.3557 208.821 66.347 208.852 66.3448C208.917 66.3382 208.982 66.3339 209.049 66.3339C210.603 66.3208 212.052 66.1094 213.354 65.7018L213.361 65.6952Z" fill="#65351A"/>
<path d="M197.829 36.2018C198.476 35.7812 199.159 35.4063 199.88 35.0749V34.1987H178.444V37.6295H187.315V57.1661C187.315 58.4499 187.176 59.5398 186.903 60.3986C186.636 61.2356 186.265 61.9222 185.794 62.4366C185.597 62.6546 185.382 62.8442 185.152 63.0077C184.735 63.2845 184.295 63.4785 183.848 63.6115C183.83 63.6158 183.815 63.6202 183.8 63.6245C183.783 63.6311 183.765 63.6332 183.748 63.6398C183.618 63.6703 183.487 63.6986 183.355 63.7226V63.7292C183.09 63.7793 182.828 63.8098 182.565 63.8251V63.8185C182.511 63.8207 182.455 63.8272 182.402 63.8316C182.322 63.836 182.242 63.836 182.164 63.836C180.252 63.836 178.601 63.0731 178.601 63.0731C178.972 62.6894 179.273 62.2579 179.506 61.7827C179.853 61.0765 180.029 60.3528 180.029 59.627C180.029 59.1169 179.948 58.6221 179.779 58.1557C179.61 57.6783 179.358 57.2555 179.024 56.898C178.694 56.5449 178.295 56.2594 177.835 56.0457C177.366 55.8256 176.834 55.7144 176.253 55.7144C175.719 55.7144 175.205 55.8125 174.727 56.0043C174.25 56.1961 173.818 56.4664 173.451 56.8152C173.076 57.1683 172.774 57.6064 172.553 58.1208C172.329 58.6374 172.219 59.2303 172.219 59.8864C172.219 60.8759 172.477 61.8394 172.987 62.7461C173.488 63.6398 174.191 64.4288 175.072 65.0936C175.938 65.7497 176.975 66.2838 178.154 66.6826C178.987 66.9638 179.879 67.1447 180.816 67.2276C180.834 67.2319 180.849 67.2341 180.864 67.2363C180.886 67.2363 180.907 67.2363 180.929 67.2406C180.985 67.245 181.044 67.2494 181.1 67.2515C181.435 67.2755 181.754 67.2864 182.06 67.2864C184.421 67.2864 185.953 66.6652 185.953 66.6652C186.317 66.5388 186.673 66.3993 187.018 66.2402C188.504 65.5492 189.783 64.625 190.82 63.4937C191.775 62.4497 192.523 61.2465 193.072 59.9212C192.565 59.0581 192.122 58.1426 191.759 57.177C190.98 55.0867 190.583 52.8329 190.583 50.4788C190.583 48.1248 190.961 46.0519 191.705 44.0357C192.126 42.8913 192.662 41.8254 193.291 40.8337C193.354 40.7356 193.417 40.6419 193.48 40.546C193.591 40.3781 193.708 40.2168 193.825 40.0555C194.936 38.5341 196.16 37.4225 197.213 36.64C197.397 36.507 197.577 36.3719 197.768 36.2476C197.788 36.2345 197.809 36.2215 197.829 36.2062V36.2018Z" fill="#65351A"/>
<path d="M227.732 53.0748C226.855 51.7256 225.249 50.1976 222.96 48.5389C219.505 46.0301 218.561 44.9794 218.153 44.4062C217.457 43.4384 217.101 42.3813 217.101 41.2696C217.101 39.9465 217.522 38.8763 218.353 38.0938C218.889 37.5947 219.486 37.259 220.132 37.0912C220.163 37.0824 220.193 37.0759 220.223 37.0694C220.48 37.017 220.872 36.956 221.311 36.956C221.912 36.956 222.428 37.0715 222.847 37.2982C222.875 37.3135 222.903 37.3309 222.932 37.3462C223.27 37.5554 223.839 38.0459 223.858 38.9722C223.858 38.9853 223.858 38.9984 223.858 39.0115C223.858 39.2251 223.826 39.5193 223.583 40.0839C223.4 40.5024 223.361 40.7814 223.361 40.9427C223.361 41.7339 223.672 42.0739 223.943 42.281C224.416 42.6428 224.943 42.8194 225.553 42.8194C226.312 42.8194 226.879 42.5927 227.339 42.1066C227.814 41.6053 228.035 41.0516 228.035 40.3563C228.035 39.0333 227.484 37.9608 226.349 37.0781C225.338 36.2956 224.049 35.8378 222.517 35.7223C222.48 35.7201 222.446 35.7158 222.409 35.7114C222.404 35.7114 222.402 35.7114 222.398 35.7114C222.363 35.707 222.25 35.694 221.992 35.694H221.834C221.81 35.694 221.786 35.6961 221.76 35.6961C221.521 35.7027 221.285 35.7179 221.118 35.7288C221.096 35.731 221.074 35.7332 221.052 35.7354C220.916 35.7463 220.805 35.7572 220.742 35.7637C220.714 35.7703 220.686 35.7724 220.657 35.7768C219.488 35.9163 218.401 36.289 217.426 36.8863C216.975 37.1631 216.537 37.49 216.12 37.8562C215.38 38.5123 214.803 39.2817 214.406 40.1405C213.954 41.1149 213.727 42.2156 213.727 43.4101C213.727 45.204 214.197 46.7581 215.126 48.0288C215.946 49.147 217.32 50.4962 219.208 52.0351C219.627 52.3773 220.02 52.689 220.404 52.9833C222.196 54.3587 223.439 55.4659 224.199 56.3683C224.221 56.3923 224.242 56.4163 224.264 56.4403C224.327 56.51 224.381 56.571 224.425 56.6277C224.429 56.6343 224.435 56.6408 224.44 56.6473C225.227 57.6696 225.549 58.8139 225.625 60.0411C225.625 60.0411 225.733 63.363 223.52 62.4017C223.511 62.3974 223.502 62.3908 223.494 62.3865C223.344 62.2905 223.153 62.138 222.864 61.7238C222.65 61.4165 222.472 61.2661 222.361 61.1942C221.812 60.8411 221.445 60.8934 221.187 60.9806C220.736 61.131 220.391 61.3991 220.135 61.8023C219.816 62.3058 219.733 62.781 219.878 63.3019C220.026 63.8403 220.319 64.2327 220.801 64.5443C221.417 64.941 222.157 65.1721 222.908 65.1765C222.932 65.1765 222.955 65.1765 222.979 65.1765C223.274 65.1656 223.574 65.1154 223.865 65.0348C225.277 64.6424 226.523 63.5896 226.523 63.5896C228.194 62.1532 229.005 60.1653 229.005 57.5083C229.005 55.8626 228.578 54.3696 227.736 53.0705L227.732 53.0748Z" fill="#65351A"/>
<path d="M94.2754 84.5212C93.4443 84.5212 92.8194 84.2815 92.4006 83.7997C91.9818 83.318 91.7734 82.7753 91.7734 82.1693C91.7734 81.8053 91.8928 81.4609 92.1315 81.1362C92.3702 80.8114 92.6718 80.6479 93.0407 80.6479C93.5984 80.6479 93.8783 80.9008 93.8783 81.4021C93.8783 81.6767 93.7677 81.9448 93.5463 82.2042C93.338 82.4658 93.21 82.638 93.1666 82.7208C93.121 82.8036 93.0993 82.9257 93.0993 83.0848C93.0993 83.4096 93.2143 83.6755 93.4422 83.8782C93.67 84.0831 93.9434 84.1834 94.2602 84.1834C94.5771 84.1834 94.9112 84.0962 95.2411 83.9262C95.5709 83.754 95.8573 83.5055 96.1026 83.1807C96.3478 82.8559 96.5691 82.3917 96.7687 81.7857C96.9684 81.1798 97.2613 80.1444 97.6497 78.6796L98.572 75.0657C98.8063 74.1219 98.9235 73.4942 98.9235 73.1825C98.9235 72.8948 98.8411 72.6855 98.6761 72.5525C98.5112 72.4196 98.1879 72.3128 97.7062 72.2365C97.5412 72.2103 97.4588 72.1515 97.4588 72.0556C97.4588 71.9401 97.5326 71.8834 97.678 71.8834C97.7995 71.8834 97.9601 71.8965 98.164 71.9204C98.5199 71.9597 99.4226 71.9771 100.877 71.9771L102.541 71.9488C102.738 71.9488 102.836 72.0098 102.836 72.1297C102.836 72.2496 102.662 72.3237 102.313 72.3695C101.723 72.4392 101.295 72.6572 101.033 73.019C100.77 73.383 100.486 74.2113 100.18 75.5038C99.8436 76.8988 99.364 78.7036 98.7434 80.9138C98.381 82.2195 97.8841 83.1197 97.2483 83.6101C96.4671 84.2161 95.4776 84.519 94.2798 84.519L94.2754 84.5212Z" fill="#65351A"/>
<path d="M104.518 78.6578C105.108 78.6578 105.572 78.8845 105.911 79.3379C106.249 79.7913 106.416 80.3275 106.416 80.9465C106.416 81.814 106.113 82.6227 105.503 83.3725C104.895 84.1223 104.168 84.4972 103.324 84.4972C102.701 84.4972 102.254 84.2684 101.979 83.8106C101.703 83.3529 101.566 82.8712 101.566 82.3677C101.566 81.7051 101.738 81.062 102.079 80.4387C102.421 79.8153 102.818 79.3619 103.272 79.0807C103.726 78.7973 104.14 78.6557 104.518 78.6557V78.6578ZM104.643 78.939C104.394 78.939 104.12 79.0829 103.821 79.3728C103.522 79.6627 103.226 80.1814 102.936 80.9334C102.645 81.6854 102.499 82.3895 102.499 83.0477C102.499 83.3682 102.573 83.6428 102.719 83.8738C102.866 84.1049 103.064 84.2204 103.311 84.2204C103.591 84.2204 103.895 84.0548 104.22 83.7213C104.546 83.3878 104.847 82.8734 105.123 82.1737C105.399 81.474 105.535 80.8136 105.535 80.188C105.535 79.7695 105.462 79.4578 105.312 79.2507C105.162 79.0437 104.941 78.9412 104.641 78.9412L104.643 78.939Z" fill="#65351A"/>
<path d="M110.099 83.5687C110.438 83.0608 110.748 82.4614 111.033 81.7726C111.317 81.0838 111.458 80.552 111.458 80.1771C111.458 79.9591 111.421 79.715 111.345 79.4469C111.306 79.3096 111.284 79.2093 111.284 79.1461C111.284 78.8083 111.419 78.6382 111.69 78.6382C111.805 78.6382 111.903 78.6905 111.981 78.793C112.059 78.8954 112.098 79.0153 112.098 79.1548C112.098 79.5166 111.97 80.079 111.712 80.8441C111.454 81.6091 111.035 82.5137 110.455 83.56C109.876 84.6062 109.286 85.4825 108.687 86.1887C108.088 86.8949 107.606 87.3635 107.242 87.5946C106.877 87.8234 106.565 87.939 106.302 87.939C106.061 87.939 105.859 87.867 105.697 87.7254C105.532 87.5837 105.449 87.3897 105.449 87.1434C105.449 86.9647 105.499 86.8142 105.597 86.69C105.694 86.5658 105.825 86.5026 105.99 86.5026C106.282 86.5026 106.434 86.6987 106.443 87.0911C106.447 87.3265 106.541 87.4464 106.723 87.4464C107.237 87.4464 108.129 86.5374 109.394 84.7217C109.275 83.5447 109.136 82.4309 108.978 81.3803C108.819 80.3297 108.704 79.7215 108.63 79.5537C108.557 79.3859 108.47 79.303 108.368 79.303C108.16 79.303 107.899 79.6474 107.587 80.334C107.448 80.637 107.337 80.7896 107.252 80.7896C107.177 80.7896 107.14 80.7547 107.14 80.6828C107.14 80.6109 107.166 80.5215 107.22 80.4147L107.587 79.691C107.715 79.436 107.847 79.2289 107.979 79.0676C108.112 78.9063 108.248 78.7886 108.385 78.7123C108.524 78.6361 108.648 78.599 108.758 78.599C109.03 78.599 109.229 78.7821 109.357 79.1483C109.485 79.5145 109.642 80.3798 109.824 81.7443C109.948 82.6946 110.039 83.3028 110.097 83.5709L110.099 83.5687Z" fill="#65351A"/>
<path d="M115.588 78.6578C116.178 78.6578 116.643 78.8845 116.981 79.3379C117.32 79.7913 117.487 80.3275 117.487 80.9465C117.487 81.814 117.183 82.6227 116.573 83.3725C115.965 84.1223 115.239 84.4972 114.394 84.4972C113.772 84.4972 113.325 84.2684 113.049 83.8106C112.773 83.3529 112.637 82.8712 112.637 82.3677C112.637 81.7051 112.808 81.062 113.149 80.4387C113.492 79.8153 113.889 79.3619 114.342 79.0807C114.796 78.7973 115.21 78.6557 115.588 78.6557V78.6578ZM115.714 78.939C115.464 78.939 115.191 79.0829 114.891 79.3728C114.592 79.6627 114.297 80.1814 114.006 80.9334C113.715 81.6854 113.57 82.3895 113.57 83.0477C113.57 83.3682 113.644 83.6428 113.789 83.8738C113.937 84.1049 114.134 84.2204 114.381 84.2204C114.661 84.2204 114.965 84.0548 115.291 83.7213C115.616 83.3878 115.918 82.8734 116.193 82.1737C116.469 81.474 116.606 80.8136 116.606 80.188C116.606 79.7695 116.532 79.4578 116.382 79.2507C116.232 79.0437 116.011 78.9412 115.712 78.9412L115.714 78.939Z" fill="#65351A"/>
<path d="M123.951 78.7385C123.88 78.9652 123.732 79.3815 123.504 79.9875C122.732 82.0189 122.346 83.2657 122.346 83.7234C122.346 83.7867 122.359 83.8324 122.385 83.8629C122.411 83.8935 122.452 83.9087 122.504 83.9087C122.643 83.9087 122.83 83.791 123.064 83.5534C123.294 83.318 123.481 83.0913 123.617 82.8777C123.719 82.7121 123.808 82.6292 123.884 82.6292C123.956 82.6292 123.99 82.6641 123.99 82.736C123.99 82.9191 123.752 83.2548 123.274 83.7431C122.797 84.2313 122.376 84.4754 122.011 84.4754C121.855 84.4754 121.74 84.4209 121.662 84.312C121.584 84.203 121.545 84.0395 121.545 83.8194C121.545 83.3769 121.638 82.845 121.825 82.2216C120.853 83.7191 120.028 84.4667 119.353 84.4667C119.184 84.4667 119.034 84.3948 118.904 84.2488C118.774 84.1049 118.707 83.9327 118.707 83.7365C118.707 83.5404 118.73 83.342 118.78 83.1393C118.83 82.9366 119.01 82.3611 119.327 81.4108C119.642 80.4626 119.833 79.9068 119.9 79.7477C119.98 79.5559 120.019 79.3924 120.019 79.2529C120.019 79.2049 120.009 79.1679 119.987 79.1439C119.965 79.1199 119.928 79.1069 119.881 79.1069C119.69 79.1069 119.34 79.4077 118.832 80.0093C118.637 80.2447 118.509 80.3645 118.453 80.3645C118.39 80.3645 118.359 80.334 118.359 80.2708C118.359 80.1139 118.592 79.8065 119.056 79.3445C119.52 78.8824 119.928 78.6513 120.28 78.6513C120.445 78.6513 120.588 78.7189 120.709 78.8518C120.831 78.9848 120.892 79.1396 120.892 79.3139C120.892 79.569 120.746 80.0507 120.458 80.7634C119.872 82.2151 119.579 83.172 119.579 83.6297C119.579 83.7147 119.603 83.7932 119.648 83.8629C119.694 83.9349 119.753 83.9698 119.818 83.9698C119.907 83.9698 120.037 83.9109 120.21 83.7954C120.384 83.6799 120.675 83.3464 121.083 82.7971C121.491 82.2478 121.864 81.6157 122.202 80.9029L123.222 78.732C123.298 78.7058 123.383 78.6927 123.476 78.6927C123.604 78.6927 123.763 78.7058 123.949 78.732L123.951 78.7385Z" fill="#65351A"/>
<path d="M127.792 82.5857C127.792 83.1131 127.604 83.5665 127.226 83.9501C126.848 84.3338 126.404 84.5256 125.894 84.5256C125.453 84.5256 125.11 84.4079 124.865 84.1703C124.618 83.9349 124.496 83.7126 124.496 83.5077C124.496 83.3747 124.546 83.2439 124.644 83.1197C124.741 82.9954 124.869 82.9322 125.03 82.9322C125.177 82.9322 125.292 82.978 125.379 83.0652C125.466 83.1546 125.509 83.2614 125.509 83.3856C125.509 83.4532 125.49 83.536 125.449 83.6341C125.41 83.7365 125.388 83.8128 125.388 83.8608C125.388 83.9763 125.438 84.0657 125.538 84.1245C125.638 84.1855 125.787 84.2161 125.987 84.2161C126.319 84.2161 126.579 84.1223 126.764 83.9327C126.948 83.7431 127.039 83.512 127.039 83.2396C127.039 82.9671 126.864 82.6009 126.512 82.1279C125.948 81.365 125.666 80.7504 125.666 80.2817C125.666 79.8676 125.824 79.4818 126.139 79.1243C126.453 78.7668 126.84 78.5881 127.298 78.5881C127.621 78.5881 127.907 78.6796 128.153 78.8627C128.4 79.0458 128.521 79.2464 128.521 79.4643C128.521 79.6082 128.474 79.7303 128.378 79.8349C128.283 79.9395 128.17 79.9918 128.042 79.9918C127.792 79.9918 127.669 79.861 127.669 79.5973L127.675 79.2355C127.675 79.1374 127.617 79.0524 127.502 78.9804C127.382 78.9129 127.256 78.8802 127.128 78.8802C126.929 78.8802 126.742 78.9499 126.568 79.0872C126.395 79.2246 126.308 79.4273 126.308 79.6888C126.308 79.9504 126.56 80.4169 127.061 81.0533C127.545 81.668 127.788 82.1781 127.788 82.5791L127.792 82.5857Z" fill="#65351A"/>
<path d="M145.73 71.9226L145.578 72.4959C145.215 73.8146 144.99 74.8804 144.901 75.6891C144.881 75.8548 144.812 75.9376 144.692 75.9376C144.629 75.9376 144.588 75.9114 144.569 75.857C144.549 75.8025 144.534 75.6412 144.521 75.3752C144.452 74.1655 144.135 73.3067 143.575 72.8032C143.013 72.2997 142.405 72.049 141.752 72.049C140.941 72.049 140.183 72.3542 139.482 72.9667C138.781 73.5792 138.178 74.5208 137.675 75.7916C137.171 77.0623 136.917 78.429 136.917 79.8872C136.917 81.1427 137.197 82.1301 137.755 82.8516C138.313 83.5709 139.033 83.9327 139.914 83.9327C140.63 83.9327 141.366 83.706 142.117 83.2483C142.867 82.7927 143.488 82.1737 143.976 81.389C144.091 81.2103 144.189 81.1209 144.271 81.1209C144.386 81.1209 144.443 81.1776 144.443 81.2931C144.443 81.4522 144.219 81.8097 143.772 82.3633C143.325 82.917 142.663 83.427 141.789 83.8935C140.914 84.3577 139.975 84.591 138.972 84.591C137.673 84.591 136.659 84.1223 135.937 83.1851C135.214 82.2478 134.852 81.1274 134.852 79.8196C134.852 78.5118 135.179 77.1582 135.832 75.8286C136.486 74.499 137.388 73.4746 138.541 72.7509C139.693 72.0272 140.767 71.6654 141.763 71.6654C142.314 71.6654 142.928 71.8223 143.601 72.134C144.033 72.3324 144.324 72.4305 144.478 72.4305C144.731 72.4305 145.007 72.2626 145.307 71.9226C145.402 71.8136 145.491 71.7591 145.573 71.7591C145.682 71.7591 145.736 71.8136 145.736 71.9226H145.73Z" fill="#65351A"/>
<path d="M148.471 78.6578C149.061 78.6578 149.525 78.8845 149.864 79.3379C150.202 79.7913 150.369 80.3275 150.369 80.9465C150.369 81.814 150.066 82.6227 149.456 83.3725C148.848 84.1223 148.121 84.4972 147.277 84.4972C146.654 84.4972 146.207 84.2684 145.932 83.8106C145.656 83.3529 145.52 82.8712 145.52 82.3677C145.52 81.7051 145.691 81.062 146.032 80.4387C146.375 79.8153 146.772 79.3619 147.225 79.0807C147.679 78.7973 148.093 78.6557 148.471 78.6557V78.6578ZM148.597 78.939C148.347 78.939 148.074 79.0829 147.774 79.3728C147.475 79.6627 147.18 80.1814 146.889 80.9334C146.598 81.6854 146.453 82.3895 146.453 83.0477C146.453 83.3682 146.526 83.6428 146.672 83.8738C146.819 84.1049 147.017 84.2204 147.264 84.2204C147.544 84.2204 147.848 84.0548 148.173 83.7213C148.499 83.3878 148.801 82.8734 149.076 82.1737C149.352 81.474 149.488 80.8136 149.488 80.188C149.488 79.7695 149.415 79.4578 149.265 79.2507C149.115 79.0437 148.894 78.9412 148.594 78.9412L148.597 78.939Z" fill="#65351A"/>
<path d="M151.304 84.4536C151.931 82.7491 152.35 81.535 152.567 80.8092C152.784 80.0834 152.89 79.6431 152.89 79.4883C152.89 79.412 152.877 79.3553 152.849 79.3183C152.823 79.2812 152.779 79.2616 152.723 79.2616C152.519 79.2616 152.124 79.6736 151.543 80.4997C151.432 80.661 151.347 80.7416 151.289 80.7416C151.2 80.7416 151.156 80.7111 151.156 80.6479C151.156 80.5411 151.395 80.1924 151.87 79.6038C152.345 79.0153 152.762 78.7211 153.116 78.7211C153.311 78.7211 153.456 78.7734 153.552 78.878C153.647 78.9826 153.695 79.1396 153.695 79.3488C153.695 79.6736 153.535 80.2992 153.216 81.2233C153.283 81.1296 153.415 80.9095 153.615 80.5607C154.37 79.2529 155.06 78.599 155.687 78.599C155.971 78.599 156.178 78.6905 156.306 78.8758C156.434 79.0611 156.499 79.2769 156.499 79.521C156.499 79.7804 156.388 80.3471 156.167 81.2212C156.74 80.1379 157.217 79.4295 157.599 79.1003C157.981 78.7712 158.337 78.6055 158.664 78.6055C158.91 78.6055 159.105 78.6796 159.255 78.83C159.404 78.9804 159.478 79.1701 159.478 79.4011C159.478 79.8523 159.14 81.0294 158.465 82.9344C158.278 83.4466 158.185 83.7518 158.185 83.8477C158.185 83.9087 158.2 83.9545 158.228 83.985C158.256 84.0155 158.298 84.0308 158.352 84.0308C158.467 84.0308 158.703 83.8847 159.059 83.5905C159.415 83.2984 159.682 83.0303 159.86 82.7905C159.953 82.6663 160.038 82.6031 160.114 82.6031C160.186 82.6031 160.22 82.6292 160.22 82.6837C160.22 82.8538 159.925 83.2003 159.337 83.7235C158.749 84.2488 158.254 84.5103 157.855 84.5103C157.712 84.5103 157.595 84.4558 157.499 84.349C157.404 84.2422 157.356 84.1049 157.356 83.9414C157.356 83.7104 157.456 83.3224 157.655 82.7775C158.309 80.9923 158.634 79.8523 158.634 79.3575C158.634 79.2333 158.612 79.1396 158.571 79.0807C158.53 79.0219 158.465 78.9913 158.382 78.9913C157.974 78.9913 157.464 79.5123 156.857 80.5564C156.249 81.6004 155.665 82.8995 155.112 84.4515C154.956 84.4689 154.795 84.4776 154.626 84.4776C154.511 84.4776 154.405 84.4689 154.307 84.4515C155.218 81.9274 155.672 80.3907 155.672 79.8414C155.672 79.582 155.644 79.388 155.585 79.2594C155.527 79.1308 155.438 79.0655 155.318 79.0655C154.999 79.0655 154.533 79.5755 153.923 80.5978C153.313 81.6201 152.725 82.9039 152.161 84.4515C152.046 84.4689 151.959 84.4776 151.901 84.4776C151.87 84.4776 151.816 84.4754 151.74 84.4711C151.588 84.458 151.445 84.4515 151.306 84.4515L151.304 84.4536Z" fill="#65351A"/>
<path d="M163.253 79.2006L161.775 84.4667C161.419 85.6852 160.975 86.5788 160.439 87.1456C159.903 87.7145 159.299 88 158.622 88C158.219 88 157.884 87.891 157.62 87.6752C157.355 87.4594 157.223 87.2022 157.223 86.9014C157.223 86.7053 157.283 86.5374 157.403 86.4001C157.522 86.2628 157.67 86.193 157.843 86.193C157.995 86.193 158.123 86.241 158.23 86.3369C158.336 86.4328 158.39 86.5483 158.39 86.6813C158.39 86.7619 158.364 86.86 158.31 86.9755C158.247 87.1129 158.217 87.2197 158.217 87.2894C158.217 87.3919 158.266 87.4878 158.366 87.5728C158.466 87.66 158.598 87.7036 158.763 87.7036C159.375 87.7036 159.903 87.1761 160.345 86.1211C160.788 85.0661 161.307 83.3507 161.905 80.9727C162.142 80.0354 162.296 79.4513 162.368 79.2202L160.955 79.2529L161.042 78.878C161.398 78.8518 161.873 78.8344 162.467 78.8235C162.765 77.6072 163.184 76.7048 163.726 76.112C164.269 75.5191 164.887 75.2227 165.584 75.2227C165.992 75.2227 166.313 75.3295 166.543 75.5431C166.773 75.7567 166.89 76.003 166.89 76.2798C166.89 76.4411 166.836 76.585 166.729 76.7114C166.623 76.8378 166.482 76.9032 166.311 76.9032C166.167 76.9032 166.046 76.8574 165.942 76.7659C165.837 76.6743 165.785 76.5588 165.785 76.4215C165.785 76.3234 165.835 76.2013 165.939 76.0531C166.007 75.9638 166.039 75.8831 166.039 75.8112C166.039 75.7087 166 75.6324 165.922 75.5801C165.844 75.5278 165.725 75.5038 165.566 75.5038C165.134 75.5038 164.748 75.7196 164.407 76.149C164.065 76.5784 163.724 77.4438 163.379 78.7429C163.446 78.7603 163.869 78.769 164.646 78.769C164.637 78.8148 164.627 78.8758 164.614 78.9565C164.605 79.0415 164.594 79.1112 164.581 79.1635C164.136 79.1723 163.694 79.1831 163.253 79.1962V79.2006Z" fill="#65351A"/>
<path d="M167.318 78.6578C167.909 78.6578 168.373 78.8845 168.711 79.3379C169.05 79.7913 169.217 80.3275 169.217 80.9465C169.217 81.814 168.913 82.6227 168.304 83.3725C167.696 84.1223 166.969 84.4972 166.125 84.4972C165.502 84.4972 165.055 84.2684 164.779 83.8106C164.504 83.3529 164.367 82.8712 164.367 82.3677C164.367 81.7051 164.539 81.062 164.879 80.4387C165.222 79.8153 165.619 79.3619 166.073 79.0807C166.526 78.7973 166.941 78.6557 167.318 78.6557V78.6578ZM167.444 78.939C167.195 78.939 166.921 79.0829 166.622 79.3728C166.322 79.6627 166.027 80.1814 165.736 80.9334C165.446 81.6854 165.3 82.3895 165.3 83.0477C165.3 83.3682 165.374 83.6428 165.519 83.8738C165.667 84.1049 165.864 84.2204 166.112 84.2204C166.392 84.2204 166.696 84.0548 167.021 83.7213C167.347 83.3878 167.648 82.8734 167.924 82.1737C168.199 81.4762 168.336 80.8136 168.336 80.188C168.336 79.7695 168.262 79.4578 168.113 79.2507C167.963 79.0437 167.742 78.9412 167.442 78.9412L167.444 78.939Z" fill="#65351A"/>
<path d="M172.341 80.5302C172.719 79.9003 173.074 79.4273 173.406 79.1112C173.741 78.7952 174.053 78.6382 174.346 78.6382C174.541 78.6382 174.704 78.6971 174.836 78.8126C174.967 78.9281 175.034 79.0829 175.034 79.2747C175.034 79.436 174.982 79.5842 174.878 79.7237C174.774 79.861 174.639 79.9308 174.474 79.9308C174.19 79.9308 174.012 79.8044 173.94 79.5493C173.895 79.3793 173.836 79.2943 173.76 79.2943C173.623 79.2943 173.391 79.5123 173.068 79.9504C172.745 80.3885 172.417 80.94 172.089 81.6048L171.15 84.4994H170.789L170.423 84.506L170.329 84.4994C170.351 84.4013 170.483 83.985 170.722 83.2526C171.367 80.8179 171.688 79.4839 171.688 79.2485C171.688 79.1614 171.655 79.1199 171.588 79.1199C171.503 79.1199 171.343 79.2333 171.108 79.4621C170.872 79.691 170.668 79.933 170.494 80.188C170.358 80.3907 170.251 80.491 170.175 80.491C170.099 80.491 170.062 80.4561 170.062 80.3842C170.062 80.2774 170.295 79.9591 170.755 79.4295C171.217 78.8998 171.621 78.636 171.968 78.636C172.15 78.636 172.287 78.6905 172.378 78.7995C172.469 78.9085 172.515 79.024 172.515 79.1439C172.515 79.2812 172.489 79.5036 172.434 79.8065C172.417 79.909 172.387 80.1487 172.341 80.5237V80.5302Z" fill="#65351A"/>
<path d="M177.788 79.0524C177.754 79.181 177.637 79.5341 177.437 80.1117C176.779 81.9841 176.452 83.124 176.452 83.5316C176.452 83.8019 176.552 83.9349 176.751 83.9349C177.081 83.9349 177.569 83.5556 178.218 82.7971C178.303 82.699 178.377 82.651 178.437 82.651C178.518 82.651 178.557 82.6816 178.557 82.7448C178.557 82.8603 178.283 83.1807 177.734 83.7082C177.185 84.2357 176.614 84.4972 176.024 84.4972C175.82 84.4972 175.666 84.4384 175.564 84.3229C175.462 84.2073 175.41 84.0809 175.41 83.948C175.41 83.645 175.506 83.2352 175.697 82.7186C175.71 82.6837 176.115 81.474 176.916 79.0916L176.289 79.0785L175.848 79.0981C175.786 79.0981 175.755 79.0676 175.755 79.0044C175.755 78.8758 175.768 78.7995 175.794 78.7799C175.82 78.7603 175.94 78.7407 176.154 78.7232C176.367 78.7058 176.662 78.6971 177.035 78.6971C177.146 78.3265 177.283 77.9059 177.448 77.435L177.708 76.67C177.721 76.6351 177.747 76.6155 177.788 76.6155C177.949 76.6155 178.105 76.6373 178.259 76.6787C178.413 76.7223 178.489 76.7659 178.489 76.816L178.47 76.8705L177.864 78.7298L178.685 78.7494C178.956 78.7581 179.097 78.7668 179.108 78.7734C179.119 78.7799 179.125 78.7973 179.125 78.8235C179.125 79.024 179.093 79.1243 179.025 79.1243L178.533 79.0851L177.791 79.0524H177.788Z" fill="#65351A"/>
<path d="M184.54 78.7516C184.416 79.0284 184.164 79.7695 183.787 80.9727L183.201 82.8407C183.077 83.1807 183.014 83.4706 183.014 83.7104C183.014 83.863 183.088 83.9371 183.233 83.9371C183.335 83.9371 183.485 83.8651 183.682 83.7191C183.88 83.573 184.073 83.39 184.26 83.1676C184.383 83.0216 184.47 82.9475 184.52 82.9475C184.596 82.9475 184.633 82.9845 184.633 83.0608C184.633 83.1807 184.39 83.4488 183.906 83.8608C183.422 84.2727 182.99 84.4798 182.613 84.4798C182.354 84.4798 182.226 84.3032 182.226 83.9523C182.226 83.7082 182.242 83.3965 182.272 83.0172C181.584 83.9523 180.864 84.4188 180.113 84.4188C179.789 84.4188 179.549 84.2989 179.392 84.0613C179.236 83.8237 179.16 83.5534 179.16 83.2548C179.16 82.3938 179.588 81.4043 180.443 80.2861C181.298 79.1679 182.105 78.6099 182.864 78.6099C183.064 78.6099 183.222 78.6796 183.342 78.817C183.459 78.9565 183.533 79.1657 183.565 79.4469C183.646 79.242 183.771 78.9739 183.945 78.6426C184.088 78.6644 184.223 78.6884 184.351 78.7102C184.444 78.732 184.507 78.745 184.537 78.7494L184.54 78.7516ZM182.495 78.9804C182.237 78.9804 181.923 79.1679 181.549 79.5406C181.176 79.9134 180.846 80.4626 180.558 81.1863C180.269 81.9099 180.124 82.5137 180.124 82.9954C180.124 83.281 180.174 83.4968 180.278 83.6428C180.382 83.7888 180.532 83.8608 180.731 83.8608C181.248 83.8608 181.768 83.3878 182.294 82.4396C182.821 81.4914 183.083 80.6348 183.083 79.8676C183.083 79.6169 183.029 79.4077 182.921 79.2376C182.812 79.0676 182.671 78.9826 182.498 78.9826L182.495 78.9804Z" fill="#65351A"/>
<path d="M188.321 75.2248L187.177 79.2333C187.82 78.8235 188.323 78.6164 188.681 78.6164C189.128 78.6164 189.473 78.8082 189.712 79.1919C189.951 79.5755 190.072 80.0267 190.072 80.5476C190.072 81.5329 189.714 82.4374 189 83.2614C188.286 84.0853 187.574 84.4972 186.869 84.4972C186.433 84.4972 186.077 84.3686 185.799 84.1093C185.522 83.8499 185.383 83.4837 185.383 83.0063C185.383 82.5551 185.563 81.7029 185.923 80.4452L187.143 76.2384C187.193 76.0815 187.216 75.9572 187.216 75.8635C187.216 75.6128 187.006 75.4777 186.583 75.4559C186.476 75.4515 186.422 75.4101 186.422 75.3295C186.422 75.2575 186.466 75.2227 186.555 75.2227L187.62 75.2488C187.833 75.2488 188.067 75.2401 188.319 75.2227L188.321 75.2248ZM187.134 84.1725C187.663 84.1725 188.128 83.7888 188.534 83.0238C188.937 82.2565 189.139 81.3737 189.139 80.3711C189.139 79.9024 189.078 79.5537 188.957 79.3227C188.835 79.0916 188.651 78.9761 188.406 78.9761C188.089 78.9761 187.761 79.1592 187.423 79.5232C187.082 79.8894 186.811 80.4408 186.611 81.1776C186.409 81.9143 186.309 82.4767 186.309 82.8646C186.309 83.3006 186.379 83.6297 186.516 83.8477C186.652 84.0657 186.861 84.1746 187.136 84.1746L187.134 84.1725Z" fill="#65351A"/>
<path d="M193.933 75.1856C193.848 75.4929 193.462 76.7572 192.774 78.9804L191.535 83.1088C191.398 83.6472 191.329 83.9589 191.329 84.0439C191.329 84.1158 191.357 84.1507 191.416 84.1507C191.539 84.1507 191.787 83.9959 192.156 83.6886C192.525 83.3812 192.789 83.1022 192.95 82.8516C193.056 82.6859 193.137 82.6031 193.191 82.6031C193.267 82.6031 193.304 82.6401 193.304 82.7164C193.304 82.869 193.056 83.2025 192.561 83.7213C192.067 84.24 191.585 84.4972 191.118 84.4972C190.982 84.4972 190.856 84.4471 190.745 84.3447C190.635 84.2444 190.578 84.094 190.578 83.8978C190.578 83.5839 190.624 83.2505 190.717 82.9017C190.81 82.5508 191.242 81.1449 192.01 78.6818C192.516 77.0667 192.77 76.1447 192.77 75.918C192.77 75.6739 192.509 75.5409 191.991 75.5235C191.795 75.5191 191.698 75.4755 191.698 75.3905C191.698 75.2968 191.795 75.2488 191.991 75.2488L193.935 75.1812L193.933 75.1856Z" fill="#65351A"/>
<path d="M194.964 82.0058C194.821 82.6205 194.752 83.087 194.752 83.403C194.752 83.5948 194.806 83.767 194.914 83.9218C195.023 84.0766 195.17 84.1528 195.357 84.1528C195.624 84.1528 195.906 84.0417 196.203 83.8215C196.501 83.6014 196.752 83.3311 196.956 83.015C197.058 82.8581 197.152 82.7818 197.236 82.7818C197.321 82.7818 197.362 82.821 197.362 82.9017C197.362 83.124 197.117 83.4466 196.627 83.8695C196.136 84.2902 195.624 84.5016 195.09 84.5016C194.682 84.5016 194.361 84.3512 194.127 84.0504C193.892 83.7496 193.777 83.4008 193.777 83.0085C193.777 82.1562 194.164 81.2103 194.934 80.1749C195.704 79.1396 196.455 78.6208 197.189 78.6208C197.447 78.6208 197.659 78.7123 197.831 78.8954C198.002 79.0785 198.087 79.2791 198.087 79.4992C198.087 79.9373 197.846 80.3842 197.364 80.8419C196.883 81.2996 196.082 81.6876 194.962 82.008L194.964 82.0058ZM195.066 81.705C195.737 81.4108 196.297 81.0315 196.748 80.5673C197.199 80.103 197.425 79.6779 197.425 79.2878C197.425 79.2028 197.393 79.1199 197.327 79.0371C197.262 78.9543 197.176 78.9129 197.065 78.9129C196.776 78.9129 196.444 79.109 196.073 79.4992C195.7 79.8915 195.364 80.6261 195.066 81.705Z" fill="#65351A"/>
<path d="M205.039 83.0499C204.583 83.2853 204.208 83.5534 203.917 83.852C203.594 84.1703 203.401 84.3294 203.335 84.3294C203.247 84.3294 203.203 84.2945 203.203 84.2248L203.231 84.1398C203.416 83.8411 203.631 83.3267 203.878 82.6009C204.601 80.4713 205.071 79.4077 205.295 79.4077C205.403 79.4077 205.458 79.4578 205.458 79.5602C205.458 79.6627 205.43 79.7956 205.373 79.9613C205.278 80.2425 205.23 80.5389 205.23 80.8506C205.23 81.7683 205.564 82.5464 206.23 83.1829C206.896 83.8193 207.671 84.1398 208.554 84.1398C209.233 84.1398 209.776 83.9392 210.182 83.5382C210.588 83.1371 210.792 82.6685 210.792 82.1323C210.792 81.559 210.624 81.0163 210.292 80.5019C209.96 79.9875 209.203 79.1243 208.023 77.9059C207.356 77.2105 206.931 76.6591 206.747 76.2471C206.562 75.8351 206.471 75.4101 206.471 74.972C206.471 73.9781 206.823 73.1737 207.528 72.5634C208.233 71.9509 209.103 71.6458 210.145 71.6458C211.249 71.6458 212.143 72.0817 212.829 72.9558C212.981 73.1541 213.083 73.2522 213.133 73.2522C213.272 73.2522 213.441 73.0473 213.639 72.6397C213.728 72.4544 213.817 72.3629 213.905 72.3629C214.007 72.3629 214.057 72.4196 214.057 72.5351C214.057 72.6179 214.042 72.7138 214.01 72.8228C213.901 73.1737 213.747 73.8102 213.543 74.7344C213.326 75.6194 213.194 76.1403 213.144 76.2929C213.094 76.4455 213.018 76.5217 212.916 76.5217C212.807 76.5217 212.753 76.4476 212.753 76.3016C212.753 76.2515 212.76 76.1926 212.773 76.1294C212.805 75.9005 212.82 75.676 212.82 75.4602C212.82 74.5034 212.582 73.6969 212.102 73.0364C211.623 72.376 210.965 72.0468 210.128 72.0468C209.563 72.0468 209.075 72.2234 208.663 72.5765C208.25 72.9296 208.044 73.3874 208.044 73.9475C208.044 74.2854 208.107 74.608 208.231 74.9175C208.355 75.227 208.504 75.4951 208.678 75.7262C208.852 75.955 209.266 76.4106 209.919 77.0928C210.876 78.0933 211.525 78.8606 211.866 79.3968C212.204 79.933 212.376 80.4844 212.376 81.0511C212.376 81.9688 212.037 82.7775 211.362 83.4793C210.687 84.1812 209.785 84.5299 208.654 84.5299C207.22 84.5299 206.018 84.0373 205.048 83.0477L205.039 83.0499Z" fill="#65351A"/>
<path d="M216.542 79.0524C216.508 79.181 216.39 79.5341 216.191 80.1117C215.533 81.9841 215.206 83.124 215.206 83.5316C215.206 83.8019 215.305 83.9349 215.505 83.9349C215.835 83.9349 216.323 83.5556 216.972 82.7971C217.057 82.699 217.13 82.651 217.191 82.651C217.271 82.651 217.311 82.6816 217.311 82.7448C217.311 82.8603 217.037 83.1807 216.488 83.7082C215.939 84.2357 215.368 84.4972 214.778 84.4972C214.574 84.4972 214.42 84.4384 214.318 84.3229C214.216 84.2073 214.164 84.0809 214.164 83.948C214.164 83.645 214.26 83.2352 214.451 82.7186C214.464 82.6837 214.869 81.474 215.67 79.0916L215.043 79.0785L214.602 79.0981C214.539 79.0981 214.509 79.0676 214.509 79.0044C214.509 78.8758 214.522 78.7995 214.548 78.7799C214.574 78.7603 214.694 78.7407 214.908 78.7232C215.121 78.7058 215.416 78.6971 215.789 78.6971C215.9 78.3265 216.037 77.9059 216.202 77.435L216.462 76.67C216.475 76.6351 216.501 76.6155 216.542 76.6155C216.703 76.6155 216.859 76.6373 217.011 76.6787C217.165 76.7223 217.241 76.7659 217.241 76.816L217.222 76.8705L216.616 78.7298L217.436 78.7494C217.708 78.7581 217.849 78.7668 217.86 78.7734C217.87 78.7799 217.877 78.7973 217.877 78.8235C217.877 79.024 217.844 79.1243 217.777 79.1243L217.284 79.0851L216.542 79.0524Z" fill="#65351A"/>
<path d="M223.293 78.7516C223.169 79.0284 222.918 79.7695 222.54 80.9727L221.954 82.8407C221.83 83.1807 221.768 83.4706 221.768 83.7104C221.768 83.863 221.841 83.9371 221.987 83.9371C222.089 83.9371 222.238 83.8651 222.438 83.7191C222.636 83.573 222.829 83.39 223.015 83.1676C223.139 83.0216 223.226 82.9475 223.276 82.9475C223.352 82.9475 223.388 82.9845 223.388 83.0608C223.388 83.1807 223.145 83.4488 222.662 83.8608C222.178 84.2727 221.746 84.4798 221.368 84.4798C221.11 84.4798 220.982 84.3032 220.982 83.9523C220.982 83.7082 220.997 83.3965 221.03 83.0172C220.342 83.9523 219.621 84.4188 218.871 84.4188C218.547 84.4188 218.306 84.2989 218.15 84.0613C217.994 83.8237 217.918 83.5534 217.918 83.2548C217.918 82.3938 218.345 81.4043 219.2 80.2861C220.055 79.1679 220.863 78.6099 221.622 78.6099C221.822 78.6099 221.98 78.6796 222.1 78.817C222.217 78.9565 222.29 79.1657 222.323 79.4469C222.403 79.242 222.529 78.9739 222.703 78.6426C222.846 78.6644 222.981 78.6884 223.109 78.7102C223.202 78.732 223.265 78.745 223.295 78.7494L223.293 78.7516ZM221.249 78.9804C220.991 78.9804 220.676 79.1679 220.303 79.5406C219.93 79.9134 219.6 80.4626 219.311 81.1863C219.022 81.9099 218.877 82.5137 218.877 82.9954C218.877 83.281 218.929 83.4968 219.031 83.6428C219.133 83.7888 219.285 83.8608 219.485 83.8608C219.999 83.8608 220.52 83.3878 221.047 82.4396C221.574 81.4914 221.837 80.6348 221.837 79.8676C221.837 79.6169 221.783 79.4077 221.674 79.2376C221.566 79.0676 221.425 78.9826 221.251 78.9826L221.249 78.9804Z" fill="#65351A"/>
<path d="M227.002 83.5687C227.338 83.0608 227.651 82.4614 227.935 81.7726C228.219 81.0838 228.36 80.552 228.36 80.1771C228.36 79.9591 228.323 79.715 228.247 79.4469C228.208 79.3096 228.187 79.2093 228.187 79.1461C228.187 78.8083 228.321 78.6382 228.592 78.6382C228.707 78.6382 228.805 78.6905 228.883 78.793C228.961 78.8954 229 79.0153 229 79.1548C229 79.5166 228.872 80.079 228.614 80.8441C228.356 81.6091 227.937 82.5137 227.358 83.56C226.778 84.6062 226.188 85.4825 225.589 86.1887C224.99 86.8949 224.509 87.3635 224.144 87.5946C223.779 87.8234 223.467 87.939 223.204 87.939C222.963 87.939 222.762 87.867 222.599 87.7254C222.434 87.5837 222.352 87.3897 222.352 87.1434C222.352 86.9647 222.401 86.8142 222.499 86.69C222.597 86.5658 222.727 86.5026 222.892 86.5026C223.185 86.5026 223.337 86.6987 223.345 87.0911C223.35 87.3265 223.443 87.4464 223.625 87.4464C224.14 87.4464 225.031 86.5374 226.297 84.7217C226.177 83.5447 226.038 82.4309 225.88 81.3803C225.722 80.3297 225.607 79.7215 225.533 79.5537C225.459 79.3859 225.372 79.303 225.27 79.303C225.062 79.303 224.801 79.6474 224.489 80.334C224.35 80.637 224.239 80.7896 224.155 80.7896C224.079 80.7896 224.042 80.7547 224.042 80.6828C224.042 80.6109 224.068 80.5215 224.122 80.4147L224.489 79.691C224.617 79.436 224.749 79.2289 224.882 79.0676C225.014 78.9063 225.151 78.7886 225.288 78.7123C225.424 78.6361 225.55 78.599 225.661 78.599C225.932 78.599 226.132 78.7821 226.26 79.1483C226.388 79.5145 226.544 80.3798 226.726 81.7443C226.85 82.6946 226.941 83.3028 227 83.5709L227.002 83.5687Z" fill="#65351A"/>
</g>
<defs>
<linearGradient id="paint0_linear_59_2021" x1="175.106" y1="28.769" x2="138.573" y2="30.656" gradientUnits="userSpaceOnUse">
<stop stop-color="#65351A"/>
<stop offset="1" stop-color="#B9AA9C"/>
</linearGradient>
<linearGradient id="paint1_linear_59_2021" x1="174.616" y1="19.2608" x2="138.083" y2="21.1479" gradientUnits="userSpaceOnUse">
<stop stop-color="#65351A"/>
<stop offset="1" stop-color="#B9AA9C"/>
</linearGradient>
<linearGradient id="paint2_linear_59_2021" x1="174.714" y1="21.1699" x2="138.181" y2="23.0569" gradientUnits="userSpaceOnUse">
<stop stop-color="#65351A"/>
<stop offset="1" stop-color="#B9AA9C"/>
</linearGradient>
<linearGradient id="paint3_linear_59_2021" x1="175.145" y1="29.5047" x2="138.612" y2="31.3917" gradientUnits="userSpaceOnUse">
<stop stop-color="#65351A"/>
<stop offset="1" stop-color="#B9AA9C"/>
</linearGradient>
<clipPath id="clip0_59_2021">
<rect width="138" height="73" fill="white" transform="translate(91 15)"/>
</clipPath>
</defs>
</svg>
