<svg width="104" height="104" viewBox="0 0 104 104" fill="none" xmlns="http://www.w3.org/2000/svg">
<rect width="102.949" height="102.949" transform="translate(0.525391 0.557617)" fill="white"/>
<path d="M5.67186 29.7266H2.24023V33.1582H5.67186V29.7266Z" fill="#424242"/>
<path d="M5.67186 33.1582H2.24023V36.5898H5.67186V33.1582Z" fill="#424242"/>
<path d="M5.67186 43.4531H2.24023V46.8848H5.67186V43.4531Z" fill="#424242"/>
<path d="M5.67186 46.8843H2.24023V50.3159H5.67186V46.8843Z" fill="#424242"/>
<path d="M5.67186 53.748H2.24023V57.1797H5.67186V53.748Z" fill="#424242"/>
<path d="M5.67186 60.6113H2.24023V64.043H5.67186V60.6113Z" fill="#424242"/>
<path d="M5.67186 64.0425H2.24023V67.4741H5.67186V64.0425Z" fill="#424242"/>
<path d="M9.1035 33.1582H5.67188V36.5898H9.1035V33.1582Z" fill="#424242"/>
<path d="M9.1035 36.5898H5.67188V40.0215H9.1035V36.5898Z" fill="#424242"/>
<path d="M9.1035 43.4531H5.67188V46.8848H9.1035V43.4531Z" fill="#424242"/>
<path d="M9.1035 57.1792H5.67188V60.6108H9.1035V57.1792Z" fill="#424242"/>
<path d="M9.1035 60.6113H5.67188V64.043H9.1035V60.6113Z" fill="#424242"/>
<path d="M9.1035 64.0425H5.67188V67.4741H9.1035V64.0425Z" fill="#424242"/>
<path d="M9.1035 67.4746H5.67188V70.9062H9.1035V67.4746Z" fill="#424242"/>
<path d="M12.5351 29.7266H9.10352V33.1582H12.5351V29.7266Z" fill="#424242"/>
<path d="M12.5351 36.5898H9.10352V40.0215H12.5351V36.5898Z" fill="#424242"/>
<path d="M12.5351 40.0215H9.10352V43.4531H12.5351V40.0215Z" fill="#424242"/>
<path d="M12.5351 60.6113H9.10352V64.043H12.5351V60.6113Z" fill="#424242"/>
<path d="M12.5351 67.4746H9.10352V70.9062H12.5351V67.4746Z" fill="#424242"/>
<path d="M12.5351 70.9058H9.10352V74.3374H12.5351V70.9058Z" fill="#424242"/>
<path d="M15.9678 29.7266H12.5361V33.1582H15.9678V29.7266Z" fill="#424242"/>
<path d="M15.9678 36.5898H12.5361V40.0215H15.9678V36.5898Z" fill="#424242"/>
<path d="M15.9678 46.8843H12.5361V50.3159H15.9678V46.8843Z" fill="#424242"/>
<path d="M15.9678 53.748H12.5361V57.1797H15.9678V53.748Z" fill="#424242"/>
<path d="M15.9678 57.1792H12.5361V60.6108H15.9678V57.1792Z" fill="#424242"/>
<path d="M15.9678 64.0425H12.5361V67.4741H15.9678V64.0425Z" fill="#424242"/>
<path d="M19.3955 36.5898H15.9639V40.0215H19.3955V36.5898Z" fill="#424242"/>
<path d="M19.3955 57.1792H15.9639V60.6108H19.3955V57.1792Z" fill="#424242"/>
<path d="M19.3955 70.9058H15.9639V74.3374H19.3955V70.9058Z" fill="#424242"/>
<path d="M22.831 29.7266H19.3994V33.1582H22.831V29.7266Z" fill="#424242"/>
<path d="M22.831 33.1582H19.3994V36.5898H22.831V33.1582Z" fill="#424242"/>
<path d="M22.831 36.5898H19.3994V40.0215H22.831V36.5898Z" fill="#424242"/>
<path d="M22.831 46.8843H19.3994V50.3159H22.831V46.8843Z" fill="#424242"/>
<path d="M22.831 53.748H19.3994V57.1797H22.831V53.748Z" fill="#424242"/>
<path d="M22.831 57.1792H19.3994V60.6108H22.831V57.1792Z" fill="#424242"/>
<path d="M22.831 67.4746H19.3994V70.9062H22.831V67.4746Z" fill="#424242"/>
<path d="M26.2627 29.7266H22.8311V33.1582H26.2627V29.7266Z" fill="#424242"/>
<path d="M26.2627 36.5898H22.8311V40.0215H26.2627V36.5898Z" fill="#424242"/>
<path d="M26.2627 43.4531H22.8311V46.8848H26.2627V43.4531Z" fill="#424242"/>
<path d="M26.2627 50.3159H22.8311V53.7475H26.2627V50.3159Z" fill="#424242"/>
<path d="M26.2627 57.1792H22.8311V60.6108H26.2627V57.1792Z" fill="#424242"/>
<path d="M26.2627 64.0425H22.8311V67.4741H26.2627V64.0425Z" fill="#424242"/>
<path d="M26.2627 70.9058H22.8311V74.3374H26.2627V70.9058Z" fill="#424242"/>
<path d="M29.6914 29.7266H26.2598V33.1582H29.6914V29.7266Z" fill="#424242"/>
<path d="M29.6914 43.4531H26.2598V46.8848H29.6914V43.4531Z" fill="#424242"/>
<path d="M29.6914 46.8843H26.2598V50.3159H29.6914V46.8843Z" fill="#424242"/>
<path d="M29.6914 60.6113H26.2598V64.043H29.6914V60.6113Z" fill="#424242"/>
<path d="M29.6914 64.0425H26.2598V67.4741H29.6914V64.0425Z" fill="#424242"/>
<path d="M29.6914 70.9058H26.2598V74.3374H29.6914V70.9058Z" fill="#424242"/>
<path d="M33.1269 5.70508H29.6953V9.13671H33.1269V5.70508Z" fill="#424242"/>
<path d="M33.1269 12.5679H29.6953V15.9995H33.1269V12.5679Z" fill="#424242"/>
<path d="M33.1269 19.4316H29.6953V22.8633H33.1269V19.4316Z" fill="#424242"/>
<path d="M33.1269 22.8633H29.6953V26.2949H33.1269V22.8633Z" fill="#424242"/>
<path d="M33.1269 26.2949H29.6953V29.7265H33.1269V26.2949Z" fill="#424242"/>
<path d="M33.1269 29.7266H29.6953V33.1582H33.1269V29.7266Z" fill="#424242"/>
<path d="M33.1269 33.1582H29.6953V36.5898H33.1269V33.1582Z" fill="#424242"/>
<path d="M33.1269 36.5898H29.6953V40.0215H33.1269V36.5898Z" fill="#424242"/>
<path d="M33.1269 40.0215H29.6953V43.4531H33.1269V40.0215Z" fill="#424242"/>
<path d="M33.1269 50.3159H29.6953V53.7475H33.1269V50.3159Z" fill="#424242"/>
<path d="M33.1269 57.1792H29.6953V60.6108H33.1269V57.1792Z" fill="#424242"/>
<path d="M33.1269 60.6113H29.6953V64.043H33.1269V60.6113Z" fill="#424242"/>
<path d="M33.1269 64.0425H29.6953V67.4741H33.1269V64.0425Z" fill="#424242"/>
<path d="M33.1269 74.3379H29.6953V77.7695H33.1269V74.3379Z" fill="#424242"/>
<path d="M33.1269 77.7695H29.6953V81.2012H33.1269V77.7695Z" fill="#424242"/>
<path d="M33.1269 81.2007H29.6953V84.6323H33.1269V81.2007Z" fill="#424242"/>
<path d="M33.1269 88.064H29.6953V91.4956H33.1269V88.064Z" fill="#424242"/>
<path d="M33.1269 91.4961H29.6953V94.9277H33.1269V91.4961Z" fill="#424242"/>
<path d="M33.1269 98.3589H29.6953V101.791H33.1269V98.3589Z" fill="#424242"/>
<path d="M36.5547 2.27344H33.123V5.70507H36.5547V2.27344Z" fill="#424242"/>
<path d="M36.5547 5.70508H33.123V9.13671H36.5547V5.70508Z" fill="#424242"/>
<path d="M36.5547 9.13672H33.123V12.5683H36.5547V9.13672Z" fill="#424242"/>
<path d="M36.5547 16H33.123V19.4316H36.5547V16Z" fill="#424242"/>
<path d="M36.5547 19.4316H33.123V22.8633H36.5547V19.4316Z" fill="#424242"/>
<path d="M36.5547 26.2949H33.123V29.7265H36.5547V26.2949Z" fill="#424242"/>
<path d="M36.5547 29.7266H33.123V33.1582H36.5547V29.7266Z" fill="#424242"/>
<path d="M36.5547 43.4531H33.123V46.8848H36.5547V43.4531Z" fill="#424242"/>
<path d="M36.5547 46.8843H33.123V50.3159H36.5547V46.8843Z" fill="#424242"/>
<path d="M36.5547 50.3159H33.123V53.7475H36.5547V50.3159Z" fill="#424242"/>
<path d="M36.5547 60.6113H33.123V64.043H36.5547V60.6113Z" fill="#424242"/>
<path d="M36.5547 64.0425H33.123V67.4741H36.5547V64.0425Z" fill="#424242"/>
<path d="M36.5547 67.4746H33.123V70.9062H36.5547V67.4746Z" fill="#424242"/>
<path d="M36.5547 91.4961H33.123V94.9277H36.5547V91.4961Z" fill="#424242"/>
<path d="M36.5547 98.3589H33.123V101.791H36.5547V98.3589Z" fill="#424242"/>
<path d="M39.9863 19.4316H36.5547V22.8633H39.9863V19.4316Z" fill="#424242"/>
<path d="M39.9863 22.8633H36.5547V26.2949H39.9863V22.8633Z" fill="#424242"/>
<path d="M39.9863 26.2949H36.5547V29.7265H39.9863V26.2949Z" fill="#424242"/>
<path d="M39.9863 36.5898H36.5547V40.0215H39.9863V36.5898Z" fill="#424242"/>
<path d="M39.9863 40.0215H36.5547V43.4531H39.9863V40.0215Z" fill="#424242"/>
<path d="M39.9863 43.4531H36.5547V46.8848H39.9863V43.4531Z" fill="#424242"/>
<path d="M39.9863 64.0425H36.5547V67.4741H39.9863V64.0425Z" fill="#424242"/>
<path d="M39.9863 67.4746H36.5547V70.9062H39.9863V67.4746Z" fill="#424242"/>
<path d="M39.9863 70.9058H36.5547V74.3374H39.9863V70.9058Z" fill="#424242"/>
<path d="M39.9863 77.7695H36.5547V81.2012H39.9863V77.7695Z" fill="#424242"/>
<path d="M39.9863 84.6323H36.5547V88.064H39.9863V84.6323Z" fill="#424242"/>
<path d="M39.9863 94.9272H36.5547V98.3589H39.9863V94.9272Z" fill="#424242"/>
<path d="M43.4228 9.13672H39.9912V12.5683H43.4228V9.13672Z" fill="#424242"/>
<path d="M43.4228 26.2949H39.9912V29.7265H43.4228V26.2949Z" fill="#424242"/>
<path d="M43.4228 33.1582H39.9912V36.5898H43.4228V33.1582Z" fill="#424242"/>
<path d="M43.4228 36.5898H39.9912V40.0215H43.4228V36.5898Z" fill="#424242"/>
<path d="M43.4228 50.3159H39.9912V53.7475H43.4228V50.3159Z" fill="#424242"/>
<path d="M43.4228 64.0425H39.9912V67.4741H43.4228V64.0425Z" fill="#424242"/>
<path d="M43.4228 74.3379H39.9912V77.7695H43.4228V74.3379Z" fill="#424242"/>
<path d="M43.4228 77.7695H39.9912V81.2012H43.4228V77.7695Z" fill="#424242"/>
<path d="M43.4228 84.6323H39.9912V88.064H43.4228V84.6323Z" fill="#424242"/>
<path d="M43.4228 91.4961H39.9912V94.9277H43.4228V91.4961Z" fill="#424242"/>
<path d="M43.4228 94.9272H39.9912V98.3589H43.4228V94.9272Z" fill="#424242"/>
<path d="M46.8506 5.70508H43.4189V9.13671H46.8506V5.70508Z" fill="#424242"/>
<path d="M46.8506 22.8633H43.4189V26.2949H46.8506V22.8633Z" fill="#424242"/>
<path d="M46.8506 26.2949H43.4189V29.7265H46.8506V26.2949Z" fill="#424242"/>
<path d="M46.8506 29.7266H43.4189V33.1582H46.8506V29.7266Z" fill="#424242"/>
<path d="M46.8506 36.5898H43.4189V40.0215H46.8506V36.5898Z" fill="#424242"/>
<path d="M46.8506 40.0215H43.4189V43.4531H46.8506V40.0215Z" fill="#424242"/>
<path d="M46.8506 50.3159H43.4189V53.7475H46.8506V50.3159Z" fill="#424242"/>
<path d="M46.8506 53.748H43.4189V57.1797H46.8506V53.748Z" fill="#424242"/>
<path d="M46.8506 60.6113H43.4189V64.043H46.8506V60.6113Z" fill="#424242"/>
<path d="M46.8506 70.9058H43.4189V74.3374H46.8506V70.9058Z" fill="#424242"/>
<path d="M46.8506 77.7695H43.4189V81.2012H46.8506V77.7695Z" fill="#424242"/>
<path d="M46.8506 81.2007H43.4189V84.6323H46.8506V81.2007Z" fill="#424242"/>
<path d="M46.8506 88.064H43.4189V91.4956H46.8506V88.064Z" fill="#424242"/>
<path d="M50.2822 2.27344H46.8506V5.70507H50.2822V2.27344Z" fill="#424242"/>
<path d="M50.2822 9.13672H46.8506V12.5683H50.2822V9.13672Z" fill="#424242"/>
<path d="M50.2822 12.5679H46.8506V15.9995H50.2822V12.5679Z" fill="#424242"/>
<path d="M50.2822 16H46.8506V19.4316H50.2822V16Z" fill="#424242"/>
<path d="M50.2822 36.5898H46.8506V40.0215H50.2822V36.5898Z" fill="#424242"/>
<path d="M50.2822 40.0215H46.8506V43.4531H50.2822V40.0215Z" fill="#424242"/>
<path d="M50.2822 43.4531H46.8506V46.8848H50.2822V43.4531Z" fill="#424242"/>
<path d="M50.2822 46.8843H46.8506V50.3159H50.2822V46.8843Z" fill="#424242"/>
<path d="M50.2822 50.3159H46.8506V53.7475H50.2822V50.3159Z" fill="#424242"/>
<path d="M50.2822 53.748H46.8506V57.1797H50.2822V53.748Z" fill="#424242"/>
<path d="M50.2822 64.0425H46.8506V67.4741H50.2822V64.0425Z" fill="#424242"/>
<path d="M50.2822 67.4746H46.8506V70.9062H50.2822V67.4746Z" fill="#424242"/>
<path d="M50.2822 70.9058H46.8506V74.3374H50.2822V70.9058Z" fill="#424242"/>
<path d="M50.2822 74.3379H46.8506V77.7695H50.2822V74.3379Z" fill="#424242"/>
<path d="M50.2822 81.2007H46.8506V84.6323H50.2822V81.2007Z" fill="#424242"/>
<path d="M50.2822 88.064H46.8506V91.4956H50.2822V88.064Z" fill="#424242"/>
<path d="M50.2822 94.9272H46.8506V98.3589H50.2822V94.9272Z" fill="#424242"/>
<path d="M53.7139 2.27344H50.2822V5.70507H53.7139V2.27344Z" fill="#424242"/>
<path d="M53.7139 5.70508H50.2822V9.13671H53.7139V5.70508Z" fill="#424242"/>
<path d="M53.7139 9.13672H50.2822V12.5683H53.7139V9.13672Z" fill="#424242"/>
<path d="M53.7139 12.5679H50.2822V15.9995H53.7139V12.5679Z" fill="#424242"/>
<path d="M53.7139 19.4316H50.2822V22.8633H53.7139V19.4316Z" fill="#424242"/>
<path d="M53.7139 22.8633H50.2822V26.2949H53.7139V22.8633Z" fill="#424242"/>
<path d="M53.7139 26.2949H50.2822V29.7265H53.7139V26.2949Z" fill="#424242"/>
<path d="M53.7139 29.7266H50.2822V33.1582H53.7139V29.7266Z" fill="#424242"/>
<path d="M53.7139 33.1582H50.2822V36.5898H53.7139V33.1582Z" fill="#424242"/>
<path d="M53.7139 36.5898H50.2822V40.0215H53.7139V36.5898Z" fill="#424242"/>
<path d="M53.7139 43.4531H50.2822V46.8848H53.7139V43.4531Z" fill="#424242"/>
<path d="M53.7139 50.3159H50.2822V53.7475H53.7139V50.3159Z" fill="#424242"/>
<path d="M53.7139 57.1792H50.2822V60.6108H53.7139V57.1792Z" fill="#424242"/>
<path d="M53.7139 70.9058H50.2822V74.3374H53.7139V70.9058Z" fill="#424242"/>
<path d="M53.7139 77.7695H50.2822V81.2012H53.7139V77.7695Z" fill="#424242"/>
<path d="M53.7139 98.3589H50.2822V101.791H53.7139V98.3589Z" fill="#424242"/>
<path d="M57.1455 2.27344H53.7139V5.70507H57.1455V2.27344Z" fill="#424242"/>
<path d="M57.1455 5.70508H53.7139V9.13671H57.1455V5.70508Z" fill="#424242"/>
<path d="M57.1455 16H53.7139V19.4316H57.1455V16Z" fill="#424242"/>
<path d="M57.1455 29.7266H53.7139V33.1582H57.1455V29.7266Z" fill="#424242"/>
<path d="M57.1455 40.0215H53.7139V43.4531H57.1455V40.0215Z" fill="#424242"/>
<path d="M57.1455 46.8843H53.7139V50.3159H57.1455V46.8843Z" fill="#424242"/>
<path d="M57.1455 50.3159H53.7139V53.7475H57.1455V50.3159Z" fill="#424242"/>
<path d="M57.1455 67.4746H53.7139V70.9062H57.1455V67.4746Z" fill="#424242"/>
<path d="M57.1455 70.9058H53.7139V74.3374H57.1455V70.9058Z" fill="#424242"/>
<path d="M57.1455 74.3379H53.7139V77.7695H57.1455V74.3379Z" fill="#424242"/>
<path d="M57.1455 81.2007H53.7139V84.6323H57.1455V81.2007Z" fill="#424242"/>
<path d="M60.5781 9.13672H57.1465V12.5683H60.5781V9.13672Z" fill="#424242"/>
<path d="M60.5781 12.5679H57.1465V15.9995H60.5781V12.5679Z" fill="#424242"/>
<path d="M60.5781 22.8633H57.1465V26.2949H60.5781V22.8633Z" fill="#424242"/>
<path d="M60.5781 40.0215H57.1465V43.4531H60.5781V40.0215Z" fill="#424242"/>
<path d="M60.5781 43.4531H57.1465V46.8848H60.5781V43.4531Z" fill="#424242"/>
<path d="M60.5781 53.748H57.1465V57.1797H60.5781V53.748Z" fill="#424242"/>
<path d="M60.5781 57.1792H57.1465V60.6108H60.5781V57.1792Z" fill="#424242"/>
<path d="M60.5781 74.3379H57.1465V77.7695H60.5781V74.3379Z" fill="#424242"/>
<path d="M60.5781 81.2007H57.1465V84.6323H60.5781V81.2007Z" fill="#424242"/>
<path d="M60.5781 94.9272H57.1465V98.3589H60.5781V94.9272Z" fill="#424242"/>
<path d="M60.5781 98.3589H57.1465V101.791H60.5781V98.3589Z" fill="#424242"/>
<path d="M64.0098 12.5679H60.5781V15.9995H64.0098V12.5679Z" fill="#424242"/>
<path d="M64.0098 16H60.5781V19.4316H64.0098V16Z" fill="#424242"/>
<path d="M64.0098 19.4316H60.5781V22.8633H64.0098V19.4316Z" fill="#424242"/>
<path d="M64.0098 29.7266H60.5781V33.1582H64.0098V29.7266Z" fill="#424242"/>
<path d="M64.0098 33.1582H60.5781V36.5898H64.0098V33.1582Z" fill="#424242"/>
<path d="M64.0098 36.5898H60.5781V40.0215H64.0098V36.5898Z" fill="#424242"/>
<path d="M64.0098 40.0215H60.5781V43.4531H64.0098V40.0215Z" fill="#424242"/>
<path d="M64.0098 46.8843H60.5781V50.3159H64.0098V46.8843Z" fill="#424242"/>
<path d="M64.0098 53.748H60.5781V57.1797H64.0098V53.748Z" fill="#424242"/>
<path d="M64.0098 74.3379H60.5781V77.7695H64.0098V74.3379Z" fill="#424242"/>
<path d="M64.0098 77.7695H60.5781V81.2012H64.0098V77.7695Z" fill="#424242"/>
<path d="M64.0098 81.2007H60.5781V84.6323H64.0098V81.2007Z" fill="#424242"/>
<path d="M64.0098 88.064H60.5781V91.4956H64.0098V88.064Z" fill="#424242"/>
<path d="M64.0098 94.9272H60.5781V98.3589H64.0098V94.9272Z" fill="#424242"/>
<path d="M64.0098 98.3589H60.5781V101.791H64.0098V98.3589Z" fill="#424242"/>
<path d="M67.4414 2.27344H64.0098V5.70507H67.4414V2.27344Z" fill="#424242"/>
<path d="M67.4414 9.13672H64.0098V12.5683H67.4414V9.13672Z" fill="#424242"/>
<path d="M67.4414 12.5679H64.0098V15.9995H67.4414V12.5679Z" fill="#424242"/>
<path d="M67.4414 16H64.0098V19.4316H67.4414V16Z" fill="#424242"/>
<path d="M67.4414 22.8633H64.0098V26.2949H67.4414V22.8633Z" fill="#424242"/>
<path d="M67.4414 26.2949H64.0098V29.7265H67.4414V26.2949Z" fill="#424242"/>
<path d="M67.4414 29.7266H64.0098V33.1582H67.4414V29.7266Z" fill="#424242"/>
<path d="M67.4414 33.1582H64.0098V36.5898H67.4414V33.1582Z" fill="#424242"/>
<path d="M67.4414 40.0215H64.0098V43.4531H67.4414V40.0215Z" fill="#424242"/>
<path d="M67.4414 43.4531H64.0098V46.8848H67.4414V43.4531Z" fill="#424242"/>
<path d="M67.4414 46.8843H64.0098V50.3159H67.4414V46.8843Z" fill="#424242"/>
<path d="M67.4414 50.3159H64.0098V53.7475H67.4414V50.3159Z" fill="#424242"/>
<path d="M67.4414 60.6113H64.0098V64.043H67.4414V60.6113Z" fill="#424242"/>
<path d="M67.4414 64.0425H64.0098V67.4741H67.4414V64.0425Z" fill="#424242"/>
<path d="M67.4414 70.9058H64.0098V74.3374H67.4414V70.9058Z" fill="#424242"/>
<path d="M67.4414 74.3379H64.0098V77.7695H67.4414V74.3379Z" fill="#424242"/>
<path d="M67.4414 81.2007H64.0098V84.6323H67.4414V81.2007Z" fill="#424242"/>
<path d="M67.4414 91.4961H64.0098V94.9277H67.4414V91.4961Z" fill="#424242"/>
<path d="M67.4414 94.9272H64.0098V98.3589H67.4414V94.9272Z" fill="#424242"/>
<path d="M67.4414 98.3589H64.0098V101.791H67.4414V98.3589Z" fill="#424242"/>
<path d="M70.873 12.5679H67.4414V15.9995H70.873V12.5679Z" fill="#424242"/>
<path d="M70.873 16H67.4414V19.4316H70.873V16Z" fill="#424242"/>
<path d="M70.873 26.2949H67.4414V29.7265H70.873V26.2949Z" fill="#424242"/>
<path d="M70.873 40.0215H67.4414V43.4531H70.873V40.0215Z" fill="#424242"/>
<path d="M70.873 46.8843H67.4414V50.3159H70.873V46.8843Z" fill="#424242"/>
<path d="M70.873 53.748H67.4414V57.1797H70.873V53.748Z" fill="#424242"/>
<path d="M70.873 57.1792H67.4414V60.6108H70.873V57.1792Z" fill="#424242"/>
<path d="M70.873 60.6113H67.4414V64.043H70.873V60.6113Z" fill="#424242"/>
<path d="M70.873 67.4746H67.4414V70.9062H70.873V67.4746Z" fill="#424242"/>
<path d="M70.873 81.2007H67.4414V84.6323H70.873V81.2007Z" fill="#424242"/>
<path d="M70.873 88.064H67.4414V91.4956H70.873V88.064Z" fill="#424242"/>
<path d="M70.873 94.9272H67.4414V98.3589H70.873V94.9272Z" fill="#424242"/>
<path d="M74.3057 2.27344H70.874V5.70507H74.3057V2.27344Z" fill="#424242"/>
<path d="M74.3057 9.13672H70.874V12.5683H74.3057V9.13672Z" fill="#424242"/>
<path d="M74.3057 22.8633H70.874V26.2949H74.3057V22.8633Z" fill="#424242"/>
<path d="M74.3057 29.7266H70.874V33.1582H74.3057V29.7266Z" fill="#424242"/>
<path d="M74.3057 43.4531H70.874V46.8848H74.3057V43.4531Z" fill="#424242"/>
<path d="M74.3057 50.3159H70.874V53.7475H74.3057V50.3159Z" fill="#424242"/>
<path d="M74.3057 57.1792H70.874V60.6108H74.3057V57.1792Z" fill="#424242"/>
<path d="M74.3057 64.0425H70.874V67.4741H74.3057V64.0425Z" fill="#424242"/>
<path d="M74.3057 70.9058H70.874V74.3374H74.3057V70.9058Z" fill="#424242"/>
<path d="M74.3057 74.3379H70.874V77.7695H74.3057V74.3379Z" fill="#424242"/>
<path d="M74.3057 77.7695H70.874V81.2012H74.3057V77.7695Z" fill="#424242"/>
<path d="M74.3057 81.2007H70.874V84.6323H74.3057V81.2007Z" fill="#424242"/>
<path d="M74.3057 84.6323H70.874V88.064H74.3057V84.6323Z" fill="#424242"/>
<path d="M77.7373 29.7266H74.3057V33.1582H77.7373V29.7266Z" fill="#424242"/>
<path d="M77.7373 33.1582H74.3057V36.5898H77.7373V33.1582Z" fill="#424242"/>
<path d="M77.7373 36.5898H74.3057V40.0215H77.7373V36.5898Z" fill="#424242"/>
<path d="M77.7373 40.0215H74.3057V43.4531H77.7373V40.0215Z" fill="#424242"/>
<path d="M77.7373 57.1792H74.3057V60.6108H77.7373V57.1792Z" fill="#424242"/>
<path d="M77.7373 60.6113H74.3057V64.043H77.7373V60.6113Z" fill="#424242"/>
<path d="M77.7373 67.4746H74.3057V70.9062H77.7373V67.4746Z" fill="#424242"/>
<path d="M77.7373 70.9058H74.3057V74.3374H77.7373V70.9058Z" fill="#424242"/>
<path d="M77.7373 84.6323H74.3057V88.064H77.7373V84.6323Z" fill="#424242"/>
<path d="M77.7373 94.9272H74.3057V98.3589H77.7373V94.9272Z" fill="#424242"/>
<path d="M77.7373 98.3589H74.3057V101.791H77.7373V98.3589Z" fill="#424242"/>
<path d="M81.1689 29.7266H77.7373V33.1582H81.1689V29.7266Z" fill="#424242"/>
<path d="M81.1689 33.1582H77.7373V36.5898H81.1689V33.1582Z" fill="#424242"/>
<path d="M81.1689 46.8843H77.7373V50.3159H81.1689V46.8843Z" fill="#424242"/>
<path d="M81.1689 50.3159H77.7373V53.7475H81.1689V50.3159Z" fill="#424242"/>
<path d="M81.1689 57.1792H77.7373V60.6108H81.1689V57.1792Z" fill="#424242"/>
<path d="M81.1689 64.0425H77.7373V67.4741H81.1689V64.0425Z" fill="#424242"/>
<path d="M81.1689 70.9058H77.7373V74.3374H81.1689V70.9058Z" fill="#424242"/>
<path d="M81.1689 77.7695H77.7373V81.2012H81.1689V77.7695Z" fill="#424242"/>
<path d="M81.1689 84.6323H77.7373V88.064H81.1689V84.6323Z" fill="#424242"/>
<path d="M81.1689 88.064H77.7373V91.4956H81.1689V88.064Z" fill="#424242"/>
<path d="M81.1689 91.4961H77.7373V94.9277H81.1689V91.4961Z" fill="#424242"/>
<path d="M81.1689 94.9272H77.7373V98.3589H81.1689V94.9272Z" fill="#424242"/>
<path d="M84.6006 29.7266H81.1689V33.1582H84.6006V29.7266Z" fill="#424242"/>
<path d="M84.6006 33.1582H81.1689V36.5898H84.6006V33.1582Z" fill="#424242"/>
<path d="M84.6006 36.5898H81.1689V40.0215H84.6006V36.5898Z" fill="#424242"/>
<path d="M84.6006 43.4531H81.1689V46.8848H84.6006V43.4531Z" fill="#424242"/>
<path d="M84.6006 46.8843H81.1689V50.3159H84.6006V46.8843Z" fill="#424242"/>
<path d="M84.6006 50.3159H81.1689V53.7475H84.6006V50.3159Z" fill="#424242"/>
<path d="M84.6006 64.0425H81.1689V67.4741H84.6006V64.0425Z" fill="#424242"/>
<path d="M84.6006 70.9058H81.1689V74.3374H84.6006V70.9058Z" fill="#424242"/>
<path d="M84.6006 84.6323H81.1689V88.064H84.6006V84.6323Z" fill="#424242"/>
<path d="M84.6006 91.4961H81.1689V94.9277H84.6006V91.4961Z" fill="#424242"/>
<path d="M84.6006 98.3589H81.1689V101.791H84.6006V98.3589Z" fill="#424242"/>
<path d="M88.0283 36.5898H84.5967V40.0215H88.0283V36.5898Z" fill="#424242"/>
<path d="M88.0283 40.0215H84.5967V43.4531H88.0283V40.0215Z" fill="#424242"/>
<path d="M88.0283 43.4531H84.5967V46.8848H88.0283V43.4531Z" fill="#424242"/>
<path d="M88.0283 50.3159H84.5967V53.7475H88.0283V50.3159Z" fill="#424242"/>
<path d="M88.0283 57.1792H84.5967V60.6108H88.0283V57.1792Z" fill="#424242"/>
<path d="M88.0283 64.0425H84.5967V67.4741H88.0283V64.0425Z" fill="#424242"/>
<path d="M88.0283 70.9058H84.5967V74.3374H88.0283V70.9058Z" fill="#424242"/>
<path d="M88.0283 74.3379H84.5967V77.7695H88.0283V74.3379Z" fill="#424242"/>
<path d="M88.0283 77.7695H84.5967V81.2012H88.0283V77.7695Z" fill="#424242"/>
<path d="M88.0283 81.2007H84.5967V84.6323H88.0283V81.2007Z" fill="#424242"/>
<path d="M88.0283 84.6323H84.5967V88.064H88.0283V84.6323Z" fill="#424242"/>
<path d="M88.0283 88.064H84.5967V91.4956H88.0283V88.064Z" fill="#424242"/>
<path d="M88.0283 94.9272H84.5967V98.3589H88.0283V94.9272Z" fill="#424242"/>
<path d="M91.4648 29.7266H88.0332V33.1582H91.4648V29.7266Z" fill="#424242"/>
<path d="M91.4648 33.1582H88.0332V36.5898H91.4648V33.1582Z" fill="#424242"/>
<path d="M91.4648 40.0215H88.0332V43.4531H91.4648V40.0215Z" fill="#424242"/>
<path d="M91.4648 43.4531H88.0332V46.8848H91.4648V43.4531Z" fill="#424242"/>
<path d="M91.4648 53.748H88.0332V57.1797H91.4648V53.748Z" fill="#424242"/>
<path d="M91.4648 64.0425H88.0332V67.4741H91.4648V64.0425Z" fill="#424242"/>
<path d="M91.4648 67.4746H88.0332V70.9062H91.4648V67.4746Z" fill="#424242"/>
<path d="M91.4648 70.9058H88.0332V74.3374H91.4648V70.9058Z" fill="#424242"/>
<path d="M91.4648 74.3379H88.0332V77.7695H91.4648V74.3379Z" fill="#424242"/>
<path d="M91.4648 77.7695H88.0332V81.2012H91.4648V77.7695Z" fill="#424242"/>
<path d="M91.4648 84.6323H88.0332V88.064H91.4648V84.6323Z" fill="#424242"/>
<path d="M91.4648 91.4961H88.0332V94.9277H91.4648V91.4961Z" fill="#424242"/>
<path d="M91.4648 98.3589H88.0332V101.791H91.4648V98.3589Z" fill="#424242"/>
<path d="M94.8965 33.1582H91.4648V36.5898H94.8965V33.1582Z" fill="#424242"/>
<path d="M94.8965 36.5898H91.4648V40.0215H94.8965V36.5898Z" fill="#424242"/>
<path d="M94.8965 40.0215H91.4648V43.4531H94.8965V40.0215Z" fill="#424242"/>
<path d="M94.8965 46.8843H91.4648V50.3159H94.8965V46.8843Z" fill="#424242"/>
<path d="M94.8965 50.3159H91.4648V53.7475H94.8965V50.3159Z" fill="#424242"/>
<path d="M94.8965 53.748H91.4648V57.1797H94.8965V53.748Z" fill="#424242"/>
<path d="M94.8965 57.1792H91.4648V60.6108H94.8965V57.1792Z" fill="#424242"/>
<path d="M94.8965 67.4746H91.4648V70.9062H94.8965V67.4746Z" fill="#424242"/>
<path d="M94.8965 70.9058H91.4648V74.3374H94.8965V70.9058Z" fill="#424242"/>
<path d="M94.8965 84.6323H91.4648V88.064H94.8965V84.6323Z" fill="#424242"/>
<path d="M94.8965 98.3589H91.4648V101.791H94.8965V98.3589Z" fill="#424242"/>
<path d="M98.3242 29.7266H94.8926V33.1582H98.3242V29.7266Z" fill="#424242"/>
<path d="M98.3242 33.1582H94.8926V36.5898H98.3242V33.1582Z" fill="#424242"/>
<path d="M98.3242 36.5898H94.8926V40.0215H98.3242V36.5898Z" fill="#424242"/>
<path d="M98.3242 43.4531H94.8926V46.8848H98.3242V43.4531Z" fill="#424242"/>
<path d="M98.3242 46.8843H94.8926V50.3159H98.3242V46.8843Z" fill="#424242"/>
<path d="M98.3242 50.3159H94.8926V53.7475H98.3242V50.3159Z" fill="#424242"/>
<path d="M98.3242 57.1792H94.8926V60.6108H98.3242V57.1792Z" fill="#424242"/>
<path d="M98.3242 60.6113H94.8926V64.043H98.3242V60.6113Z" fill="#424242"/>
<path d="M98.3242 70.9058H94.8926V74.3374H98.3242V70.9058Z" fill="#424242"/>
<path d="M98.3242 74.3379H94.8926V77.7695H98.3242V74.3379Z" fill="#424242"/>
<path d="M98.3242 81.2007H94.8926V84.6323H98.3242V81.2007Z" fill="#424242"/>
<path d="M98.3242 88.064H94.8926V91.4956H98.3242V88.064Z" fill="#424242"/>
<path d="M98.3242 94.9272H94.8926V98.3589H98.3242V94.9272Z" fill="#424242"/>
<path d="M101.756 33.1582H98.3242V36.5898H101.756V33.1582Z" fill="#424242"/>
<path d="M101.756 36.5898H98.3242V40.0215H101.756V36.5898Z" fill="#424242"/>
<path d="M101.756 40.0215H98.3242V43.4531H101.756V40.0215Z" fill="#424242"/>
<path d="M101.756 46.8843H98.3242V50.3159H101.756V46.8843Z" fill="#424242"/>
<path d="M101.756 53.748H98.3242V57.1797H101.756V53.748Z" fill="#424242"/>
<path d="M101.756 60.6113H98.3242V64.043H101.756V60.6113Z" fill="#424242"/>
<path d="M101.756 67.4746H98.3242V70.9062H101.756V67.4746Z" fill="#424242"/>
<path d="M101.756 70.9058H98.3242V74.3374H101.756V70.9058Z" fill="#424242"/>
<path d="M101.756 74.3379H98.3242V77.7695H101.756V74.3379Z" fill="#424242"/>
<path d="M101.756 84.6323H98.3242V88.064H101.756V84.6323Z" fill="#424242"/>
<path d="M101.756 94.9272H98.3242V98.3589H101.756V94.9272Z" fill="#424242"/>
<path d="M5.67186 2.27344H2.24023V5.70507H5.67186V2.27344Z" fill="#424242"/>
<path d="M5.67186 5.70508H2.24023V9.13671H5.67186V5.70508Z" fill="#424242"/>
<path d="M5.67186 9.13672H2.24023V12.5683H5.67186V9.13672Z" fill="#424242"/>
<path d="M5.67186 12.5679H2.24023V15.9995H5.67186V12.5679Z" fill="#424242"/>
<path d="M5.67186 16H2.24023V19.4316H5.67186V16Z" fill="#424242"/>
<path d="M5.67186 19.4316H2.24023V22.8633H5.67186V19.4316Z" fill="#424242"/>
<path d="M5.67186 22.8633H2.24023V26.2949H5.67186V22.8633Z" fill="#424242"/>
<path d="M9.1035 2.27344H5.67188V5.70507H9.1035V2.27344Z" fill="#424242"/>
<path d="M9.1035 22.8633H5.67188V26.2949H9.1035V22.8633Z" fill="#424242"/>
<path d="M12.5351 2.27344H9.10352V5.70507H12.5351V2.27344Z" fill="#424242"/>
<path d="M12.5351 22.8633H9.10352V26.2949H12.5351V22.8633Z" fill="#424242"/>
<path d="M15.9678 2.27344H12.5361V5.70507H15.9678V2.27344Z" fill="#424242"/>
<path d="M15.9678 22.8633H12.5361V26.2949H15.9678V22.8633Z" fill="#424242"/>
<path d="M19.3955 2.27344H15.9639V5.70507H19.3955V2.27344Z" fill="#424242"/>
<path d="M19.3955 22.8633H15.9639V26.2949H19.3955V22.8633Z" fill="#424242"/>
<path d="M22.831 2.27344H19.3994V5.70507H22.831V2.27344Z" fill="#424242"/>
<path d="M22.831 22.8633H19.3994V26.2949H22.831V22.8633Z" fill="#424242"/>
<path d="M26.2627 2.27344H22.8311V5.70507H26.2627V2.27344Z" fill="#424242"/>
<path d="M26.2627 5.70508H22.8311V9.13671H26.2627V5.70508Z" fill="#424242"/>
<path d="M26.2627 9.13672H22.8311V12.5683H26.2627V9.13672Z" fill="#424242"/>
<path d="M26.2627 12.5679H22.8311V15.9995H26.2627V12.5679Z" fill="#424242"/>
<path d="M26.2627 16H22.8311V19.4316H26.2627V16Z" fill="#424242"/>
<path d="M26.2627 19.4316H22.8311V22.8633H26.2627V19.4316Z" fill="#424242"/>
<path d="M26.2627 22.8633H22.8311V26.2949H26.2627V22.8633Z" fill="#424242"/>
<path d="M12.5361 9.13672H9.10449V12.5683H12.5361V9.13672Z" fill="#424242"/>
<path d="M12.5361 12.5684H9.10449V16H12.5361V12.5684Z" fill="#424242"/>
<path d="M12.5361 16H9.10449V19.4316H12.5361V16Z" fill="#424242"/>
<path d="M15.9678 9.13672H12.5361V12.5683H15.9678V9.13672Z" fill="#424242"/>
<path d="M15.9678 12.5684H12.5361V16H15.9678V12.5684Z" fill="#424242"/>
<path d="M15.9678 16H12.5361V19.4316H15.9678V16Z" fill="#424242"/>
<path d="M19.3994 9.13672H15.9678V12.5683H19.3994V9.13672Z" fill="#424242"/>
<path d="M19.3994 12.5684H15.9678V16H19.3994V12.5684Z" fill="#424242"/>
<path d="M19.3994 16H15.9678V19.4316H19.3994V16Z" fill="#424242"/>
<path d="M81.166 2.27344H77.7344V5.70507H81.166V2.27344Z" fill="#424242"/>
<path d="M81.166 5.70508H77.7344V9.13671H81.166V5.70508Z" fill="#424242"/>
<path d="M81.166 9.13672H77.7344V12.5683H81.166V9.13672Z" fill="#424242"/>
<path d="M81.166 12.5679H77.7344V15.9995H81.166V12.5679Z" fill="#424242"/>
<path d="M81.166 16H77.7344V19.4316H81.166V16Z" fill="#424242"/>
<path d="M81.166 19.4316H77.7344V22.8633H81.166V19.4316Z" fill="#424242"/>
<path d="M81.166 22.8633H77.7344V26.2949H81.166V22.8633Z" fill="#424242"/>
<path d="M84.5976 2.27344H81.166V5.70507H84.5976V2.27344Z" fill="#424242"/>
<path d="M84.5976 22.8633H81.166V26.2949H84.5976V22.8633Z" fill="#424242"/>
<path d="M88.0293 2.27344H84.5977V5.70507H88.0293V2.27344Z" fill="#424242"/>
<path d="M88.0293 22.8633H84.5977V26.2949H88.0293V22.8633Z" fill="#424242"/>
<path d="M91.4619 2.27344H88.0303V5.70507H91.4619V2.27344Z" fill="#424242"/>
<path d="M91.4619 22.8633H88.0303V26.2949H91.4619V22.8633Z" fill="#424242"/>
<path d="M94.8896 2.27344H91.458V5.70507H94.8896V2.27344Z" fill="#424242"/>
<path d="M94.8896 22.8633H91.458V26.2949H94.8896V22.8633Z" fill="#424242"/>
<path d="M98.3252 2.27344H94.8936V5.70507H98.3252V2.27344Z" fill="#424242"/>
<path d="M98.3252 22.8633H94.8936V26.2949H98.3252V22.8633Z" fill="#424242"/>
<path d="M101.757 2.27344H98.3252V5.70507H101.757V2.27344Z" fill="#424242"/>
<path d="M101.757 5.70508H98.3252V9.13671H101.757V5.70508Z" fill="#424242"/>
<path d="M101.757 9.13672H98.3252V12.5683H101.757V9.13672Z" fill="#424242"/>
<path d="M101.757 12.5679H98.3252V15.9995H101.757V12.5679Z" fill="#424242"/>
<path d="M101.757 16H98.3252V19.4316H101.757V16Z" fill="#424242"/>
<path d="M101.757 19.4316H98.3252V22.8633H101.757V19.4316Z" fill="#424242"/>
<path d="M101.757 22.8633H98.3252V26.2949H101.757V22.8633Z" fill="#424242"/>
<path d="M88.0342 9.13672H84.6025V12.5683H88.0342V9.13672Z" fill="#424242"/>
<path d="M88.0342 12.5684H84.6025V16H88.0342V12.5684Z" fill="#424242"/>
<path d="M88.0342 16H84.6025V19.4316H88.0342V16Z" fill="#424242"/>
<path d="M91.4658 9.13672H88.0342V12.5683H91.4658V9.13672Z" fill="#424242"/>
<path d="M91.4658 12.5684H88.0342V16H91.4658V12.5684Z" fill="#424242"/>
<path d="M91.4658 16H88.0342V19.4316H91.4658V16Z" fill="#424242"/>
<path d="M94.8974 9.13672H91.4658V12.5683H94.8974V9.13672Z" fill="#424242"/>
<path d="M94.8974 12.5684H91.4658V16H94.8974V12.5684Z" fill="#424242"/>
<path d="M94.8974 16H91.4658V19.4316H94.8974V16Z" fill="#424242"/>
<path d="M5.67186 77.77H2.24023V81.2016H5.67186V77.77Z" fill="#424242"/>
<path d="M5.67186 81.2017H2.24023V84.6333H5.67186V81.2017Z" fill="#424242"/>
<path d="M5.67186 84.6333H2.24023V88.0649H5.67186V84.6333Z" fill="#424242"/>
<path d="M5.67186 88.0645H2.24023V91.4961H5.67186V88.0645Z" fill="#424242"/>
<path d="M5.67186 91.4966H2.24023V94.9282H5.67186V91.4966Z" fill="#424242"/>
<path d="M5.67186 94.9282H2.24023V98.3599H5.67186V94.9282Z" fill="#424242"/>
<path d="M5.67186 98.3599H2.24023V101.791H5.67186V98.3599Z" fill="#424242"/>
<path d="M9.1035 77.77H5.67188V81.2016H9.1035V77.77Z" fill="#424242"/>
<path d="M9.1035 98.3599H5.67188V101.791H9.1035V98.3599Z" fill="#424242"/>
<path d="M12.5351 77.77H9.10352V81.2016H12.5351V77.77Z" fill="#424242"/>
<path d="M12.5351 98.3599H9.10352V101.791H12.5351V98.3599Z" fill="#424242"/>
<path d="M15.9678 77.77H12.5361V81.2016H15.9678V77.77Z" fill="#424242"/>
<path d="M15.9678 98.3599H12.5361V101.791H15.9678V98.3599Z" fill="#424242"/>
<path d="M19.3955 77.77H15.9639V81.2016H19.3955V77.77Z" fill="#424242"/>
<path d="M19.3955 98.3599H15.9639V101.791H19.3955V98.3599Z" fill="#424242"/>
<path d="M22.831 77.77H19.3994V81.2016H22.831V77.77Z" fill="#424242"/>
<path d="M22.831 98.3599H19.3994V101.791H22.831V98.3599Z" fill="#424242"/>
<path d="M26.2627 77.77H22.8311V81.2016H26.2627V77.77Z" fill="#424242"/>
<path d="M26.2627 81.2017H22.8311V84.6333H26.2627V81.2017Z" fill="#424242"/>
<path d="M26.2627 84.6333H22.8311V88.0649H26.2627V84.6333Z" fill="#424242"/>
<path d="M26.2627 88.0645H22.8311V91.4961H26.2627V88.0645Z" fill="#424242"/>
<path d="M26.2627 91.4966H22.8311V94.9282H26.2627V91.4966Z" fill="#424242"/>
<path d="M26.2627 94.9282H22.8311V98.3599H26.2627V94.9282Z" fill="#424242"/>
<path d="M26.2627 98.3599H22.8311V101.791H26.2627V98.3599Z" fill="#424242"/>
<path d="M12.5361 84.6323H9.10449V88.064H12.5361V84.6323Z" fill="#424242"/>
<path d="M12.5361 88.064H9.10449V91.4956H12.5361V88.064Z" fill="#424242"/>
<path d="M12.5361 91.4956H9.10449V94.9272H12.5361V91.4956Z" fill="#424242"/>
<path d="M15.9678 84.6323H12.5361V88.064H15.9678V84.6323Z" fill="#424242"/>
<path d="M15.9678 88.064H12.5361V91.4956H15.9678V88.064Z" fill="#424242"/>
<path d="M15.9678 91.4956H12.5361V94.9272H15.9678V91.4956Z" fill="#424242"/>
<path d="M19.3994 84.6323H15.9678V88.064H19.3994V84.6323Z" fill="#424242"/>
<path d="M19.3994 88.064H15.9678V91.4956H19.3994V88.064Z" fill="#424242"/>
<path d="M19.3994 91.4956H15.9678V94.9272H19.3994V91.4956Z" fill="#424242"/>
</svg>
