<svg width="99" height="99" viewBox="0 0 99 99" fill="none" xmlns="http://www.w3.org/2000/svg">
<rect width="97.8014" height="97.8014" transform="translate(0.613281 0.646484)" fill="white"/>
<path d="M5.50223 38.1367H2.24219V41.3968H5.50223V38.1367Z" fill="#424242"/>
<path d="M5.50223 41.397H2.24219V44.657H5.50223V41.397Z" fill="#424242"/>
<path d="M5.50223 44.6567H2.24219V47.9168H5.50223V44.6567Z" fill="#424242"/>
<path d="M5.50223 51.1768H2.24219V54.4368H5.50223V51.1768Z" fill="#424242"/>
<path d="M5.50223 54.437H2.24219V57.6971H5.50223V54.437Z" fill="#424242"/>
<path d="M5.50223 57.6973H2.24219V60.9573H5.50223V57.6973Z" fill="#424242"/>
<path d="M5.50223 60.957H2.24219V64.2171H5.50223V60.957Z" fill="#424242"/>
<path d="M5.50223 67.4775H2.24219V70.7376H5.50223V67.4775Z" fill="#424242"/>
<path d="M8.76298 28.3569H5.50293V31.617H8.76298V28.3569Z" fill="#424242"/>
<path d="M8.76298 47.9175H5.50293V51.1775H8.76298V47.9175Z" fill="#424242"/>
<path d="M8.76298 51.1768H5.50293V54.4368H8.76298V51.1768Z" fill="#424242"/>
<path d="M8.76298 54.437H5.50293V57.6971H8.76298V54.437Z" fill="#424242"/>
<path d="M8.76298 57.6973H5.50293V60.9573H8.76298V57.6973Z" fill="#424242"/>
<path d="M8.76298 60.957H5.50293V64.2171H8.76298V60.957Z" fill="#424242"/>
<path d="M8.76298 64.2173H5.50293V67.4773H8.76298V64.2173Z" fill="#424242"/>
<path d="M8.76298 67.4775H5.50293V70.7376H8.76298V67.4775Z" fill="#424242"/>
<path d="M12.0208 28.3569H8.76074V31.617H12.0208V28.3569Z" fill="#424242"/>
<path d="M12.0208 34.877H8.76074V38.137H12.0208V34.877Z" fill="#424242"/>
<path d="M12.0208 38.1367H8.76074V41.3968H12.0208V38.1367Z" fill="#424242"/>
<path d="M12.0208 44.6567H8.76074V47.9168H12.0208V44.6567Z" fill="#424242"/>
<path d="M12.0208 60.957H8.76074V64.2171H12.0208V60.957Z" fill="#424242"/>
<path d="M12.0208 67.4775H8.76074V70.7376H12.0208V67.4775Z" fill="#424242"/>
<path d="M15.2815 34.877H12.0215V38.137H15.2815V34.877Z" fill="#424242"/>
<path d="M15.2815 38.1367H12.0215V41.3968H15.2815V38.1367Z" fill="#424242"/>
<path d="M15.2815 41.397H12.0215V44.657H15.2815V41.397Z" fill="#424242"/>
<path d="M15.2815 51.1768H12.0215V54.4368H15.2815V51.1768Z" fill="#424242"/>
<path d="M15.2815 54.437H12.0215V57.6971H15.2815V54.437Z" fill="#424242"/>
<path d="M15.2815 57.6973H12.0215V60.9573H15.2815V57.6973Z" fill="#424242"/>
<path d="M15.2815 64.2173H12.0215V67.4773H15.2815V64.2173Z" fill="#424242"/>
<path d="M18.5423 34.877H15.2822V38.137H18.5423V34.877Z" fill="#424242"/>
<path d="M18.5423 38.1367H15.2822V41.3968H18.5423V38.1367Z" fill="#424242"/>
<path d="M18.5423 41.397H15.2822V44.657H18.5423V41.397Z" fill="#424242"/>
<path d="M18.5423 44.6567H15.2822V47.9168H18.5423V44.6567Z" fill="#424242"/>
<path d="M18.5423 54.437H15.2822V57.6971H18.5423V54.437Z" fill="#424242"/>
<path d="M18.5423 57.6973H15.2822V60.9573H18.5423V57.6973Z" fill="#424242"/>
<path d="M18.5423 60.957H15.2822V64.2171H18.5423V60.957Z" fill="#424242"/>
<path d="M18.5423 64.2173H15.2822V67.4773H18.5423V64.2173Z" fill="#424242"/>
<path d="M18.5423 67.4775H15.2822V70.7376H18.5423V67.4775Z" fill="#424242"/>
<path d="M21.804 31.6172H18.5439V34.8772H21.804V31.6172Z" fill="#424242"/>
<path d="M21.804 44.6567H18.5439V47.9168H21.804V44.6567Z" fill="#424242"/>
<path d="M21.804 64.2173H18.5439V67.4773H21.804V64.2173Z" fill="#424242"/>
<path d="M21.804 67.4775H18.5439V70.7376H21.804V67.4775Z" fill="#424242"/>
<path d="M25.0608 28.3569H21.8008V31.617H25.0608V28.3569Z" fill="#424242"/>
<path d="M25.0608 34.877H21.8008V38.137H25.0608V34.877Z" fill="#424242"/>
<path d="M25.0608 41.397H21.8008V44.657H25.0608V41.397Z" fill="#424242"/>
<path d="M25.0608 47.9175H21.8008V51.1775H25.0608V47.9175Z" fill="#424242"/>
<path d="M25.0608 54.437H21.8008V57.6971H25.0608V54.437Z" fill="#424242"/>
<path d="M25.0608 60.957H21.8008V64.2171H25.0608V60.957Z" fill="#424242"/>
<path d="M25.0608 67.4775H21.8008V70.7376H25.0608V67.4775Z" fill="#424242"/>
<path d="M28.3216 31.6172H25.0615V34.8772H28.3216V31.6172Z" fill="#424242"/>
<path d="M28.3216 41.397H25.0615V44.657H28.3216V41.397Z" fill="#424242"/>
<path d="M28.3216 44.6567H25.0615V47.9168H28.3216V44.6567Z" fill="#424242"/>
<path d="M28.3216 47.9175H25.0615V51.1775H28.3216V47.9175Z" fill="#424242"/>
<path d="M28.3216 51.1768H25.0615V54.4368H28.3216V51.1768Z" fill="#424242"/>
<path d="M28.3216 54.437H25.0615V57.6971H28.3216V54.437Z" fill="#424242"/>
<path d="M28.3216 57.6973H25.0615V60.9573H28.3216V57.6973Z" fill="#424242"/>
<path d="M28.3216 60.957H25.0615V64.2171H28.3216V60.957Z" fill="#424242"/>
<path d="M31.5833 5.53662H28.3232V8.79667H31.5833V5.53662Z" fill="#424242"/>
<path d="M31.5833 8.79639H28.3232V12.0564H31.5833V8.79639Z" fill="#424242"/>
<path d="M31.5833 12.0566H28.3232V15.3167H31.5833V12.0566Z" fill="#424242"/>
<path d="M31.5833 18.5767H28.3232V21.8367H31.5833V18.5767Z" fill="#424242"/>
<path d="M31.5833 21.8369H28.3232V25.097H31.5833V21.8369Z" fill="#424242"/>
<path d="M31.5833 31.6172H28.3232V34.8772H31.5833V31.6172Z" fill="#424242"/>
<path d="M31.5833 47.9175H28.3232V51.1775H31.5833V47.9175Z" fill="#424242"/>
<path d="M31.5833 54.437H28.3232V57.6971H31.5833V54.437Z" fill="#424242"/>
<path d="M31.5833 64.2173H28.3232V67.4773H31.5833V64.2173Z" fill="#424242"/>
<path d="M31.5833 87.0376H28.3232V90.2976H31.5833V87.0376Z" fill="#424242"/>
<path d="M31.5833 90.2979H28.3232V93.5579H31.5833V90.2979Z" fill="#424242"/>
<path d="M34.8401 5.53662H31.5801V8.79667H34.8401V5.53662Z" fill="#424242"/>
<path d="M34.8401 12.0566H31.5801V15.3167H34.8401V12.0566Z" fill="#424242"/>
<path d="M34.8401 15.3169H31.5801V18.5769H34.8401V15.3169Z" fill="#424242"/>
<path d="M34.8401 18.5767H31.5801V21.8367H34.8401V18.5767Z" fill="#424242"/>
<path d="M34.8401 34.877H31.5801V38.137H34.8401V34.877Z" fill="#424242"/>
<path d="M34.8401 38.1367H31.5801V41.3968H34.8401V38.1367Z" fill="#424242"/>
<path d="M34.8401 51.1768H31.5801V54.4368H34.8401V51.1768Z" fill="#424242"/>
<path d="M34.8401 54.437H31.5801V57.6971H34.8401V54.437Z" fill="#424242"/>
<path d="M34.8401 73.9976H31.5801V77.2576H34.8401V73.9976Z" fill="#424242"/>
<path d="M34.8401 80.5176H31.5801V83.7776H34.8401V80.5176Z" fill="#424242"/>
<path d="M34.8401 83.7778H31.5801V87.0379H34.8401V83.7778Z" fill="#424242"/>
<path d="M34.8401 87.0376H31.5801V90.2976H34.8401V87.0376Z" fill="#424242"/>
<path d="M34.8401 93.5576H31.5801V96.8177H34.8401V93.5576Z" fill="#424242"/>
<path d="M38.1009 2.27637H34.8408V5.53641H38.1009V2.27637Z" fill="#424242"/>
<path d="M38.1009 5.53662H34.8408V8.79667H38.1009V5.53662Z" fill="#424242"/>
<path d="M38.1009 8.79639H34.8408V12.0564H38.1009V8.79639Z" fill="#424242"/>
<path d="M38.1009 12.0566H34.8408V15.3167H38.1009V12.0566Z" fill="#424242"/>
<path d="M38.1009 21.8369H34.8408V25.097H38.1009V21.8369Z" fill="#424242"/>
<path d="M38.1009 25.0962H34.8408V28.3562H38.1009V25.0962Z" fill="#424242"/>
<path d="M38.1009 28.3569H34.8408V31.617H38.1009V28.3569Z" fill="#424242"/>
<path d="M38.1009 34.877H34.8408V38.137H38.1009V34.877Z" fill="#424242"/>
<path d="M38.1009 38.1367H34.8408V41.3968H38.1009V38.1367Z" fill="#424242"/>
<path d="M38.1009 44.6567H34.8408V47.9168H38.1009V44.6567Z" fill="#424242"/>
<path d="M38.1009 51.1768H34.8408V54.4368H38.1009V51.1768Z" fill="#424242"/>
<path d="M38.1009 57.6973H34.8408V60.9573H38.1009V57.6973Z" fill="#424242"/>
<path d="M38.1009 73.9976H34.8408V77.2576H38.1009V73.9976Z" fill="#424242"/>
<path d="M38.1009 83.7778H34.8408V87.0379H38.1009V83.7778Z" fill="#424242"/>
<path d="M38.1009 90.2979H34.8408V93.5579H38.1009V90.2979Z" fill="#424242"/>
<path d="M41.3616 8.79639H38.1016V12.0564H41.3616V8.79639Z" fill="#424242"/>
<path d="M41.3616 15.3169H38.1016V18.5769H41.3616V15.3169Z" fill="#424242"/>
<path d="M41.3616 25.0962H38.1016V28.3562H41.3616V25.0962Z" fill="#424242"/>
<path d="M41.3616 54.437H38.1016V57.6971H41.3616V54.437Z" fill="#424242"/>
<path d="M41.3616 60.957H38.1016V64.2171H41.3616V60.957Z" fill="#424242"/>
<path d="M41.3616 67.4775H38.1016V70.7376H41.3616V67.4775Z" fill="#424242"/>
<path d="M41.3616 83.7778H38.1016V87.0379H41.3616V83.7778Z" fill="#424242"/>
<path d="M41.3616 93.5576H38.1016V96.8177H41.3616V93.5576Z" fill="#424242"/>
<path d="M44.6233 5.53662H41.3633V8.79667H44.6233V5.53662Z" fill="#424242"/>
<path d="M44.6233 12.0566H41.3633V15.3167H44.6233V12.0566Z" fill="#424242"/>
<path d="M44.6233 15.3169H41.3633V18.5769H44.6233V15.3169Z" fill="#424242"/>
<path d="M44.6233 21.8369H41.3633V25.097H44.6233V21.8369Z" fill="#424242"/>
<path d="M44.6233 31.6172H41.3633V34.8772H44.6233V31.6172Z" fill="#424242"/>
<path d="M44.6233 38.1367H41.3633V41.3968H44.6233V38.1367Z" fill="#424242"/>
<path d="M44.6233 51.1768H41.3633V54.4368H44.6233V51.1768Z" fill="#424242"/>
<path d="M44.6233 54.437H41.3633V57.6971H44.6233V54.437Z" fill="#424242"/>
<path d="M44.6233 57.6973H41.3633V60.9573H44.6233V57.6973Z" fill="#424242"/>
<path d="M44.6233 64.2173H41.3633V67.4773H44.6233V64.2173Z" fill="#424242"/>
<path d="M44.6233 70.7373H41.3633V73.9974H44.6233V70.7373Z" fill="#424242"/>
<path d="M44.6233 77.2568H41.3633V80.5169H44.6233V77.2568Z" fill="#424242"/>
<path d="M44.6233 83.7778H41.3633V87.0379H44.6233V83.7778Z" fill="#424242"/>
<path d="M44.6233 87.0376H41.3633V90.2976H44.6233V87.0376Z" fill="#424242"/>
<path d="M44.6233 90.2979H41.3633V93.5579H44.6233V90.2979Z" fill="#424242"/>
<path d="M44.6233 93.5576H41.3633V96.8177H44.6233V93.5576Z" fill="#424242"/>
<path d="M47.8802 2.27637H44.6201V5.53641H47.8802V2.27637Z" fill="#424242"/>
<path d="M47.8802 15.3169H44.6201V18.5769H47.8802V15.3169Z" fill="#424242"/>
<path d="M47.8802 28.3569H44.6201V31.617H47.8802V28.3569Z" fill="#424242"/>
<path d="M47.8802 38.1367H44.6201V41.3968H47.8802V38.1367Z" fill="#424242"/>
<path d="M47.8802 41.397H44.6201V44.657H47.8802V41.397Z" fill="#424242"/>
<path d="M47.8802 54.437H44.6201V57.6971H47.8802V54.437Z" fill="#424242"/>
<path d="M47.8802 60.957H44.6201V64.2171H47.8802V60.957Z" fill="#424242"/>
<path d="M47.8802 64.2173H44.6201V67.4773H47.8802V64.2173Z" fill="#424242"/>
<path d="M47.8802 73.9976H44.6201V77.2576H47.8802V73.9976Z" fill="#424242"/>
<path d="M47.8802 77.2568H44.6201V80.5169H47.8802V77.2568Z" fill="#424242"/>
<path d="M47.8802 83.7778H44.6201V87.0379H47.8802V83.7778Z" fill="#424242"/>
<path d="M47.8802 87.0376H44.6201V90.2976H47.8802V87.0376Z" fill="#424242"/>
<path d="M47.8802 93.5576H44.6201V96.8177H47.8802V93.5576Z" fill="#424242"/>
<path d="M51.1409 2.27637H47.8809V5.53641H51.1409V2.27637Z" fill="#424242"/>
<path d="M51.1409 5.53662H47.8809V8.79667H51.1409V5.53662Z" fill="#424242"/>
<path d="M51.1409 8.79639H47.8809V12.0564H51.1409V8.79639Z" fill="#424242"/>
<path d="M51.1409 12.0566H47.8809V15.3167H51.1409V12.0566Z" fill="#424242"/>
<path d="M51.1409 18.5767H47.8809V21.8367H51.1409V18.5767Z" fill="#424242"/>
<path d="M51.1409 21.8369H47.8809V25.097H51.1409V21.8369Z" fill="#424242"/>
<path d="M51.1409 28.3569H47.8809V31.617H51.1409V28.3569Z" fill="#424242"/>
<path d="M51.1409 31.6172H47.8809V34.8772H51.1409V31.6172Z" fill="#424242"/>
<path d="M51.1409 34.877H47.8809V38.137H51.1409V34.877Z" fill="#424242"/>
<path d="M51.1409 38.1367H47.8809V41.3968H51.1409V38.1367Z" fill="#424242"/>
<path d="M51.1409 44.6567H47.8809V47.9168H51.1409V44.6567Z" fill="#424242"/>
<path d="M51.1409 47.9175H47.8809V51.1775H51.1409V47.9175Z" fill="#424242"/>
<path d="M51.1409 54.437H47.8809V57.6971H51.1409V54.437Z" fill="#424242"/>
<path d="M51.1409 57.6973H47.8809V60.9573H51.1409V57.6973Z" fill="#424242"/>
<path d="M51.1409 60.957H47.8809V64.2171H51.1409V60.957Z" fill="#424242"/>
<path d="M51.1409 64.2173H47.8809V67.4773H51.1409V64.2173Z" fill="#424242"/>
<path d="M51.1409 67.4775H47.8809V70.7376H51.1409V67.4775Z" fill="#424242"/>
<path d="M51.1409 70.7373H47.8809V73.9974H51.1409V70.7373Z" fill="#424242"/>
<path d="M51.1409 73.9976H47.8809V77.2576H51.1409V73.9976Z" fill="#424242"/>
<path d="M51.1409 77.2568H47.8809V80.5169H51.1409V77.2568Z" fill="#424242"/>
<path d="M51.1409 80.5176H47.8809V83.7776H51.1409V80.5176Z" fill="#424242"/>
<path d="M51.1409 83.7778H47.8809V87.0379H51.1409V83.7778Z" fill="#424242"/>
<path d="M51.1409 93.5576H47.8809V96.8177H51.1409V93.5576Z" fill="#424242"/>
<path d="M54.4026 2.27637H51.1426V5.53641H54.4026V2.27637Z" fill="#424242"/>
<path d="M54.4026 5.53662H51.1426V8.79667H54.4026V5.53662Z" fill="#424242"/>
<path d="M54.4026 25.0962H51.1426V28.3562H54.4026V25.0962Z" fill="#424242"/>
<path d="M54.4026 28.3569H51.1426V31.617H54.4026V28.3569Z" fill="#424242"/>
<path d="M54.4026 34.877H51.1426V38.137H54.4026V34.877Z" fill="#424242"/>
<path d="M54.4026 41.397H51.1426V44.657H54.4026V41.397Z" fill="#424242"/>
<path d="M54.4026 47.9175H51.1426V51.1775H54.4026V47.9175Z" fill="#424242"/>
<path d="M54.4026 57.6973H51.1426V60.9573H54.4026V57.6973Z" fill="#424242"/>
<path d="M54.4026 60.957H51.1426V64.2171H54.4026V60.957Z" fill="#424242"/>
<path d="M54.4026 67.4775H51.1426V70.7376H54.4026V67.4775Z" fill="#424242"/>
<path d="M54.4026 73.9976H51.1426V77.2576H54.4026V73.9976Z" fill="#424242"/>
<path d="M54.4026 80.5176H51.1426V83.7776H54.4026V80.5176Z" fill="#424242"/>
<path d="M54.4026 83.7778H51.1426V87.0379H54.4026V83.7778Z" fill="#424242"/>
<path d="M57.6634 2.27637H54.4033V5.53641H57.6634V2.27637Z" fill="#424242"/>
<path d="M57.6634 5.53662H54.4033V8.79667H57.6634V5.53662Z" fill="#424242"/>
<path d="M57.6634 8.79639H54.4033V12.0564H57.6634V8.79639Z" fill="#424242"/>
<path d="M57.6634 12.0566H54.4033V15.3167H57.6634V12.0566Z" fill="#424242"/>
<path d="M57.6634 15.3169H54.4033V18.5769H57.6634V15.3169Z" fill="#424242"/>
<path d="M57.6634 18.5767H54.4033V21.8367H57.6634V18.5767Z" fill="#424242"/>
<path d="M57.6634 21.8369H54.4033V25.097H57.6634V21.8369Z" fill="#424242"/>
<path d="M57.6634 25.0962H54.4033V28.3562H57.6634V25.0962Z" fill="#424242"/>
<path d="M57.6634 28.3569H54.4033V31.617H57.6634V28.3569Z" fill="#424242"/>
<path d="M57.6634 41.397H54.4033V44.657H57.6634V41.397Z" fill="#424242"/>
<path d="M57.6634 51.1768H54.4033V54.4368H57.6634V51.1768Z" fill="#424242"/>
<path d="M57.6634 54.437H54.4033V57.6971H57.6634V54.437Z" fill="#424242"/>
<path d="M57.6634 57.6973H54.4033V60.9573H57.6634V57.6973Z" fill="#424242"/>
<path d="M57.6634 60.957H54.4033V64.2171H57.6634V60.957Z" fill="#424242"/>
<path d="M57.6634 64.2173H54.4033V67.4773H57.6634V64.2173Z" fill="#424242"/>
<path d="M57.6634 67.4775H54.4033V70.7376H57.6634V67.4775Z" fill="#424242"/>
<path d="M57.6634 83.7778H54.4033V87.0379H57.6634V83.7778Z" fill="#424242"/>
<path d="M57.6634 90.2979H54.4033V93.5579H57.6634V90.2979Z" fill="#424242"/>
<path d="M57.6634 93.5576H54.4033V96.8177H57.6634V93.5576Z" fill="#424242"/>
<path d="M60.9202 8.79639H57.6602V12.0564H60.9202V8.79639Z" fill="#424242"/>
<path d="M60.9202 12.0566H57.6602V15.3167H60.9202V12.0566Z" fill="#424242"/>
<path d="M60.9202 18.5767H57.6602V21.8367H60.9202V18.5767Z" fill="#424242"/>
<path d="M60.9202 25.0962H57.6602V28.3562H60.9202V25.0962Z" fill="#424242"/>
<path d="M60.9202 44.6567H57.6602V47.9168H60.9202V44.6567Z" fill="#424242"/>
<path d="M60.9202 47.9175H57.6602V51.1775H60.9202V47.9175Z" fill="#424242"/>
<path d="M60.9202 54.437H57.6602V57.6971H60.9202V54.437Z" fill="#424242"/>
<path d="M60.9202 67.4775H57.6602V70.7376H60.9202V67.4775Z" fill="#424242"/>
<path d="M60.9202 70.7373H57.6602V73.9974H60.9202V70.7373Z" fill="#424242"/>
<path d="M60.9202 77.2568H57.6602V80.5169H60.9202V77.2568Z" fill="#424242"/>
<path d="M64.1819 2.27637H60.9219V5.53641H64.1819V2.27637Z" fill="#424242"/>
<path d="M64.1819 8.79639H60.9219V12.0564H64.1819V8.79639Z" fill="#424242"/>
<path d="M64.1819 12.0566H60.9219V15.3167H64.1819V12.0566Z" fill="#424242"/>
<path d="M64.1819 21.8369H60.9219V25.097H64.1819V21.8369Z" fill="#424242"/>
<path d="M64.1819 28.3569H60.9219V31.617H64.1819V28.3569Z" fill="#424242"/>
<path d="M64.1819 34.877H60.9219V38.137H64.1819V34.877Z" fill="#424242"/>
<path d="M64.1819 44.6567H60.9219V47.9168H64.1819V44.6567Z" fill="#424242"/>
<path d="M64.1819 51.1768H60.9219V54.4368H64.1819V51.1768Z" fill="#424242"/>
<path d="M64.1819 54.437H60.9219V57.6971H64.1819V54.437Z" fill="#424242"/>
<path d="M64.1819 57.6973H60.9219V60.9573H64.1819V57.6973Z" fill="#424242"/>
<path d="M64.1819 60.957H60.9219V64.2171H64.1819V60.957Z" fill="#424242"/>
<path d="M64.1819 73.9976H60.9219V77.2576H64.1819V73.9976Z" fill="#424242"/>
<path d="M64.1819 80.5176H60.9219V83.7776H64.1819V80.5176Z" fill="#424242"/>
<path d="M67.4427 8.79639H64.1826V12.0564H67.4427V8.79639Z" fill="#424242"/>
<path d="M67.4427 25.0962H64.1826V28.3562H67.4427V25.0962Z" fill="#424242"/>
<path d="M67.4427 28.3569H64.1826V31.617H67.4427V28.3569Z" fill="#424242"/>
<path d="M67.4427 31.6172H64.1826V34.8772H67.4427V31.6172Z" fill="#424242"/>
<path d="M67.4427 34.877H64.1826V38.137H67.4427V34.877Z" fill="#424242"/>
<path d="M67.4427 38.1367H64.1826V41.3968H67.4427V38.1367Z" fill="#424242"/>
<path d="M67.4427 44.6567H64.1826V47.9168H67.4427V44.6567Z" fill="#424242"/>
<path d="M67.4427 47.9175H64.1826V51.1775H67.4427V47.9175Z" fill="#424242"/>
<path d="M67.4427 57.6973H64.1826V60.9573H67.4427V57.6973Z" fill="#424242"/>
<path d="M67.4427 70.7373H64.1826V73.9974H67.4427V70.7373Z" fill="#424242"/>
<path d="M67.4427 73.9976H64.1826V77.2576H67.4427V73.9976Z" fill="#424242"/>
<path d="M67.4427 77.2568H64.1826V80.5169H67.4427V77.2568Z" fill="#424242"/>
<path d="M67.4427 80.5176H64.1826V83.7776H67.4427V80.5176Z" fill="#424242"/>
<path d="M67.4427 83.7778H64.1826V87.0379H67.4427V83.7778Z" fill="#424242"/>
<path d="M67.4427 87.0376H64.1826V90.2976H67.4427V87.0376Z" fill="#424242"/>
<path d="M67.4427 93.5576H64.1826V96.8177H67.4427V93.5576Z" fill="#424242"/>
<path d="M70.7034 5.53662H67.4434V8.79667H70.7034V5.53662Z" fill="#424242"/>
<path d="M70.7034 18.5767H67.4434V21.8367H70.7034V18.5767Z" fill="#424242"/>
<path d="M70.7034 21.8369H67.4434V25.097H70.7034V21.8369Z" fill="#424242"/>
<path d="M70.7034 25.0962H67.4434V28.3562H70.7034V25.0962Z" fill="#424242"/>
<path d="M70.7034 28.3569H67.4434V31.617H70.7034V28.3569Z" fill="#424242"/>
<path d="M70.7034 44.6567H67.4434V47.9168H70.7034V44.6567Z" fill="#424242"/>
<path d="M70.7034 47.9175H67.4434V51.1775H70.7034V47.9175Z" fill="#424242"/>
<path d="M70.7034 54.437H67.4434V57.6971H70.7034V54.437Z" fill="#424242"/>
<path d="M70.7034 57.6973H67.4434V60.9573H70.7034V57.6973Z" fill="#424242"/>
<path d="M70.7034 64.2173H67.4434V67.4773H70.7034V64.2173Z" fill="#424242"/>
<path d="M70.7034 67.4775H67.4434V70.7376H70.7034V67.4775Z" fill="#424242"/>
<path d="M70.7034 70.7373H67.4434V73.9974H70.7034V70.7373Z" fill="#424242"/>
<path d="M70.7034 73.9976H67.4434V77.2576H70.7034V73.9976Z" fill="#424242"/>
<path d="M70.7034 77.2568H67.4434V80.5169H70.7034V77.2568Z" fill="#424242"/>
<path d="M70.7034 80.5176H67.4434V83.7776H70.7034V80.5176Z" fill="#424242"/>
<path d="M70.7034 87.0376H67.4434V90.2976H70.7034V87.0376Z" fill="#424242"/>
<path d="M73.9651 28.3569H70.7051V31.617H73.9651V28.3569Z" fill="#424242"/>
<path d="M73.9651 34.877H70.7051V38.137H73.9651V34.877Z" fill="#424242"/>
<path d="M73.9651 41.397H70.7051V44.657H73.9651V41.397Z" fill="#424242"/>
<path d="M73.9651 54.437H70.7051V57.6971H73.9651V54.437Z" fill="#424242"/>
<path d="M73.9651 60.957H70.7051V64.2171H73.9651V60.957Z" fill="#424242"/>
<path d="M73.9651 67.4775H70.7051V70.7376H73.9651V67.4775Z" fill="#424242"/>
<path d="M73.9651 80.5176H70.7051V83.7776H73.9651V80.5176Z" fill="#424242"/>
<path d="M73.9651 83.7778H70.7051V87.0379H73.9651V83.7778Z" fill="#424242"/>
<path d="M73.9651 90.2979H70.7051V93.5579H73.9651V90.2979Z" fill="#424242"/>
<path d="M73.9651 93.5576H70.7051V96.8177H73.9651V93.5576Z" fill="#424242"/>
<path d="M77.222 34.877H73.9619V38.137H77.222V34.877Z" fill="#424242"/>
<path d="M77.222 38.1367H73.9619V41.3968H77.222V38.1367Z" fill="#424242"/>
<path d="M77.222 41.397H73.9619V44.657H77.222V41.397Z" fill="#424242"/>
<path d="M77.222 44.6567H73.9619V47.9168H77.222V44.6567Z" fill="#424242"/>
<path d="M77.222 54.437H73.9619V57.6971H77.222V54.437Z" fill="#424242"/>
<path d="M77.222 57.6973H73.9619V60.9573H77.222V57.6973Z" fill="#424242"/>
<path d="M77.222 64.2173H73.9619V67.4773H77.222V64.2173Z" fill="#424242"/>
<path d="M77.222 67.4775H73.9619V70.7376H77.222V67.4775Z" fill="#424242"/>
<path d="M77.222 73.9976H73.9619V77.2576H77.222V73.9976Z" fill="#424242"/>
<path d="M77.222 80.5176H73.9619V83.7776H77.222V80.5176Z" fill="#424242"/>
<path d="M77.222 87.0376H73.9619V90.2976H77.222V87.0376Z" fill="#424242"/>
<path d="M77.222 90.2979H73.9619V93.5579H77.222V90.2979Z" fill="#424242"/>
<path d="M80.4827 28.3569H77.2227V31.617H80.4827V28.3569Z" fill="#424242"/>
<path d="M80.4827 34.877H77.2227V38.137H80.4827V34.877Z" fill="#424242"/>
<path d="M80.4827 41.397H77.2227V44.657H80.4827V41.397Z" fill="#424242"/>
<path d="M80.4827 44.6567H77.2227V47.9168H80.4827V44.6567Z" fill="#424242"/>
<path d="M80.4827 47.9175H77.2227V51.1775H80.4827V47.9175Z" fill="#424242"/>
<path d="M80.4827 51.1768H77.2227V54.4368H80.4827V51.1768Z" fill="#424242"/>
<path d="M80.4827 54.437H77.2227V57.6971H80.4827V54.437Z" fill="#424242"/>
<path d="M80.4827 60.957H77.2227V64.2171H80.4827V60.957Z" fill="#424242"/>
<path d="M80.4827 67.4775H77.2227V70.7376H80.4827V67.4775Z" fill="#424242"/>
<path d="M80.4827 80.5176H77.2227V83.7776H80.4827V80.5176Z" fill="#424242"/>
<path d="M80.4827 90.2979H77.2227V93.5579H80.4827V90.2979Z" fill="#424242"/>
<path d="M83.7444 31.6172H80.4844V34.8772H83.7444V31.6172Z" fill="#424242"/>
<path d="M83.7444 34.877H80.4844V38.137H83.7444V34.877Z" fill="#424242"/>
<path d="M83.7444 38.1367H80.4844V41.3968H83.7444V38.1367Z" fill="#424242"/>
<path d="M83.7444 44.6567H80.4844V47.9168H83.7444V44.6567Z" fill="#424242"/>
<path d="M83.7444 51.1768H80.4844V54.4368H83.7444V51.1768Z" fill="#424242"/>
<path d="M83.7444 60.957H80.4844V64.2171H83.7444V60.957Z" fill="#424242"/>
<path d="M83.7444 67.4775H80.4844V70.7376H83.7444V67.4775Z" fill="#424242"/>
<path d="M83.7444 70.7373H80.4844V73.9974H83.7444V70.7373Z" fill="#424242"/>
<path d="M83.7444 73.9976H80.4844V77.2576H83.7444V73.9976Z" fill="#424242"/>
<path d="M83.7444 77.2568H80.4844V80.5169H83.7444V77.2568Z" fill="#424242"/>
<path d="M83.7444 80.5176H80.4844V83.7776H83.7444V80.5176Z" fill="#424242"/>
<path d="M83.7444 83.7778H80.4844V87.0379H83.7444V83.7778Z" fill="#424242"/>
<path d="M83.7444 87.0376H80.4844V90.2976H83.7444V87.0376Z" fill="#424242"/>
<path d="M83.7444 93.5576H80.4844V96.8177H83.7444V93.5576Z" fill="#424242"/>
<path d="M87.0052 28.3569H83.7451V31.617H87.0052V28.3569Z" fill="#424242"/>
<path d="M87.0052 34.877H83.7451V38.137H87.0052V34.877Z" fill="#424242"/>
<path d="M87.0052 38.1367H83.7451V41.3968H87.0052V38.1367Z" fill="#424242"/>
<path d="M87.0052 41.397H83.7451V44.657H87.0052V41.397Z" fill="#424242"/>
<path d="M87.0052 54.437H83.7451V57.6971H87.0052V54.437Z" fill="#424242"/>
<path d="M87.0052 60.957H83.7451V64.2171H87.0052V60.957Z" fill="#424242"/>
<path d="M87.0052 64.2173H83.7451V67.4773H87.0052V64.2173Z" fill="#424242"/>
<path d="M87.0052 80.5176H83.7451V83.7776H87.0052V80.5176Z" fill="#424242"/>
<path d="M87.0052 83.7778H83.7451V87.0379H87.0052V83.7778Z" fill="#424242"/>
<path d="M87.0052 87.0376H83.7451V90.2976H87.0052V87.0376Z" fill="#424242"/>
<path d="M87.0052 90.2979H83.7451V93.5579H87.0052V90.2979Z" fill="#424242"/>
<path d="M90.2659 28.3569H87.0059V31.617H90.2659V28.3569Z" fill="#424242"/>
<path d="M90.2659 31.6172H87.0059V34.8772H90.2659V31.6172Z" fill="#424242"/>
<path d="M90.2659 34.877H87.0059V38.137H90.2659V34.877Z" fill="#424242"/>
<path d="M90.2659 38.1367H87.0059V41.3968H90.2659V38.1367Z" fill="#424242"/>
<path d="M90.2659 41.397H87.0059V44.657H90.2659V41.397Z" fill="#424242"/>
<path d="M90.2659 47.9175H87.0059V51.1775H90.2659V47.9175Z" fill="#424242"/>
<path d="M90.2659 51.1768H87.0059V54.4368H90.2659V51.1768Z" fill="#424242"/>
<path d="M90.2659 54.437H87.0059V57.6971H90.2659V54.437Z" fill="#424242"/>
<path d="M90.2659 57.6973H87.0059V60.9573H90.2659V57.6973Z" fill="#424242"/>
<path d="M90.2659 60.957H87.0059V64.2171H90.2659V60.957Z" fill="#424242"/>
<path d="M90.2659 67.4775H87.0059V70.7376H90.2659V67.4775Z" fill="#424242"/>
<path d="M90.2659 77.2568H87.0059V80.5169H90.2659V77.2568Z" fill="#424242"/>
<path d="M90.2659 93.5576H87.0059V96.8177H90.2659V93.5576Z" fill="#424242"/>
<path d="M93.5237 28.3569H90.2637V31.617H93.5237V28.3569Z" fill="#424242"/>
<path d="M93.5237 31.6172H90.2637V34.8772H93.5237V31.6172Z" fill="#424242"/>
<path d="M93.5237 34.877H90.2637V38.137H93.5237V34.877Z" fill="#424242"/>
<path d="M93.5237 38.1367H90.2637V41.3968H93.5237V38.1367Z" fill="#424242"/>
<path d="M93.5237 47.9175H90.2637V51.1775H93.5237V47.9175Z" fill="#424242"/>
<path d="M93.5237 54.437H90.2637V57.6971H93.5237V54.437Z" fill="#424242"/>
<path d="M93.5237 60.957H90.2637V64.2171H93.5237V60.957Z" fill="#424242"/>
<path d="M93.5237 64.2173H90.2637V67.4773H93.5237V64.2173Z" fill="#424242"/>
<path d="M93.5237 67.4775H90.2637V70.7376H93.5237V67.4775Z" fill="#424242"/>
<path d="M93.5237 70.7373H90.2637V73.9974H93.5237V70.7373Z" fill="#424242"/>
<path d="M93.5237 73.9976H90.2637V77.2576H93.5237V73.9976Z" fill="#424242"/>
<path d="M93.5237 80.5176H90.2637V83.7776H93.5237V80.5176Z" fill="#424242"/>
<path d="M93.5237 83.7778H90.2637V87.0379H93.5237V83.7778Z" fill="#424242"/>
<path d="M93.5237 90.2979H90.2637V93.5579H93.5237V90.2979Z" fill="#424242"/>
<path d="M96.7845 31.6172H93.5244V34.8772H96.7845V31.6172Z" fill="#424242"/>
<path d="M96.7845 34.877H93.5244V38.137H96.7845V34.877Z" fill="#424242"/>
<path d="M96.7845 41.397H93.5244V44.657H96.7845V41.397Z" fill="#424242"/>
<path d="M96.7845 51.1768H93.5244V54.4368H96.7845V51.1768Z" fill="#424242"/>
<path d="M96.7845 60.957H93.5244V64.2171H96.7845V60.957Z" fill="#424242"/>
<path d="M96.7845 67.4775H93.5244V70.7376H96.7845V67.4775Z" fill="#424242"/>
<path d="M96.7845 70.7373H93.5244V73.9974H96.7845V70.7373Z" fill="#424242"/>
<path d="M96.7845 77.2568H93.5244V80.5169H96.7845V77.2568Z" fill="#424242"/>
<path d="M96.7845 83.7778H93.5244V87.0379H96.7845V83.7778Z" fill="#424242"/>
<path d="M96.7845 87.0376H93.5244V90.2976H96.7845V87.0376Z" fill="#424242"/>
<path d="M96.7845 90.2979H93.5244V93.5579H96.7845V90.2979Z" fill="#424242"/>
<path d="M5.50223 2.27637H2.24219V5.53641H5.50223V2.27637Z" fill="#424242"/>
<path d="M5.50223 5.53662H2.24219V8.79667H5.50223V5.53662Z" fill="#424242"/>
<path d="M5.50223 8.79639H2.24219V12.0564H5.50223V8.79639Z" fill="#424242"/>
<path d="M5.50223 12.0566H2.24219V15.3167H5.50223V12.0566Z" fill="#424242"/>
<path d="M5.50223 15.3169H2.24219V18.5769H5.50223V15.3169Z" fill="#424242"/>
<path d="M5.50223 18.5767H2.24219V21.8367H5.50223V18.5767Z" fill="#424242"/>
<path d="M5.50223 21.8369H2.24219V25.097H5.50223V21.8369Z" fill="#424242"/>
<path d="M8.76298 2.27637H5.50293V5.53641H8.76298V2.27637Z" fill="#424242"/>
<path d="M8.76298 21.8369H5.50293V25.097H8.76298V21.8369Z" fill="#424242"/>
<path d="M12.0208 2.27637H8.76074V5.53641H12.0208V2.27637Z" fill="#424242"/>
<path d="M12.0208 21.8369H8.76074V25.097H12.0208V21.8369Z" fill="#424242"/>
<path d="M15.2815 2.27637H12.0215V5.53641H15.2815V2.27637Z" fill="#424242"/>
<path d="M15.2815 21.8369H12.0215V25.097H15.2815V21.8369Z" fill="#424242"/>
<path d="M18.5423 2.27637H15.2822V5.53641H18.5423V2.27637Z" fill="#424242"/>
<path d="M18.5423 21.8369H15.2822V25.097H18.5423V21.8369Z" fill="#424242"/>
<path d="M21.804 2.27637H18.5439V5.53641H21.804V2.27637Z" fill="#424242"/>
<path d="M21.804 21.8369H18.5439V25.097H21.804V21.8369Z" fill="#424242"/>
<path d="M25.0608 2.27637H21.8008V5.53641H25.0608V2.27637Z" fill="#424242"/>
<path d="M25.0608 5.53662H21.8008V8.79667H25.0608V5.53662Z" fill="#424242"/>
<path d="M25.0608 8.79639H21.8008V12.0564H25.0608V8.79639Z" fill="#424242"/>
<path d="M25.0608 12.0566H21.8008V15.3167H25.0608V12.0566Z" fill="#424242"/>
<path d="M25.0608 15.3169H21.8008V18.5769H25.0608V15.3169Z" fill="#424242"/>
<path d="M25.0608 18.5767H21.8008V21.8367H25.0608V18.5767Z" fill="#424242"/>
<path d="M25.0608 21.8369H21.8008V25.097H25.0608V21.8369Z" fill="#424242"/>
<path d="M12.0266 8.79639H8.7666V12.0564H12.0266V8.79639Z" fill="#424242"/>
<path d="M12.0266 12.0566H8.7666V15.3167H12.0266V12.0566Z" fill="#424242"/>
<path d="M12.0266 15.3164H8.7666V18.5765H12.0266V15.3164Z" fill="#424242"/>
<path d="M15.2874 8.79639H12.0273V12.0564H15.2874V8.79639Z" fill="#424242"/>
<path d="M15.2874 12.0566H12.0273V15.3167H15.2874V12.0566Z" fill="#424242"/>
<path d="M15.2874 15.3164H12.0273V18.5765H15.2874V15.3164Z" fill="#424242"/>
<path d="M18.5452 8.79639H15.2852V12.0564H18.5452V8.79639Z" fill="#424242"/>
<path d="M18.5452 12.0566H15.2852V15.3167H18.5452V12.0566Z" fill="#424242"/>
<path d="M18.5452 15.3164H15.2852V18.5765H18.5452V15.3164Z" fill="#424242"/>
<path d="M77.222 2.27637H73.9619V5.53641H77.222V2.27637Z" fill="#424242"/>
<path d="M77.222 5.53662H73.9619V8.79667H77.222V5.53662Z" fill="#424242"/>
<path d="M77.222 8.79639H73.9619V12.0564H77.222V8.79639Z" fill="#424242"/>
<path d="M77.222 12.0562H73.9619V15.3162H77.222V12.0562Z" fill="#424242"/>
<path d="M77.222 15.3169H73.9619V18.5769H77.222V15.3169Z" fill="#424242"/>
<path d="M77.222 18.5767H73.9619V21.8367H77.222V18.5767Z" fill="#424242"/>
<path d="M77.222 21.8369H73.9619V25.097H77.222V21.8369Z" fill="#424242"/>
<path d="M80.4827 2.27637H77.2227V5.53641H80.4827V2.27637Z" fill="#424242"/>
<path d="M80.4827 21.8369H77.2227V25.097H80.4827V21.8369Z" fill="#424242"/>
<path d="M83.7405 2.27637H80.4805V5.53641H83.7405V2.27637Z" fill="#424242"/>
<path d="M83.7405 21.8369H80.4805V25.097H83.7405V21.8369Z" fill="#424242"/>
<path d="M87.0013 2.27637H83.7412V5.53641H87.0013V2.27637Z" fill="#424242"/>
<path d="M87.0013 21.8369H83.7412V25.097H87.0013V21.8369Z" fill="#424242"/>
<path d="M90.262 2.27637H87.002V5.53641H90.262V2.27637Z" fill="#424242"/>
<path d="M90.262 21.8369H87.002V25.097H90.262V21.8369Z" fill="#424242"/>
<path d="M93.5237 2.27637H90.2637V5.53641H93.5237V2.27637Z" fill="#424242"/>
<path d="M93.5237 21.8369H90.2637V25.097H93.5237V21.8369Z" fill="#424242"/>
<path d="M96.7806 2.27637H93.5205V5.53641H96.7806V2.27637Z" fill="#424242"/>
<path d="M96.7806 5.53662H93.5205V8.79667H96.7806V5.53662Z" fill="#424242"/>
<path d="M96.7806 8.79639H93.5205V12.0564H96.7806V8.79639Z" fill="#424242"/>
<path d="M96.7806 12.0562H93.5205V15.3162H96.7806V12.0562Z" fill="#424242"/>
<path d="M96.7806 15.3169H93.5205V18.5769H96.7806V15.3169Z" fill="#424242"/>
<path d="M96.7806 18.5767H93.5205V21.8367H96.7806V18.5767Z" fill="#424242"/>
<path d="M96.7806 21.8369H93.5205V25.097H96.7806V21.8369Z" fill="#424242"/>
<path d="M83.7474 8.79639H80.4873V12.0564H83.7474V8.79639Z" fill="#424242"/>
<path d="M83.7474 12.0566H80.4873V15.3167H83.7474V12.0566Z" fill="#424242"/>
<path d="M83.7474 15.3164H80.4873V18.5765H83.7474V15.3164Z" fill="#424242"/>
<path d="M87.0081 8.79639H83.748V12.0564H87.0081V8.79639Z" fill="#424242"/>
<path d="M87.0081 12.0566H83.748V15.3167H87.0081V12.0566Z" fill="#424242"/>
<path d="M87.0081 15.3164H83.748V18.5765H87.0081V15.3164Z" fill="#424242"/>
<path d="M90.2659 8.79639H87.0059V12.0564H90.2659V8.79639Z" fill="#424242"/>
<path d="M90.2659 12.0566H87.0059V15.3167H90.2659V12.0566Z" fill="#424242"/>
<path d="M90.2659 15.3164H87.0059V18.5765H90.2659V15.3164Z" fill="#424242"/>
<path d="M5.50223 73.9976H2.24219V77.2576H5.50223V73.9976Z" fill="#424242"/>
<path d="M5.50223 77.2578H2.24219V80.5179H5.50223V77.2578Z" fill="#424242"/>
<path d="M5.50223 80.5176H2.24219V83.7776H5.50223V80.5176Z" fill="#424242"/>
<path d="M5.50223 83.7778H2.24219V87.0379H5.50223V83.7778Z" fill="#424242"/>
<path d="M5.50223 87.0381H2.24219V90.2981H5.50223V87.0381Z" fill="#424242"/>
<path d="M5.50223 90.2979H2.24219V93.5579H5.50223V90.2979Z" fill="#424242"/>
<path d="M5.50223 93.5581H2.24219V96.8182H5.50223V93.5581Z" fill="#424242"/>
<path d="M8.76298 73.9976H5.50293V77.2576H8.76298V73.9976Z" fill="#424242"/>
<path d="M8.76298 93.5581H5.50293V96.8182H8.76298V93.5581Z" fill="#424242"/>
<path d="M12.0208 73.9976H8.76074V77.2576H12.0208V73.9976Z" fill="#424242"/>
<path d="M12.0208 93.5581H8.76074V96.8182H12.0208V93.5581Z" fill="#424242"/>
<path d="M15.2815 73.9976H12.0215V77.2576H15.2815V73.9976Z" fill="#424242"/>
<path d="M15.2815 93.5581H12.0215V96.8182H15.2815V93.5581Z" fill="#424242"/>
<path d="M18.5423 73.9976H15.2822V77.2576H18.5423V73.9976Z" fill="#424242"/>
<path d="M18.5423 93.5581H15.2822V96.8182H18.5423V93.5581Z" fill="#424242"/>
<path d="M21.804 73.9976H18.5439V77.2576H21.804V73.9976Z" fill="#424242"/>
<path d="M21.804 93.5581H18.5439V96.8182H21.804V93.5581Z" fill="#424242"/>
<path d="M25.0608 73.9976H21.8008V77.2576H25.0608V73.9976Z" fill="#424242"/>
<path d="M25.0608 77.2578H21.8008V80.5179H25.0608V77.2578Z" fill="#424242"/>
<path d="M25.0608 80.5176H21.8008V83.7776H25.0608V80.5176Z" fill="#424242"/>
<path d="M25.0608 83.7778H21.8008V87.0379H25.0608V83.7778Z" fill="#424242"/>
<path d="M25.0608 87.0381H21.8008V90.2981H25.0608V87.0381Z" fill="#424242"/>
<path d="M25.0608 90.2979H21.8008V93.5579H25.0608V90.2979Z" fill="#424242"/>
<path d="M25.0608 93.5581H21.8008V96.8182H25.0608V93.5581Z" fill="#424242"/>
<path d="M12.0266 80.5181H8.7666V83.7781H12.0266V80.5181Z" fill="#424242"/>
<path d="M12.0266 83.7783H8.7666V87.0384H12.0266V83.7783Z" fill="#424242"/>
<path d="M12.0266 87.0381H8.7666V90.2981H12.0266V87.0381Z" fill="#424242"/>
<path d="M15.2874 80.5181H12.0273V83.7781H15.2874V80.5181Z" fill="#424242"/>
<path d="M15.2874 83.7783H12.0273V87.0384H15.2874V83.7783Z" fill="#424242"/>
<path d="M15.2874 87.0381H12.0273V90.2981H15.2874V87.0381Z" fill="#424242"/>
<path d="M18.5452 80.5181H15.2852V83.7781H18.5452V80.5181Z" fill="#424242"/>
<path d="M18.5452 83.7783H15.2852V87.0384H18.5452V83.7783Z" fill="#424242"/>
<path d="M18.5452 87.0381H15.2852V90.2981H18.5452V87.0381Z" fill="#424242"/>
</svg>
