<svg width="320" height="102" viewBox="0 0 320 102" fill="none" xmlns="http://www.w3.org/2000/svg">
<rect x="1" y="1" width="318" height="100" rx="19" fill="white"/>
<rect x="1" y="1" width="318" height="100" rx="19" stroke="#EEEEEE" stroke-width="2"/>
<g clip-path="url(#clip0_57_1686)">
<path d="M136.789 89.9532V89.8675C137.007 89.8519 137.194 89.8129 137.342 89.7506C137.49 89.6882 137.591 89.6181 137.637 89.5401C137.645 89.5245 137.661 89.4856 137.669 89.431C137.669 89.3765 137.684 89.3141 137.692 89.244C137.692 89.1738 137.7 89.0959 137.707 89.018C137.707 88.94 137.707 88.8699 137.707 88.7919C137.707 88.5971 137.715 88.3945 137.715 88.184V86.7656H134.191V88.6906C134.191 88.8621 134.191 89.0335 134.199 89.1894C134.199 89.3531 134.23 89.4622 134.277 89.5245C134.347 89.6259 134.448 89.7038 134.58 89.7584C134.712 89.8129 134.845 89.8441 134.961 89.8597V89.9454H132.332V89.8597C132.48 89.8363 132.62 89.7973 132.76 89.7428C132.9 89.6882 133.001 89.6181 133.071 89.5323C133.094 89.5012 133.11 89.4544 133.126 89.3843C133.141 89.3141 133.149 89.2362 133.164 89.1427C133.172 89.0569 133.18 88.9556 133.188 88.8543C133.188 88.753 133.196 88.6516 133.196 88.5581C133.196 88.4724 133.196 88.3633 133.196 88.223C133.196 88.0827 133.196 87.919 133.203 87.7554C133.203 87.5839 133.203 87.4124 133.203 87.2332V84.6456C133.203 84.5365 133.203 84.443 133.188 84.3495C133.188 84.256 133.164 84.1702 133.149 84.1001C133.133 84.0222 133.102 83.9676 133.071 83.9286C132.985 83.8273 132.884 83.7572 132.76 83.7104C132.635 83.6636 132.503 83.6325 132.348 83.6169V83.5233H135.008V83.6169C134.922 83.6247 134.837 83.648 134.744 83.6714C134.65 83.6948 134.557 83.7338 134.487 83.7805C134.409 83.8351 134.347 83.9052 134.292 83.991C134.238 84.0767 134.207 84.1936 134.207 84.3261C134.207 84.5365 134.199 84.7626 134.191 85.0042C134.191 85.2458 134.191 85.4796 134.191 85.6978V86.6019H137.715V85.16C137.715 85.0042 137.715 84.8327 137.707 84.6301C137.707 84.521 137.692 84.3962 137.684 84.2793C137.676 84.1546 137.645 84.0611 137.599 83.9832C137.49 83.8195 137.373 83.726 137.233 83.687C137.093 83.6481 136.961 83.6247 136.821 83.6247V83.5311H139.504V83.6247C139.364 83.6403 139.224 83.6792 139.084 83.7416C138.944 83.8039 138.851 83.8975 138.781 84.0144C138.758 84.0533 138.742 84.1157 138.727 84.1858C138.719 84.2638 138.711 84.3417 138.703 84.4352C138.703 84.5287 138.695 84.6223 138.695 84.7158V87.6385C138.695 87.8021 138.695 87.9814 138.695 88.1606C138.695 88.3399 138.695 88.5347 138.695 88.753C138.695 88.9244 138.695 89.0803 138.711 89.2284C138.719 89.3765 138.742 89.47 138.781 89.5245C138.859 89.6415 138.96 89.7272 139.092 89.7739C139.224 89.8207 139.364 89.8519 139.52 89.8753V89.961H136.782L136.789 89.9532Z" fill="#444547"/>
<path d="M151.125 88.0126C150.946 88.4179 150.705 88.7686 150.401 89.0647C150.09 89.3609 149.74 89.5947 149.328 89.7506C148.923 89.9143 148.488 89.9922 148.029 89.9922C147.57 89.9922 147.15 89.9143 146.745 89.7506C146.341 89.5947 145.983 89.3687 145.679 89.0803C145.376 88.792 145.135 88.449 144.964 88.0438C144.785 87.6385 144.699 87.202 144.699 86.7188C144.699 86.2044 144.793 85.7446 144.971 85.3393C145.158 84.9263 145.407 84.5833 145.718 84.3028C146.029 84.0222 146.395 83.804 146.815 83.6481C147.235 83.5 147.671 83.4221 148.138 83.4221C148.643 83.4221 149.094 83.5078 149.499 83.687C149.903 83.8663 150.238 84.1079 150.518 84.4041C150.798 84.7002 151.008 85.051 151.164 85.4406C151.312 85.8303 151.382 86.2434 151.382 86.6721C151.382 87.1475 151.296 87.5917 151.117 87.997M150.145 85.5965C150.051 85.2302 149.911 84.8873 149.725 84.5911C149.538 84.2872 149.304 84.0456 149.024 83.8585C148.744 83.6715 148.418 83.5779 148.036 83.5779C147.655 83.5779 147.313 83.6715 147.033 83.8585C146.753 84.0456 146.52 84.2872 146.341 84.5911C146.162 84.8873 146.029 85.2302 145.944 85.6043C145.858 85.9862 145.812 86.3681 145.812 86.75C145.812 87.1553 145.858 87.545 145.952 87.9191C146.045 88.2932 146.193 88.6283 146.372 88.9089C146.558 89.1972 146.792 89.4233 147.08 89.5947C147.36 89.7662 147.694 89.8519 148.068 89.8519C148.441 89.8519 148.768 89.7584 149.048 89.5635C149.328 89.3765 149.553 89.1271 149.74 88.8231C149.927 88.527 150.067 88.184 150.152 87.8099C150.246 87.4358 150.292 87.0617 150.292 86.6799C150.292 86.298 150.246 85.9472 150.152 85.5809" fill="#444547"/>
<path d="M162.725 85.199C162.678 85.0899 162.624 84.9808 162.554 84.8639C162.492 84.747 162.422 84.6379 162.352 84.5365C162.282 84.4352 162.22 84.3417 162.149 84.256C162.079 84.1702 162.025 84.1079 161.978 84.0689C161.854 83.952 161.722 83.8741 161.574 83.8351C161.426 83.7961 161.239 83.7728 161.014 83.765C160.905 83.765 160.804 83.765 160.718 83.765C160.633 83.765 160.555 83.765 160.469 83.765H159.878C159.878 83.913 159.878 84.1157 159.878 84.3729C159.878 84.6301 159.878 84.8951 159.878 85.1756V88.6672C159.878 88.8387 159.878 89.0024 159.894 89.166C159.901 89.3219 159.932 89.431 159.979 89.5012C160.072 89.6337 160.197 89.7194 160.36 89.7662C160.524 89.8129 160.671 89.8519 160.804 89.8753V89.961H157.902V89.8753C158.058 89.8597 158.205 89.8285 158.345 89.7895C158.485 89.7506 158.626 89.6493 158.766 89.4934C158.797 89.4622 158.82 89.4154 158.836 89.3453C158.851 89.2751 158.859 89.1972 158.874 89.1115C158.882 89.0258 158.89 88.9322 158.89 88.8309C158.89 88.7296 158.89 88.6283 158.89 88.5347C158.89 88.449 158.89 88.3399 158.89 88.2074C158.89 88.0749 158.89 87.919 158.89 87.7554C158.89 87.5917 158.89 87.4124 158.89 87.2332V83.765H158.299C158.221 83.765 158.143 83.765 158.05 83.765C157.964 83.765 157.863 83.765 157.754 83.765C157.529 83.765 157.342 83.7961 157.194 83.8429C157.046 83.8897 156.914 83.9754 156.79 84.0923C156.743 84.1391 156.689 84.1936 156.626 84.2793C156.564 84.3651 156.502 84.4508 156.432 84.5521C156.362 84.6534 156.3 84.7548 156.237 84.8717C156.175 84.9886 156.128 85.0977 156.09 85.199L156.012 85.1678L156.276 83.4688C156.416 83.5 156.541 83.5234 156.657 83.5389C156.774 83.5545 156.945 83.5701 157.163 83.5779C157.389 83.5779 157.591 83.5857 157.77 83.5935C157.949 83.5935 158.12 83.5935 158.283 83.5935H159.979C160.158 83.5935 160.329 83.5935 160.5 83.5935C160.664 83.5935 160.835 83.5935 161.014 83.5857C161.193 83.5857 161.395 83.5857 161.621 83.5857C161.815 83.5857 161.978 83.5623 162.103 83.5389C162.227 83.5156 162.36 83.4766 162.5 83.4376L162.787 85.1834L162.71 85.2146L162.725 85.199Z" fill="#444547"/>
<path d="M172.984 89.9532H167.523V89.8675C167.671 89.8441 167.811 89.8051 167.936 89.7506C168.06 89.696 168.169 89.6259 168.255 89.5245C168.286 89.4856 168.309 89.4388 168.325 89.3687C168.34 89.3063 168.356 89.2206 168.371 89.1271C168.387 89.0413 168.395 88.9478 168.402 88.8465C168.402 88.7452 168.41 88.6516 168.41 88.5581C168.41 88.4724 168.41 88.3633 168.41 88.223C168.41 88.0827 168.41 87.919 168.418 87.7554C168.418 87.5839 168.418 87.4124 168.418 87.2332V84.973C168.418 84.8639 168.418 84.7548 168.418 84.6457C168.418 84.5287 168.41 84.4274 168.395 84.3261C168.387 84.2248 168.371 84.1313 168.348 84.0533C168.325 83.9754 168.301 83.913 168.262 83.8819C168.177 83.7883 168.076 83.726 167.975 83.6948C167.874 83.6714 167.741 83.6403 167.586 83.6169V83.5233H172.518L173.124 84.9964L173.039 85.0431C172.557 84.443 172.105 84.0377 171.685 83.8273C171.584 83.7805 171.397 83.7416 171.125 83.7026C170.853 83.6636 170.518 83.648 170.122 83.648C169.997 83.648 169.865 83.648 169.733 83.6636C169.6 83.6714 169.499 83.6792 169.445 83.6948C169.437 83.7883 169.422 83.991 169.414 84.2871C169.406 84.5833 169.398 84.934 169.398 85.3237V85.8927C169.398 86.0485 169.398 86.1732 169.398 86.2745C169.398 86.3759 169.398 86.446 169.398 86.5006V86.6019H169.577C169.67 86.6019 169.772 86.6019 169.881 86.5941C169.997 86.5941 170.114 86.5863 170.231 86.5707C170.347 86.5629 170.441 86.5473 170.518 86.5317C170.697 86.485 170.845 86.4304 170.962 86.3603C171.079 86.2901 171.18 86.2044 171.25 86.1031C171.32 86.0018 171.382 85.8849 171.429 85.7524C171.475 85.6199 171.514 85.4718 171.545 85.3003H171.654V88.1217H171.545C171.499 87.9268 171.429 87.732 171.327 87.5293C171.226 87.3267 171.125 87.1786 171.016 87.0773C170.923 86.9916 170.806 86.9214 170.674 86.8747C170.542 86.8201 170.386 86.7889 170.207 86.7734C170.114 86.7734 170.044 86.7656 169.982 86.7578C169.919 86.7578 169.865 86.7578 169.803 86.7578H169.39C169.375 86.8435 169.367 86.9604 169.367 87.1241V88.1996C169.367 88.2931 169.367 88.3867 169.367 88.4724C169.367 88.5581 169.367 88.6361 169.367 88.6906C169.367 88.8855 169.383 89.0647 169.398 89.2284C169.414 89.3998 169.445 89.5245 169.499 89.6103C169.554 89.696 169.678 89.7506 169.881 89.7895C170.083 89.8285 170.301 89.8441 170.542 89.8441C170.643 89.8441 170.775 89.8441 170.931 89.8441C171.086 89.8441 171.25 89.8207 171.429 89.7973C171.615 89.7739 171.794 89.7272 171.958 89.657C172.121 89.5869 172.269 89.4934 172.424 89.3687C172.572 89.244 172.712 89.0881 172.86 88.9088C173 88.7296 173.148 88.5114 173.296 88.2542L173.389 88.2775L172.946 89.9844L172.984 89.9532Z" fill="#444547"/>
<path d="M184.003 89.9532H178.27V89.8675C178.417 89.8441 178.565 89.8051 178.713 89.7506C178.861 89.696 178.97 89.6259 179.055 89.5246C179.086 89.4856 179.11 89.4388 179.133 89.3687C179.156 89.3063 179.172 89.2206 179.18 89.1271C179.195 89.0413 179.203 88.9478 179.211 88.8465C179.219 88.7452 179.226 88.6517 179.226 88.5581C179.226 88.4724 179.226 88.3633 179.226 88.223C179.226 88.0827 179.226 87.919 179.234 87.7554C179.234 87.5839 179.234 87.4124 179.234 87.2332V84.669C179.234 84.5599 179.234 84.4664 179.219 84.3729C179.211 84.2794 179.195 84.2014 179.18 84.1235C179.164 84.0533 179.133 83.9988 179.102 83.952C179.016 83.8507 178.907 83.7728 178.767 83.7182C178.627 83.6636 178.48 83.6247 178.324 83.6091V83.5156H181.171V83.6091C181.093 83.6169 181 83.6403 180.899 83.6636C180.79 83.687 180.689 83.726 180.595 83.7805C180.502 83.8351 180.417 83.913 180.347 84.0066C180.277 84.1001 180.238 84.2326 180.23 84.3963C180.23 84.6067 180.222 84.7937 180.222 84.9652C180.222 85.1367 180.222 85.3081 180.214 85.4718C180.214 85.6433 180.214 85.8147 180.214 85.994V87.6229C180.214 87.7788 180.214 87.9346 180.214 88.0983C180.214 88.262 180.214 88.449 180.214 88.6517C180.214 88.8387 180.23 89.0258 180.238 89.1972C180.245 89.3687 180.277 89.5012 180.331 89.5791C180.354 89.6103 180.401 89.6415 180.471 89.6726C180.541 89.7038 180.627 89.7272 180.728 89.7506C180.829 89.774 180.938 89.7895 181.054 89.8051C181.171 89.8207 181.296 89.8285 181.412 89.8285C181.459 89.8285 181.537 89.8285 181.638 89.8285C181.739 89.8285 181.856 89.8207 181.98 89.8129C182.105 89.8051 182.229 89.7895 182.361 89.774C182.494 89.7584 182.61 89.735 182.711 89.7038C182.945 89.6415 183.147 89.5479 183.303 89.4466C183.458 89.3375 183.598 89.2206 183.707 89.0725C183.816 88.9322 183.917 88.7764 183.995 88.6205C184.073 88.4568 184.143 88.2853 184.213 88.1061L184.306 88.1373L183.979 89.9766L184.003 89.9532Z" fill="#444547"/>
<path d="M180.531 32.8561C180.531 32.8561 180.515 32.8561 180.492 32.8561C180.523 32.8561 180.531 32.8561 180.531 32.8561ZM171.033 32.4197C166.871 32.1157 161.915 31.6169 156.805 31.2428C159.278 30.9388 162.188 30.2218 166.373 29.1307C175.373 26.8004 185.891 25.8105 189.135 25.5378C189.765 25.491 189.602 25.4364 189.602 25.4364C189.29 25.3507 189.493 25.2962 189.181 25.226C176.486 22.1942 160.873 26.8627 149.881 25.5767C141.192 24.5635 132.378 25.6703 128.815 26.2236C128.815 26.2236 128.628 26.2704 128.636 26.3717C128.644 26.4652 128.838 26.5198 128.838 26.5198C132.199 26.6055 138.181 27.042 144.965 29.4035C146.762 30.027 148.271 30.4946 149.648 30.8219C146.116 30.6894 142.654 30.6739 139.488 30.8843C131.04 31.4454 119.138 32.3105 115.699 32.5521C115.699 32.5521 115.606 32.6379 115.614 32.6769C115.614 32.708 115.715 32.8405 115.715 32.8405C122.802 33.1289 132.082 35.4203 149.679 36.036C162.756 36.488 179.636 33.0432 180.484 32.8717C180.274 32.9029 178.928 33.0042 171.025 32.4274" fill="#445EA1"/>
<path d="M145.898 15.7176C149.547 15.9202 156.221 15.0395 162.593 15.0162C169.602 14.9928 173.515 15.5228 174.479 15.5617C174.565 15.5617 174.619 15.4916 174.619 15.4916C174.619 15.1175 174.215 14.8837 174.137 14.8603C160.173 9.80993 159.955 12.8261 154.868 13.6601C148.917 14.6343 146.482 15.1565 145.323 15.211C145.113 15.2188 145.424 15.6241 145.424 15.6241C145.572 15.6864 145.704 15.7176 145.906 15.7254" fill="#445EA1"/>
<path d="M137.413 20.3393C145.426 24.2752 151.05 22.8645 158.596 21.0252C165.348 19.3729 171.455 19.0533 177.569 19.0767C178.028 19.0767 178.091 19.0222 178.091 19.0222C178.044 18.9364 177.904 18.9053 177.624 18.8819C175.811 18.7182 172.598 17.666 167.985 17.6349C162.68 17.5959 160.836 19.3183 150.467 18.3129C149.02 18.0635 147.542 18.0324 146.04 18.0324C145.161 18.0168 144.096 18.0168 143.1 18.2272C142.586 18.2272 141.583 18.2818 141.163 18.2818C140.961 18.2818 140.338 18.5078 140.167 18.6013C140.167 18.6013 140.206 18.7728 139.809 19.0144C139.615 19.1313 139.374 19.1391 139.14 19.178C139.055 19.1936 138.891 19.1547 138.813 19.1858C138.775 19.2014 138.775 19.256 138.751 19.2871C138.565 19.6379 137.888 19.3885 137.569 19.5521C137.328 19.6768 137.234 19.7782 137.219 20.0509C137.219 20.0509 137.25 20.2536 137.413 20.3315" fill="#445EA1"/>
<path d="M201.402 32.3963C200.382 32.3417 197.839 32.2638 193.233 31.8897C188.535 31.5078 184.902 32.2482 183.828 32.5132C183.828 32.5132 183.828 32.8249 183.774 32.8561C183.657 32.9106 183.836 32.934 183.836 32.934C185.19 33.3159 189.266 33.9784 193.653 33.9238C197.644 33.8771 200.39 32.934 201.425 32.5989C201.534 32.5599 201.542 32.4742 201.542 32.4742C201.526 32.4742 201.565 32.404 201.402 32.3963Z" fill="#445EA1"/>
<path d="M62.8168 59.0275H68.2623C68.5112 59.0275 68.7212 58.9964 68.8846 58.934H69.0402L69.0791 60.7733H68.9313C68.8535 60.2356 68.7212 59.8927 68.5345 59.7524C68.3478 59.5965 68.1222 59.5263 67.8578 59.5263H66.403V65.6834C66.403 65.8861 66.4264 66.0575 66.4731 66.2056C66.5197 66.3459 66.6131 66.4628 66.7531 66.5563C66.8931 66.6421 67.1032 66.6888 67.3754 66.6888V66.8447H63.7115V66.6888C64.116 66.6888 64.3805 66.5953 64.4972 66.416C64.6138 66.229 64.6761 65.9874 64.6761 65.6834V59.5263H63.2214C62.9724 59.5263 62.7702 59.6043 62.6224 59.768C62.4668 59.9238 62.3112 60.259 62.1634 60.7733H62.0078L62.0467 58.934H62.2023C62.3657 58.9964 62.5757 59.0275 62.8246 59.0275" fill="#444547"/>
<path d="M77.4025 62.527H81.0821V60.2044C81.0821 59.9238 81.0354 59.6822 80.9265 59.4796C80.8253 59.277 80.5686 59.1756 80.1797 59.1756H80.1252V59.0276H83.7892V59.1756C83.3769 59.1756 83.1124 59.2692 82.9957 59.4562C82.8868 59.6433 82.8246 59.8849 82.8246 60.1966V65.6679C82.8246 65.8315 82.8401 65.9952 82.8713 66.1277C82.9024 66.268 82.988 66.3927 83.128 66.5018C83.2524 66.6109 83.4625 66.6655 83.7348 66.6655H83.7892V66.8213H80.1252V66.6655C80.5375 66.6655 80.802 66.5719 80.9109 66.3927C81.0276 66.2134 81.0821 65.964 81.0821 65.6601V63.0336H77.4025V65.6601C77.4025 65.8315 77.4181 65.9874 77.4492 66.1277C77.4881 66.268 77.5659 66.3927 77.6981 66.5096C77.8304 66.6187 78.0404 66.6655 78.3127 66.6655H78.3671V66.8213H74.7109V66.6655C75.1154 66.6655 75.3799 66.5719 75.4888 66.3927C75.6055 66.2134 75.6677 65.964 75.6677 65.6601V60.1888C75.6677 59.9005 75.6133 59.6589 75.5044 59.464C75.3955 59.2614 75.1465 59.1679 74.7576 59.1679H74.7031V59.0198H78.3593V59.1679C77.9626 59.1679 77.6981 59.2614 77.5736 59.4484C77.457 59.6277 77.3947 59.8771 77.3947 60.1888V62.5114L77.4025 62.527Z" fill="#444547"/>
<path d="M94.9993 59.0276L95.0615 60.7812H94.906C94.836 60.485 94.7504 60.2434 94.6726 60.0563C94.587 59.8615 94.4626 59.7212 94.307 59.6199C94.1514 59.5186 93.9258 59.4718 93.6535 59.4718H92.0821V62.753H93.3423C93.708 62.753 93.9802 62.6672 94.1514 62.5036C94.3147 62.3399 94.4237 62.0905 94.447 61.771H94.5948V64.0545H94.447C94.3925 63.7116 94.2681 63.4778 94.058 63.3609C93.8558 63.244 93.6146 63.1894 93.3423 63.1894H92.0821V65.434C92.0821 66.0809 92.4166 66.4083 93.0856 66.4083H93.5679C93.8869 66.4083 94.1514 66.3693 94.3536 66.2836C94.5481 66.1978 94.7193 66.0575 94.8515 65.8471C94.9838 65.6367 95.1004 65.3483 95.2094 64.9664H95.3649L95.2483 66.8369H89.375V66.681C89.7873 66.681 90.044 66.5875 90.1684 66.4005C90.2851 66.2212 90.3474 65.9718 90.3474 65.6756V60.2122C90.3474 59.9238 90.2929 59.6822 90.184 59.4874C90.0751 59.2848 89.8184 59.1912 89.4216 59.1912H89.3672V59.0431H94.9915L94.9993 59.0276Z" fill="#444547"/>
<path d="M107.609 59.1678V59.0276H111.273V59.1834C110.869 59.1834 110.604 59.277 110.488 59.464C110.371 59.6511 110.309 59.8927 110.309 60.1966V65.6756C110.309 65.8471 110.332 66.003 110.355 66.1433C110.394 66.2836 110.472 66.4005 110.612 66.5174C110.744 66.6265 110.962 66.681 111.234 66.681H111.281V66.8369H107.617V66.681C108.022 66.681 108.286 66.5875 108.403 66.4083C108.52 66.229 108.582 65.9796 108.582 65.6756V60.1966C108.582 59.8381 108.504 59.5809 108.348 59.4172C108.185 59.2614 107.952 59.1756 107.617 59.1756" fill="#444547"/>
<path d="M121.466 60.9604H121.263C121.115 60.4772 120.898 60.0875 120.586 59.8147C120.283 59.5341 119.91 59.3939 119.474 59.3939C119.256 59.3939 119.054 59.4328 118.883 59.5186C118.704 59.6121 118.564 59.729 118.455 59.8927C118.354 60.0485 118.299 60.2356 118.299 60.446C118.299 60.5629 118.323 60.6798 118.362 60.7967C118.401 60.9136 118.502 61.0539 118.657 61.2332C118.813 61.4046 119.046 61.5839 119.365 61.7943C119.723 62.0204 119.941 62.1529 120.019 62.223C120.47 62.5036 120.828 62.7608 121.108 63.0024C121.388 63.244 121.606 63.5012 121.753 63.7818C121.893 64.0545 121.979 64.3819 121.979 64.7326C121.979 65.0599 121.917 65.3483 121.792 65.6211C121.66 65.8861 121.481 66.1199 121.248 66.3147C121.022 66.5096 120.75 66.6654 120.431 66.7746C120.104 66.8759 119.77 66.9382 119.388 66.9382C119.007 66.9382 118.564 66.8603 118.058 66.72C118.004 66.7044 117.934 66.6888 117.84 66.6732C117.755 66.6576 117.685 66.6499 117.615 66.6499C117.451 66.6499 117.327 66.7356 117.257 66.9148H117.062L117.109 64.7092H117.319C117.389 65.1301 117.529 65.4808 117.747 65.7536C117.973 66.0264 118.214 66.229 118.494 66.3537C118.774 66.4862 119.046 66.5407 119.318 66.5407C119.707 66.5407 120.026 66.4316 120.283 66.2134C120.54 65.9874 120.672 65.7302 120.672 65.4028C120.672 65.1924 120.618 65.0132 120.509 64.8495C120.4 64.6936 120.244 64.5377 120.026 64.3819C119.816 64.226 119.404 63.961 118.805 63.5791C118.494 63.3765 118.222 63.1738 118.004 62.9868C117.786 62.7997 117.615 62.6127 117.49 62.4412C117.366 62.2698 117.28 62.0905 117.226 61.919C117.179 61.7476 117.148 61.5605 117.148 61.3657C117.148 60.9838 117.249 60.6097 117.444 60.2356C117.638 59.8615 117.918 59.5575 118.276 59.3237C118.642 59.0899 119.046 58.973 119.505 58.973C119.723 58.973 119.933 58.9964 120.135 59.0276C120.182 59.0431 120.252 59.0587 120.345 59.0821C120.431 59.1055 120.509 59.1211 120.563 59.1367C120.719 59.1678 120.835 59.1834 120.913 59.1834C121.038 59.1834 121.115 59.16 121.17 59.1211C121.217 59.0821 121.263 59.0276 121.302 58.9496H121.466V60.976V60.9604Z" fill="#444547"/>
<path d="M133.631 66.8291H127.703V66.6732C128.108 66.6732 128.364 66.5875 128.489 66.4005C128.606 66.2212 128.66 65.9796 128.66 65.6678V60.1888C128.66 59.8459 128.59 59.5965 128.442 59.4328C128.294 59.2614 128.045 59.1756 127.703 59.1756V59.0276H131.383V59.1756C130.986 59.1756 130.721 59.2692 130.589 59.4484C130.465 59.6277 130.403 59.8771 130.403 60.1888V65.4106C130.403 65.7302 130.465 65.9718 130.589 66.1433C130.706 66.3147 130.955 66.4005 131.313 66.4005H131.849C132.215 66.4005 132.565 66.3069 132.884 66.1199C133.203 65.9328 133.499 65.4964 133.748 64.8183H133.903L133.631 66.8369V66.8291Z" fill="#444547"/>
<path d="M144.039 58.9496L146.653 65.699C146.793 66.0497 146.964 66.2835 147.151 66.4082C147.338 66.5407 147.571 66.6265 147.851 66.6732V66.8291H144.164V66.6732C144.662 66.6421 144.918 66.4862 144.918 66.1978C144.918 66.151 144.918 66.0887 144.895 66.003C144.879 65.9172 144.856 65.8315 144.825 65.738C144.802 65.6444 144.786 65.5899 144.778 65.5665L144.133 63.9064H141.799L141.247 65.4964C141.176 65.6912 141.138 65.8627 141.138 66.0186C141.138 66.2602 141.208 66.416 141.355 66.5018C141.495 66.5875 141.659 66.6421 141.853 66.6654V66.8213H139.52V66.6654C139.761 66.6421 139.986 66.5329 140.196 66.3225C140.406 66.1199 140.616 65.7458 140.811 65.2002L143.02 58.934H144.039V58.9496ZM141.986 63.3921H143.93L142.927 60.7656L141.986 63.3921Z" fill="#444547"/>
<path d="M156.246 59.0276L161.007 64.0623V60.485C161.007 60.0174 160.905 59.69 160.719 59.5264C160.532 59.3549 160.236 59.238 159.847 59.1834V59.0353H162.531V59.1834C162.236 59.2146 162.01 59.2925 161.87 59.4328C161.722 59.5575 161.629 59.7134 161.59 59.8849C161.543 60.0563 161.52 60.259 161.52 60.4928V66.9304H161.325L155.623 60.9214V65.3171C155.623 65.6834 155.701 65.9952 155.857 66.2524C156.012 66.5096 156.308 66.6577 156.728 66.6888V66.8447H153.943V66.6888C154.729 66.6265 155.11 66.2446 155.102 65.5431V60.3759C155.102 60.3759 155.055 60.3369 155.017 60.2979C154.978 60.2668 154.931 60.22 154.853 60.1421C154.783 60.0719 154.713 60.0096 154.659 59.955C154.184 59.503 153.772 59.2458 153.414 59.1912V59.0431H156.238L156.246 59.0276Z" fill="#444547"/>
<path d="M168.059 59.0276H172.314C173.006 59.0276 173.628 59.1289 174.181 59.3471C174.725 59.5575 175.192 59.8537 175.558 60.2356C175.931 60.6097 176.203 61.0462 176.398 61.5294C176.585 62.0126 176.678 62.5192 176.678 63.0569C176.678 63.5947 176.592 64.0701 176.421 64.5222C176.242 64.9742 175.986 65.3717 175.628 65.7224C175.27 66.0731 174.834 66.3459 174.305 66.5408C173.776 66.7356 173.177 66.8291 172.516 66.8291H168.051V66.6733C168.455 66.6733 168.72 66.5875 168.844 66.4005C168.961 66.2212 169.015 65.9796 169.015 65.6679V60.2122C169.015 59.9161 168.969 59.6745 168.86 59.4718C168.759 59.2692 168.51 59.1679 168.113 59.1679H168.051V59.0198L168.059 59.0276ZM170.75 59.5497V65.2704C170.75 65.5432 170.789 65.7614 170.844 65.9251C170.906 66.0887 171.022 66.2056 171.186 66.2836C171.357 66.3615 171.614 66.4005 171.956 66.4005C172.267 66.4005 172.547 66.3849 172.781 66.3381C173.022 66.2992 173.255 66.2212 173.473 66.1043C173.784 65.9173 174.049 65.6601 174.259 65.3405C174.461 65.021 174.616 64.6703 174.71 64.2806C174.803 63.8909 174.858 63.4934 174.858 63.0881C174.858 62.6828 174.795 62.2386 174.686 61.8255C174.57 61.4047 174.383 61.015 174.134 60.6565C173.877 60.298 173.527 60.0174 173.092 59.7914C172.664 59.5731 172.127 59.464 171.505 59.464C171.279 59.464 171.03 59.4952 170.75 59.5497Z" fill="#444547"/>
<path d="M202.823 65.9874C202.691 66.3225 202.528 66.6265 202.318 66.8837C202.108 67.1409 201.874 67.3669 201.618 67.5461C201.361 67.7254 201.104 67.8657 200.84 67.9592C200.396 68.1229 199.899 68.2242 199.354 68.2554C198.802 68.2943 198.273 68.3099 197.759 68.3099H191.707V68.1385C192.003 68.0917 192.275 68.0138 192.539 67.9125C192.804 67.8033 193.014 67.6631 193.177 67.476C193.232 67.4059 193.278 67.3045 193.317 67.1643C193.356 67.0318 193.38 66.8759 193.411 66.6966C193.442 66.5252 193.457 66.3381 193.473 66.1433C193.481 65.9484 193.488 65.7536 193.488 65.5743C193.488 65.4107 193.488 65.1846 193.496 64.9041C193.496 64.6235 193.504 64.3195 193.512 63.9844C193.512 63.6493 193.52 63.3063 193.52 62.9556V60.2278C193.52 59.9706 193.52 59.7056 193.512 59.4406C193.512 59.1679 193.504 58.8561 193.504 58.5054C193.504 58.2949 193.504 58.0767 193.488 57.8663C193.473 57.6481 193.457 57.4454 193.426 57.2428C193.395 57.0402 193.364 56.8609 193.325 56.705C193.286 56.5414 193.232 56.4322 193.162 56.3621C192.983 56.175 192.812 56.0426 192.633 55.9802C192.454 55.9179 192.213 55.8633 191.894 55.8321V55.6529H197.806C198.249 55.6529 198.677 55.684 199.082 55.7308C199.486 55.7854 199.875 55.8789 200.249 56.0192C200.848 56.2374 201.338 56.5803 201.719 57.0402C202.108 57.5 202.294 58.0767 202.294 58.7782C202.294 59.5497 202.046 60.1732 201.548 60.6487C201.05 61.1241 200.404 61.4436 199.611 61.6073V61.6774C200.031 61.7242 200.443 61.8255 200.855 61.9814C201.268 62.1373 201.633 62.3555 201.952 62.6205C202.279 62.8933 202.536 63.205 202.73 63.5791C202.925 63.9532 203.018 64.3663 203.018 64.8339C203.018 65.2548 202.956 65.6367 202.823 65.9796M199.836 57.2194C199.533 56.7596 199.167 56.4322 198.724 56.2374C198.195 56.0036 197.526 55.8867 196.701 55.8867C196.452 55.8867 196.235 55.8945 196.032 55.9179C195.83 55.9412 195.682 55.9724 195.573 56.0114C195.566 56.0815 195.55 56.1439 195.542 56.2062C195.534 56.2686 195.519 56.3387 195.519 56.4244C195.519 56.5102 195.511 56.6193 195.503 56.7518C195.503 56.8843 195.488 57.0479 195.472 57.2662C195.464 57.6792 195.449 58.1235 195.449 58.6223C195.449 59.1133 195.449 59.5809 195.449 60.0252V61.7086H196.429C196.701 61.7086 196.919 61.7086 197.082 61.693C198.133 61.6385 198.934 61.3345 199.478 60.7967C200.023 60.259 200.295 59.5887 200.295 58.7938C200.295 58.2092 200.147 57.687 199.852 57.2272M200.801 64.0857C200.692 63.7896 200.536 63.509 200.342 63.2596C200.147 63.0102 199.922 62.792 199.657 62.6127C199.393 62.4334 199.105 62.2854 198.786 62.184C198.529 62.1061 198.273 62.0438 198.024 62.0204C197.775 61.9892 197.479 61.9736 197.137 61.9736H195.433V64.1715C195.433 64.4988 195.433 64.8027 195.433 65.0755C195.433 65.3483 195.441 65.5899 195.441 65.7848C195.457 66.229 195.472 66.5953 195.503 66.8837C195.534 67.172 195.62 67.4059 195.76 67.5929C195.869 67.7176 196.024 67.8267 196.235 67.9202C196.445 68.006 196.748 68.0527 197.145 68.0527C197.487 68.0527 197.853 68.0294 198.249 67.9826C198.646 67.9358 199.035 67.8111 199.408 67.6163C199.899 67.3591 200.28 67.0162 200.552 66.5875C200.816 66.1589 200.956 65.6445 200.956 65.0521C200.956 64.7092 200.902 64.3897 200.793 64.0935" fill="#445EA1"/>
<path d="M221.124 68.3099H209.859V68.1385C210.147 68.0917 210.443 68.0138 210.731 67.9124C211.018 67.8111 211.244 67.663 211.407 67.476C211.462 67.4058 211.516 67.3045 211.555 67.172C211.594 67.0395 211.625 66.8759 211.656 66.7044C211.68 66.5252 211.695 66.3459 211.719 66.1511C211.734 65.9562 211.742 65.7614 211.742 65.5821C211.742 65.4184 211.742 65.1924 211.75 64.9118C211.75 64.6313 211.765 64.3273 211.765 63.9922C211.765 63.657 211.773 63.3141 211.773 62.9634V57.9208C211.773 57.7104 211.765 57.5156 211.75 57.3285C211.734 57.1493 211.711 56.9856 211.672 56.8453C211.641 56.705 211.586 56.5881 211.516 56.5102C211.353 56.3153 211.135 56.1594 210.863 56.0503C210.591 55.9412 210.295 55.8789 209.992 55.8399V55.6606H215.585V55.8399C215.437 55.8633 215.25 55.9023 215.04 55.9412C214.83 55.988 214.628 56.0659 214.441 56.175C214.255 56.2764 214.091 56.4322 213.959 56.6193C213.827 56.8141 213.749 57.0635 213.741 57.3831C213.733 57.7883 213.718 58.1702 213.718 58.5054C213.718 58.8483 213.71 59.1756 213.702 59.503C213.702 59.8303 213.702 60.1732 213.702 60.524V63.7194C213.702 64.0234 213.702 64.3351 213.702 64.6624C213.702 64.9898 213.71 65.3483 213.71 65.7458C213.718 66.1199 213.733 66.4784 213.749 66.8213C213.765 67.1642 213.827 67.4136 213.936 67.5773C213.982 67.6397 214.076 67.6942 214.216 67.7566C214.356 67.8111 214.527 67.8657 214.729 67.9047C214.924 67.9436 215.141 67.9826 215.375 68.0138C215.608 68.0449 215.842 68.0527 216.075 68.0527C216.168 68.0527 216.316 68.0527 216.526 68.0527C216.728 68.0449 216.954 68.0294 217.203 68.0138C217.452 67.9904 217.701 67.967 217.957 67.9358C218.214 67.9046 218.44 67.8579 218.642 67.7955C219.109 67.6708 219.498 67.4994 219.809 67.2889C220.12 67.0785 220.385 66.8369 220.602 66.5563C220.828 66.2835 221.015 65.9796 221.163 65.66C221.31 65.3405 221.458 64.9976 221.598 64.6469L221.777 64.7014L221.124 68.3177V68.3099Z" fill="#445EA1"/>
<path d="M240.289 56.1673C240.04 56.3309 239.845 56.5803 239.705 56.9233C239.674 57.009 239.635 57.1415 239.612 57.3285C239.581 57.5156 239.558 57.7338 239.534 57.9754C239.511 58.2248 239.495 58.482 239.48 58.7548C239.472 59.0276 239.464 59.3004 239.464 59.5731C239.457 60.0797 239.441 60.6409 239.418 61.2566C239.402 61.8801 239.379 62.5815 239.355 63.3687C239.348 63.5869 239.332 63.8753 239.309 64.2104C239.293 64.5533 239.231 64.9119 239.145 65.2938C239.052 65.6757 238.904 66.0575 238.702 66.4394C238.5 66.8213 238.204 67.1643 237.831 67.476C237.457 67.7878 236.975 68.0294 236.391 68.2164C235.808 68.3957 235.085 68.4892 234.237 68.4892C233.389 68.4892 232.681 68.4035 232.105 68.2242C231.53 68.0528 231.047 67.8111 230.674 67.515C230.3 67.2188 230.013 66.8915 229.803 66.533C229.6 66.1745 229.445 65.8237 229.344 65.4808C229.242 65.1379 229.188 64.8183 229.172 64.53C229.157 64.2416 229.149 64.0312 229.149 63.8909C229.149 63.5635 229.149 63.1349 229.157 62.6049C229.157 62.0749 229.165 61.4904 229.165 60.8513V57.8819C229.165 57.6715 229.157 57.4766 229.134 57.2974C229.11 57.1181 229.087 56.9544 229.056 56.8063C229.025 56.6583 228.97 56.5414 228.9 56.4634C228.737 56.2608 228.535 56.1205 228.293 56.0348C228.052 55.949 227.78 55.8867 227.477 55.8477V55.6685H232.704V55.8477C232.541 55.8711 232.37 55.9101 232.175 55.949C231.988 55.9958 231.817 56.0737 231.67 56.1673C231.514 56.2686 231.389 56.4011 231.281 56.5803C231.172 56.7596 231.117 56.9778 231.109 57.2506C231.094 57.5546 231.086 57.8273 231.078 58.0611C231.078 58.295 231.071 58.521 231.071 58.747V62.2464C231.071 62.5192 231.071 62.7764 231.078 63.0258C231.078 63.2752 231.086 63.548 231.086 63.8285C231.094 64.452 231.195 65.0132 231.366 65.5276C231.537 66.0342 231.786 66.4706 232.105 66.8291C232.424 67.1876 232.805 67.4682 233.264 67.6553C233.723 67.8501 234.244 67.9436 234.828 67.9436C235.497 67.9436 236.057 67.8657 236.524 67.7176C236.983 67.5617 237.372 67.3513 237.683 67.0863C237.994 66.8135 238.235 66.5018 238.422 66.1511C238.601 65.8004 238.741 65.4263 238.826 65.0288C238.912 64.6313 238.974 64.226 239.005 63.8129C239.036 63.3999 239.052 62.9868 239.052 62.5893V59.6043C239.052 59.3705 239.052 59.1289 239.044 58.8873C239.044 58.6379 239.029 58.4041 239.021 58.1858C239.013 57.9598 238.99 57.7572 238.966 57.5623C238.943 57.3675 238.904 57.2116 238.858 57.0947C238.741 56.7674 238.539 56.5024 238.251 56.292C237.963 56.0893 237.535 55.949 236.983 55.8633V55.684H241.331V55.8633C240.896 55.9257 240.553 56.0348 240.304 56.1984" fill="#445EA1"/>
<path d="M258.118 68.3099H247.383V68.1385C247.671 68.0917 247.943 68.0138 248.2 67.9124C248.449 67.8111 248.659 67.663 248.822 67.476C248.884 67.4058 248.923 67.3045 248.962 67.172C248.993 67.0395 249.024 66.8759 249.055 66.7044C249.086 66.5252 249.11 66.3459 249.118 66.1511C249.125 65.9562 249.133 65.7614 249.133 65.5821C249.133 65.4184 249.133 65.1924 249.141 64.9118C249.141 64.6313 249.149 64.3273 249.156 63.9922C249.156 63.657 249.156 63.3141 249.156 62.9634V58.5132C249.156 58.3027 249.156 58.0845 249.156 57.8585C249.156 57.6403 249.141 57.4298 249.118 57.2272C249.102 57.0246 249.071 56.8531 249.032 56.6894C248.993 56.5335 248.939 56.4166 248.869 56.3465C248.697 56.1594 248.503 56.0347 248.309 55.988C248.106 55.9334 247.85 55.8867 247.531 55.8399V55.6606H257.216L258.406 58.5599L258.227 58.6457C257.278 57.461 256.391 56.666 255.559 56.253C255.356 56.1594 254.991 56.0737 254.454 56.0036C253.917 55.9334 253.264 55.8945 252.486 55.8945C252.245 55.8945 251.988 55.9023 251.724 55.9256C251.459 55.9412 251.272 55.9646 251.156 55.988C251.132 56.175 251.109 56.5647 251.093 57.1493C251.078 57.7338 251.07 58.4118 251.07 59.1912V60.3135C251.07 60.6175 251.07 60.8669 251.07 61.0617C251.078 61.2566 251.078 61.4046 251.078 61.506V61.7008H251.428C251.599 61.7008 251.801 61.7008 252.035 61.6852C252.26 61.6774 252.494 61.6618 252.719 61.6463C252.945 61.6307 253.139 61.5995 253.287 61.5683C253.637 61.4904 253.933 61.3735 254.166 61.2332C254.4 61.0929 254.586 60.9214 254.734 60.7188C254.882 60.524 254.999 60.2901 255.084 60.0252C255.17 59.7602 255.248 59.464 255.318 59.1367H255.528V64.6702H255.318C255.224 64.2961 255.084 63.9064 254.89 63.509C254.695 63.1115 254.493 62.8153 254.283 62.6127C254.096 62.449 253.871 62.3165 253.606 62.2074C253.342 62.1061 253.038 62.0359 252.688 62.0126C252.509 61.997 252.369 61.9892 252.253 61.9892C252.136 61.9892 252.019 61.9814 251.903 61.9814H251.093C251.07 62.1451 251.062 62.3867 251.062 62.6984V64.8105C251.062 64.9976 251.062 65.1768 251.062 65.3483C251.07 65.5198 251.07 65.66 251.07 65.777C251.078 66.1511 251.101 66.5096 251.132 66.8447C251.164 67.1798 251.226 67.4292 251.335 67.5929C251.444 67.7566 251.692 67.8735 252.089 67.9436C252.486 68.0138 252.922 68.0449 253.388 68.0449C253.591 68.0449 253.847 68.0449 254.151 68.0293C254.462 68.0216 254.789 67.9904 255.123 67.9436C255.496 67.8969 255.847 67.8033 256.158 67.6708C256.477 67.5383 256.78 67.3435 257.068 67.1019C257.356 66.8525 257.644 66.5563 257.916 66.1978C258.188 65.8393 258.476 65.4106 258.764 64.904L258.958 64.9586L258.079 68.3177L258.118 68.3099Z" fill="#445EA1"/>
</g>
<defs>
<clipPath id="clip0_57_1686">
<rect width="197" height="78" fill="white" transform="translate(62 12)"/>
</clipPath>
</defs>
</svg>
